  0
SECTION
  2
HEADER
  9
$ACADVER
  1
AC1009
  9
$DWGCODEPAGE
  3
ansi_1252
  9
$INSBASE
 10
0.0
 20
0.0
 30
0.0
  9
$EXTMIN
 10
108.0795930400934
 20
113.515345806478
 30
0.0
  9
$EXTMAX
 10
412.8795930400935
 20
208.765345806478
 30
0.0
  9
$LIMMIN
 10
0.0
 20
0.0
  9
$LIMMAX
 10
420.0
 20
297.0
  9
$ORTHOMODE
 70
     0
  9
$REGENMODE
 70
     1
  9
$FILLMODE
 70
     1
  9
$QTEXTMODE
 70
     0
  9
$MIRRTEXT
 70
     1
  9
$DRAGMODE
 70
     2
  9
$LTSCALE
 40
12.7
  9
$OSMODE
 70
    23
  9
$ATTMODE
 70
     1
  9
$TEXTSIZE
 40
3.5
  9
$TRACEWID
 40
1.0
  9
$TEXTSTYLE
  7
ONSHAPE-STANDARD
  9
$CLAYER
  8
0
  9
$CELTYPE
  6
BYLAYER
  9
$CECOLOR
 62
   256
  9
$DIMSCALE
 40
1.0
  9
$DIMASZ
 40
2.5
  9
$DIMEXO
 40
0.625
  9
$DIMDLI
 40
3.75
  9
$DIMRND
 40
0.0
  9
$DIMDLE
 40
0.0
  9
$DIMEXE
 40
1.25
  9
$DIMTP
 40
0.0
  9
$DIMTM
 40
0.0
  9
$DIMTXT
 40
3.5
  9
$DIMCEN
 40
2.5
  9
$DIMTSZ
 40
0.0
  9
$DIMTOL
 70
     0
  9
$DIMLIM
 70
     0
  9
$DIMTIH
 70
     0
  9
$DIMTOH
 70
     0
  9
$DIMSE1
 70
     0
  9
$DIMSE2
 70
     0
  9
$DIMTAD
 70
     1
  9
$DIMZIN
 70
     8
  9
$DIMBLK
  1

  9
$DIMASO
 70
     1
  9
$DIMSHO
 70
     1
  9
$DIMPOST
  1

  9
$DIMAPOST
  1

  9
$DIMALT
 70
     0
  9
$DIMALTD
 70
     3
  9
$DIMALTF
 40
0.03937
  9
$DIMLFAC
 40
1.0
  9
$DIMTOFL
 70
     1
  9
$DIMTVP
 40
0.0
  9
$DIMTIX
 70
     0
  9
$DIMSOXD
 70
     0
  9
$DIMSAH
 70
     0
  9
$DIMBLK1
  1

  9
$DIMBLK2
  1

  9
$DIMSTYLE
  2
ONSHAPE-ISO-25
  9
$DIMCLRD
 70
     7
  9
$DIMCLRE
 70
     7
  9
$DIMCLRT
 70
     7
  9
$DIMTFAC
 40
1.0
  9
$DIMGAP
 40
0.625
  9
$LUNITS
 70
     2
  9
$LUPREC
 70
     4
  9
$SKETCHINC
 40
1.0
  9
$FILLETRAD
 40
10.0
  9
$AUNITS
 70
     0
  9
$AUPREC
 70
     0
  9
$MENU
  1
.
  9
$ELEVATION
 40
0.0
  9
$PELEVATION
 40
0.0
  9
$THICKNESS
 40
0.0
  9
$LIMCHECK
 70
     0
  9
$CHAMFERA
 40
0.0
  9
$CHAMFERB
 40
0.0
  9
$SKPOLY
 70
     0
  9
$TDCREATE
 40
2459259.608401863
  9
$TDUPDATE
 40
2459259.608402569
  9
$TDINDWG
 40
0.0
  9
$TDUSRTIMER
 40
0.0
  9
$USRTIMER
 70
     1
  9
$ANGBASE
 50
0.0
  9
$ANGDIR
 70
     0
  9
$PDMODE
 70
    33
  9
$PDSIZE
 40
1.0
  9
$PLINEWID
 40
0.0
  9
$COORDS
 70
     1
  9
$SPLFRAME
 70
     0
  9
$SPLINETYPE
 70
     6
  9
$SPLINESEGS
 70
     8
  9
$ATTDIA
 70
     0
  9
$ATTREQ
 70
     1
  9
$HANDLING
 70
     1
  9
$HANDSEED
  5
30E
  9
$SURFTAB1
 70
     6
  9
$SURFTAB2
 70
     6
  9
$SURFTYPE
 70
     6
  9
$SURFU
 70
     6
  9
$SURFV
 70
     6
  9
$UCSNAME
  2

  9
$UCSORG
 10
0.0
 20
0.0
 30
0.0
  9
$UCSXDIR
 10
1.0
 20
0.0
 30
0.0
  9
$UCSYDIR
 10
0.0
 20
1.0
 30
0.0
  9
$PUCSNAME
  2

  9
$PUCSORG
 10
0.0
 20
0.0
 30
0.0
  9
$PUCSXDIR
 10
1.0
 20
0.0
 30
0.0
  9
$PUCSYDIR
 10
0.0
 20
1.0
 30
0.0
  9
$USERI1
 70
     0
  9
$USERI2
 70
     0
  9
$USERI3
 70
     0
  9
$USERI4
 70
     0
  9
$USERI5
 70
     0
  9
$USERR1
 40
0.0
  9
$USERR2
 40
0.0
  9
$USERR3
 40
0.0
  9
$USERR4
 40
0.0
  9
$USERR5
 40
0.0
  9
$WORLDVIEW
 70
     1
  9
$SHADEDGE
 70
     3
  9
$SHADEDIF
 70
    70
  9
$TILEMODE
 70
     1
  9
$MAXACTVP
 70
    64
  9
$PLIMCHECK
 70
     0
  9
$PEXTMIN
 10
1.000000000000000E+20
 20
1.000000000000000E+20
 30
1.000000000000000E+20
  9
$PEXTMAX
 10
-1.000000000000000E+20
 20
-1.000000000000000E+20
 30
-1.000000000000000E+20
  9
$PLIMMIN
 10
0.0
 20
0.0
  9
$PLIMMAX
 10
420.0
 20
297.0
  9
$UNITMODE
 70
     0
  9
$VISRETAIN
 70
     1
  9
$PLINEGEN
 70
     0
  9
$PSLTSCALE
 70
     1
  0
ENDSEC
  0
SECTION
  2
TABLES
  0
TABLE
  2
VPORT
 70
     1
  0
VPORT
  2
*ACTIVE
 70
     0
 10
0.0
 20
0.0
 11
1.0
 21
1.0
 12
260.4795930400935
 22
161.140345806478
 13
0.0
 23
0.0
 14
10.0
 24
10.0
 15
10.0
 25
10.0
 16
0.0
 26
0.0
 36
1.0
 17
0.0
 27
0.0
 37
0.0
 40
97.155
 41
3.200000000000001
 42
50.0
 43
0.0
 44
0.0
 50
0.0
 51
0.0
 71
     0
 72
   100
 73
     1
 74
     3
 75
     0
 76
     0
 77
     0
 78
     0
  0
ENDTAB
  0
TABLE
  2
LTYPE
 70
     1
  0
LTYPE
  2
CONTINUOUS
 70
     0
  3
Solid line
 72
    65
 73
     0
 40
0.0
  0
ENDTAB
  0
TABLE
  2
LAYER
 70
     2
  0
LAYER
  2
0
 70
     0
 62
     7
  6
CONTINUOUS
  0
LAYER
  2
VISIBLE
 70
     0
 62
     7
  6
CONTINUOUS
  0
ENDTAB
  0
TABLE
  2
STYLE
 70
    27
  0
STYLE
  2
STANDARD
 70
     0
 40
0.0
 41
1.0
 50
0.0
 71
     0
 42
3.5
  3
txt
  4

  0
STYLE
  2
ONSHAPE-STANDARD
 70
     0
 40
0.0
 41
1.0
 50
0.0
 71
     0
 42
3.5
  3
NotoSans-Regular.ttf
  4

  0
STYLE
  2
ONSHAPE-STANDARD-DIMENSION
 70
     0
 40
0.0
 41
1.0
 50
0.0
 71
     0
 42
3.5
  3

  4

  0
STYLE
  2
ONSHAPE-STANDARD-BOLD
 70
     0
 40
0.0
 41
1.0
 50
0.0
 71
     0
 42
3.5
  3
NotoSans-Bold.ttf
  4

  0
STYLE
  2
ONSHAPE-STANDARD-FIELDS
 70
     0
 40
0.0
 41
1.0
 50
0.0
 71
     0
 42
3.5
  3

  4

  0
STYLE
  2
ONSHAPE-STANDARD-TCFIELDS
 70
     0
 40
0.0
 41
1.0
 50
0.0
 71
     0
 42
3.5
  3
NotoSansTC-Regular.otf
  4

  0
STYLE
  2
ONSHAPE-STANDARD-SCFIELDS
 70
     0
 40
0.0
 41
1.0
 50
0.0
 71
     0
 42
3.5
  3
NotoSansSC-Regular.otf
  4

  0
STYLE
  2
ONSHAPE-STANDARD-KOREANFIE
 70
     0
 40
0.0
 41
1.0
 50
0.0
 71
     0
 42
3.5
  3
NotoSansKR-Regular.otf
  4

  0
STYLE
  2
TTFSTYLE
 70
     0
 40
0.0
 41
1.0
 50
0.0
 71
     0
 42
3.5
  3
Verdana.ttf
  4

  0
STYLE
  2
ONSHAPE-STANDARD-GTOLERANC
 70
     0
 40
0.0
 41
1.0
 50
0.0
 71
     0
 42
3.5
  3

  4

  0
STYLE
  2
ONSHAPE-STANDARD-TABLE-DAT
 70
     0
 40
0.0
 41
1.0
 50
0.0
 71
     0
 42
3.5
  3
NotoSans-Regular.ttf
  4

  0
STYLE
  2
ONSHAPE-STANDARD-TABLE-TIT
 70
     0
 40
0.0
 41
1.0
 50
0.0
 71
     0
 42
3.5
  3
NotoSans-Bold.ttf
  4

  0
STYLE
  2
ONSHAPE-STANDARD-TABLE-HEA
 70
     0
 40
0.0
 41
1.0
 50
0.0
 71
     0
 42
3.5
  3
NotoSans-Bold.ttf
  4

  0
STYLE
  2
ONSHAPE-STANDARD-BOMTABLE-
 70
     0
 40
0.0
 41
1.0
 50
0.0
 71
     0
 42
3.5
  3
NotoSans-Regular.ttf
  4

  0
STYLE
  2
ONSHAPE-STANDARD-BOMTABLE0
 70
     0
 40
0.0
 41
1.0
 50
0.0
 71
     0
 42
3.5
  3
NotoSans-Bold.ttf
  4

  0
STYLE
  2
ONSHAPE-STANDARD-BOMTABLE1
 70
     0
 40
0.0
 41
1.0
 50
0.0
 71
     0
 42
3.5
  3
NotoSans-Bold.ttf
  4

  0
STYLE
  2
ONSHAPE-STANDARD-NOTESTYLE
 70
     0
 40
3.5
 41
1.0
 50
0.0
 71
     0
 42
3.5
  3
Noto Sans
  4

  0
STYLE
  2
ONSHAPE-STANDARD-VIEW-LABE
 70
     0
 40
3.5
 41
1.0
 50
0.0
 71
     0
 42
3.5
  3
NotoSans-Regular.ttf
  4

  0
STYLE
  2
ONSHAPE-STANDARD-HOLE-CALL
 70
     0
 40
3.5
 41
1.0
 50
0.0
 71
     0
 42
3.5
  3
Noto Sans
  4

  0
STYLE
  2
ONSHAPE-STANDARD-HOLETABLE
 70
     0
 40
0.0
 41
1.0
 50
0.0
 71
     0
 42
3.5
  3
NotoSans-Regular.ttf
  4

  0
STYLE
  2
ONSHAPE-STANDARD-HOLETABL0
 70
     0
 40
0.0
 41
1.0
 50
0.0
 71
     0
 42
3.5
  3
NotoSans-Bold.ttf
  4

  0
STYLE
  2
ONSHAPE-STANDARD-HOLETABL1
 70
     0
 40
0.0
 41
1.0
 50
0.0
 71
     0
 42
3.5
  3
NotoSans-Bold.ttf
  4

  0
STYLE
  2
ONSHAPE-STANDARD-HOLE-TAG
 70
     0
 40
3.5
 41
1.0
 50
0.0
 71
     0
 42
3.5
  3
Noto Sans
  4

  0
STYLE
  2
ONSHAPE-STANDARD-REVISIONT
 70
     0
 40
0.0
 41
1.0
 50
0.0
 71
     0
 42
3.5
  3
NotoSans-Regular.ttf
  4

  0
STYLE
  2
ONSHAPE-STANDARD-REVISION0
 70
     0
 40
0.0
 41
1.0
 50
0.0
 71
     0
 42
3.5
  3
NotoSans-Bold.ttf
  4

  0
STYLE
  2
ONSHAPE-STANDARD-REVISION1
 70
     0
 40
0.0
 41
1.0
 50
0.0
 71
     0
 42
3.5
  3
NotoSans-Bold.ttf
  4

  0
STYLE
  2
ONSHAPE-STANDARD-REVISION-
 70
     0
 40
3.5
 41
1.0
 50
0.0
 71
     0
 42
3.5
  3
Noto Sans
  4

  0
ENDTAB
  0
TABLE
  2
VIEW
 70
     0
  0
ENDTAB
  0
TABLE
  2
UCS
 70
     0
  0
ENDTAB
  0
TABLE
  2
APPID
 70
     1
  0
APPID
  2
ACAD
 70
     0
  0
ENDTAB
  0
TABLE
  2
DIMSTYLE
 70
    18
  0
DIMSTYLE
  2
ISO-25
 70
     0
  3

  4

  5

  6

  7

 40
1.0
 41
2.5
 42
0.625
 43
3.75
 44
1.25
 45
0.0
 46
0.0
 47
0.0
 48
0.0
140
2.5
141
2.5
142
0.0
143
0.03937007874016
144
1.0
145
0.0
146
1.0
147
0.625
 71
     0
 72
     0
 73
     0
 74
     0
 75
     0
 76
     0
 77
     1
 78
     8
170
     0
171
     3
172
     1
173
     0
174
     0
175
     0
176
     0
177
     0
178
     0
  0
DIMSTYLE
  2
ONSHAPE-ISO-25
 70
     0
  3

  4

  5

  6

  7

 40
1.0
 41
2.5
 42
0.625
 43
3.75
 44
1.25
 45
0.0
 46
0.0
 47
0.0
 48
0.0
140
3.5
141
2.5
142
0.0
143
0.03937
144
1.0
145
0.0
146
1.0
147
0.625
 71
     0
 72
     0
 73
     0
 74
     0
 75
     0
 76
     0
 77
     1
 78
     8
170
     0
171
     3
172
     1
173
     0
174
     0
175
     0
176
     7
177
     7
178
     7
  0
DIMSTYLE
  2
ISO
 70
     0
  3

  4
"
  5

  6

  7

 40
1.0
 41
3.5
 42
1.0
 43
10.0
 44
1.0
 45
0.0
 46
0.0
 47
0.1
 48
0.1
140
3.5
141
0.0
142
0.0
143
0.03937
144
1.0
145
0.0
146
0.71
147
1.5
 71
     0
 72
     0
 73
     0
 74
     0
 75
     0
 76
     0
 77
     1
 78
     8
170
     0
171
     3
172
     1
173
     0
174
     0
175
     0
176
     7
177
     7
178
     7
  0
DIMSTYLE
  2
ISO$3
 70
     0
  3

  4
"
  5

  6

  7

 40
1.0
 41
3.5
 42
1.0
 43
10.0
 44
1.0
 45
0.0
 46
0.0
 47
0.1
 48
0.1
140
3.5
141
0.0
142
0.0
143
0.03937
144
1.0
145
0.0
146
0.71
147
1.5
 71
     0
 72
     0
 73
     0
 74
     1
 75
     0
 76
     0
 77
     1
 78
     8
170
     0
171
     3
172
     0
173
     0
174
     0
175
     0
176
     7
177
     7
178
     7
  0
DIMSTYLE
  2
ISO$4
 70
     0
  3

  4
"
  5

  6

  7

 40
1.0
 41
3.5
 42
1.0
 43
10.0
 44
1.0
 45
0.0
 46
0.0
 47
0.1
 48
0.1
140
3.5
141
0.0
142
0.0
143
0.03937
144
1.0
145
0.0
146
0.71
147
1.5
 71
     0
 72
     0
 73
     0
 74
     0
 75
     0
 76
     0
 77
     1
 78
     8
170
     0
171
     3
172
     1
173
     0
174
     0
175
     0
176
     7
177
     7
178
     7
  0
DIMSTYLE
  2
ISO$6
 70
     0
  3

  4
"
  5

  6

  7

 40
1.0
 41
0.5
 42
1.0
 43
10.0
 44
1.0
 45
0.0
 46
0.0
 47
0.1
 48
0.1
140
3.5
141
0.0
142
0.0
143
0.03937
144
1.0
145
0.0
146
0.71
147
1.5
 71
     0
 72
     0
 73
     0
 74
     0
 75
     0
 76
     0
 77
     0
 78
     8
170
     0
171
     3
172
     1
173
     0
174
     0
175
     0
176
     7
177
     7
178
     7
  0
DIMSTYLE
  2
ISO$7
 70
     0
  3

  4
"
  5

  6

  7

 40
1.0
 41
3.5
 42
1.0
 43
10.0
 44
1.0
 45
0.0
 46
0.0
 47
0.1
 48
0.1
140
3.5
141
0.0
142
0.0
143
0.03937
144
1.0
145
0.0
146
0.71
147
1.5
 71
     0
 72
     0
 73
     0
 74
     0
 75
     0
 76
     0
 77
     1
 78
     8
170
     0
171
     3
172
     1
173
     0
174
     0
175
     0
176
     7
177
     7
178
     7
  0
DIMSTYLE
  2
ISO$SF
 70
     0
  3

  4
"
  5

  6

  7

 40
1.0
 41
3.5
 42
1.0
 43
10.0
 44
1.0
 45
0.0
 46
0.0
 47
0.1
 48
0.1
140
3.5
141
0.0
142
0.0
143
0.03937
144
1.0
145
0.0
146
0.71
147
1.5
 71
     0
 72
     0
 73
     0
 74
     0
 75
     1
 76
     1
 77
     1
 78
     8
170
     0
171
     3
172
     1
173
     0
174
     0
175
     0
176
     7
177
     7
178
     7
  0
DIMSTYLE
  2
ISO$SH
 70
     0
  3

  4
"
  5

  6

  7

 40
1.0
 41
3.5
 42
1.0
 43
10.0
 44
1.0
 45
0.0
 46
0.0
 47
0.1
 48
0.1
140
3.5
141
0.0
142
0.0
143
0.03937
144
2.0
145
0.0
146
0.71
147
1.5
 71
     0
 72
     0
 73
     0
 74
     0
 75
     1
 76
     1
 77
     1
 78
     8
170
     0
171
     3
172
     1
173
     1
174
     0
175
     0
176
     7
177
     7
178
     7
  0
DIMSTYLE
  2
ONSHAPE-ISO-25$0
 70
     0
  3

  4

  5

  6

  7

 40
1.0
 41
2.5
 42
0.625
 43
3.75
 44
1.25
 45
0.0
 46
0.0
 47
0.0
 48
0.0
140
3.5
141
2.5
142
0.0
143
0.03937
144
1.0
145
0.0
146
1.0
147
0.625
 71
     0
 72
     0
 73
     0
 74
     0
 75
     0
 76
     0
 77
     1
 78
     8
170
     0
171
     3
172
     1
173
     0
174
     0
175
     0
176
     7
177
     7
178
     7
  0
DIMSTYLE
  2
ONSHAPE-ISO-25$2
 70
     0
  3

  4

  5

  6

  7

 40
1.0
 41
2.5
 42
0.625
 43
3.75
 44
1.25
 45
0.0
 46
0.0
 47
0.0
 48
0.0
140
3.5
141
2.5
142
0.0
143
0.03937
144
1.0
145
0.0
146
1.0
147
0.625
 71
     0
 72
     0
 73
     0
 74
     0
 75
     0
 76
     0
 77
     1
 78
     8
170
     0
171
     3
172
     1
173
     0
174
     0
175
     0
176
     7
177
     7
178
     7
  0
DIMSTYLE
  2
ONSHAPE-ISO-25$3
 70
     0
  3

  4

  5

  6

  7

 40
1.0
 41
2.5
 42
0.625
 43
3.75
 44
1.25
 45
0.0
 46
0.0
 47
0.0
 48
0.0
140
3.5
141
0.0
142
0.0
143
0.03937
144
1.0
145
0.0
146
1.0
147
0.625
 71
     0
 72
     0
 73
     0
 74
     0
 75
     0
 76
     0
 77
     1
 78
     8
170
     0
171
     3
172
     1
173
     0
174
     0
175
     0
176
     7
177
     7
178
     7
  0
DIMSTYLE
  2
ONSHAPE-ISO-25$4
 70
     0
  3

  4

  5

  6

  7

 40
1.0
 41
2.5
 42
0.625
 43
3.75
 44
1.25
 45
0.0
 46
0.0
 47
0.0
 48
0.0
140
3.5
141
0.0
142
0.0
143
0.03937
144
1.0
145
0.0
146
1.0
147
0.625
 71
     0
 72
     0
 73
     0
 74
     0
 75
     0
 76
     0
 77
     1
 78
     8
170
     0
171
     3
172
     1
173
     0
174
     0
175
     0
176
     7
177
     7
178
     7
  0
DIMSTYLE
  2
ONSHAPE-ISO-25$6
 70
     0
  3

  4

  5

  6

  7

 40
1.0
 41
0.5
 42
0.625
 43
3.75
 44
1.25
 45
0.0
 46
0.0
 47
0.0
 48
0.0
140
3.5
141
2.5
142
0.0
143
0.03937
144
1.0
145
0.0
146
1.0
147
0.625
 71
     0
 72
     0
 73
     0
 74
     0
 75
     0
 76
     0
 77
     1
 78
     8
170
     0
171
     3
172
     1
173
     0
174
     0
175
     0
176
     7
177
     7
178
     7
  0
DIMSTYLE
  2
ONSHAPE-ISO-25$7
 70
     0
  3

  4

  5

  6

  7

 40
1.0
 41
2.5
 42
0.625
 43
3.75
 44
1.25
 45
0.0
 46
0.0
 47
0.0
 48
0.0
140
3.5
141
2.5
142
0.0
143
0.03937
144
1.0
145
0.0
146
1.0
147
0.625
 71
     0
 72
     0
 73
     0
 74
     0
 75
     0
 76
     0
 77
     1
 78
     8
170
     0
171
     3
172
     1
173
     0
174
     0
175
     0
176
     7
177
     7
178
     7
  0
DIMSTYLE
  2
ONSHAPE-STANDARD-GTOLERANC
 70
     0
  3

  4

  5

  6

  7

 40
1.0
 41
2.5
 42
0.625
 43
3.75
 44
1.25
 45
0.0
 46
0.0
 47
0.0
 48
0.0
140
3.5
141
2.5
142
0.0
143
0.03937
144
1.0
145
0.0
146
1.0
147
0.625
 71
     0
 72
     0
 73
     0
 74
     0
 75
     0
 76
     0
 77
     1
 78
     8
170
     0
171
     3
172
     1
173
     0
174
     0
175
     0
176
     7
177
     7
178
     7
  0
DIMSTYLE
  2
ONSHAPE-ORDINATESTYLE
 70
     0
  3

  4

  5

  6

  7

 40
1.0
 41
2.5
 42
0.625
 43
3.75
 44
1.25
 45
0.0
 46
0.0
 47
0.0
 48
0.0
140
3.5
141
2.5
142
0.0
143
0.03937
144
1.0
145
0.0
146
1.0
147
0.625
 71
     0
 72
     0
 73
     0
 74
     0
 75
     0
 76
     0
 77
     1
 78
     8
170
     0
171
     3
172
     1
173
     0
174
     0
175
     0
176
     7
177
     7
178
     7
  0
DIMSTYLE
  2
ONSHAPE-CHAMFERDIMSTYLE
 70
     0
  3

  4

  5

  6

  7

 40
1.0
 41
2.5
 42
0.625
 43
3.75
 44
1.25
 45
0.0
 46
0.0
 47
0.0
 48
0.0
140
3.5
141
2.5
142
0.0
143
0.03937
144
1.0
145
0.0
146
1.0
147
0.625
 71
     0
 72
     0
 73
     0
 74
     0
 75
     0
 76
     0
 77
     1
 78
     8
170
     0
171
     3
172
     1
173
     0
174
     0
175
     0
176
     7
177
     7
178
     7
  0
ENDTAB
  0
ENDSEC
  0
SECTION
  2
BLOCKS
  0
BLOCK
  8
0
  2
$MODEL_SPACE
 70
     0
 10
0.0
 20
0.0
 30
0.0
  3
$MODEL_SPACE
  1

  0
ENDBLK
  5
21
  8
0
  0
BLOCK
 67
     1
  8
0
  2
$PAPER_SPACE
 70
     0
 10
0.0
 20
0.0
 30
0.0
  3
$PAPER_SPACE
  1

  0
ENDBLK
  5
1D
 67
     1
  8
0
  0
ENDSEC
  0
SECTION
  2
ENTITIES
  0
ARC
  5
75
  8
VISIBLE
 10
410.6295930400935
 20
206.515345806478
 30
0.0
 40
2.25
 50
0.0
 51
90.0
  0
LINE
  5
76
  8
VISIBLE
 10
412.8795930400935
 20
206.515345806478
 30
0.0
 11
412.8795930400935
 21
115.765345806478
 31
0.0
  0
ARC
  5
77
  8
VISIBLE
 10
410.6295930400935
 20
115.765345806478
 30
0.0
 40
2.25
 50
270.0
 51
0.0
  0
ARC
  5
78
  8
VISIBLE
 10
357.9795930400934
 20
115.765345806478
 30
0.0
 40
2.25
 50
180.0
 51
270.0
  0
LINE
  5
79
  8
VISIBLE
 10
355.7295930400934
 20
115.765345806478
 30
0.0
 11
355.7295930400934
 21
131.315345806478
 31
0.0
  0
ARC
  5
7A
  8
VISIBLE
 10
354.4795930400934
 20
131.315345806478
 30
0.0
 40
1.25
 50
0.0
 51
90.0
  0
LINE
  5
7B
  8
VISIBLE
 10
354.4795930400934
 20
132.565345806478
 30
0.0
 11
347.4545930400934
 21
132.565345806478
 31
0.0
  0
ARC
  5
7C
  8
VISIBLE
 10
347.4545930400934
 20
131.315345806478
 30
0.0
 40
1.25
 50
90.0
 51
180.0
  0
LINE
  5
7D
  8
VISIBLE
 10
346.2045930400934
 20
115.765345806478
 30
0.0
 11
346.2045930400934
 21
131.315345806478
 31
0.0
  0
ARC
  5
7E
  8
VISIBLE
 10
343.9545930400934
 20
115.765345806478
 30
0.0
 40
2.25
 50
270.0
 51
0.0
  0
LINE
  5
7F
  8
VISIBLE
 10
110.3295930400934
 20
113.515345806478
 30
0.0
 11
343.9545930400934
 21
113.515345806478
 31
0.0
  0
ARC
  5
80
  8
VISIBLE
 10
110.3295930400934
 20
115.765345806478
 30
0.0
 40
2.25
 50
180.0
 51
270.0
  0
LINE
  5
81
  8
VISIBLE
 10
108.0795930400934
 20
206.515345806478
 30
0.0
 11
108.0795930400934
 21
115.765345806478
 31
0.0
  0
ARC
  5
82
  8
VISIBLE
 10
110.3295930400934
 20
206.515345806478
 30
0.0
 40
2.25
 50
90.0
 51
180.0
  0
LINE
  5
83
  8
VISIBLE
 10
110.3295930400934
 20
208.765345806478
 30
0.0
 11
410.6295930400935
 21
208.765345806478
 31
0.0
  0
ARC
  5
84
  8
VISIBLE
 10
113.4858430400934
 20
167.640345806478
 30
0.0
 40
0.5
 50
90.0
 51
180.0
  0
LINE
  5
85
  8
VISIBLE
 10
112.9858430400934
 20
167.640345806478
 30
0.0
 11
112.9858430400934
 21
154.640345806478
 31
0.0
  0
ARC
  5
86
  8
VISIBLE
 10
113.4858430400934
 20
154.640345806478
 30
0.0
 40
0.5
 50
180.0
 51
270.0
  0
LINE
  5
87
  8
VISIBLE
 10
113.4858430400934
 20
154.140345806478
 30
0.0
 11
131.2483430400935
 21
154.140345806478
 31
0.0
  0
ARC
  5
88
  8
VISIBLE
 10
131.2483430400935
 20
154.640345806478
 30
0.0
 40
0.5
 50
270.0
 51
0.0
  0
LINE
  5
89
  8
VISIBLE
 10
131.7483430400935
 20
167.640345806478
 30
0.0
 11
131.7483430400935
 21
154.640345806478
 31
0.0
  0
ARC
  5
8A
  8
VISIBLE
 10
131.2483430400935
 20
167.640345806478
 30
0.0
 40
0.5
 50
0.0
 51
90.0
  0
LINE
  5
8B
  8
VISIBLE
 10
113.4858430400934
 20
168.140345806478
 30
0.0
 11
131.2483430400935
 21
168.140345806478
 31
0.0
  0
LINE
  5
8C
  8
VISIBLE
 10
396.3545930400934
 20
129.540345806478
 30
0.0
 11
396.3545930400934
 21
116.540345806478
 31
0.0
  0
ARC
  5
8D
  8
VISIBLE
 10
396.8545930400934
 20
116.540345806478
 30
0.0
 40
0.5
 50
180.0
 51
270.0
  0
LINE
  5
8E
  8
VISIBLE
 10
396.8545930400934
 20
116.040345806478
 30
0.0
 11
409.8545930400934
 21
116.040345806478
 31
0.0
  0
ARC
  5
8F
  8
VISIBLE
 10
409.8545930400934
 20
116.540345806478
 30
0.0
 40
0.5
 50
270.0
 51
0.0
  0
LINE
  5
90
  8
VISIBLE
 10
410.3545930400934
 20
129.540345806478
 30
0.0
 11
410.3545930400934
 21
116.540345806478
 31
0.0
  0
ARC
  5
91
  8
VISIBLE
 10
409.8545930400934
 20
129.540345806478
 30
0.0
 40
0.5
 50
0.0
 51
90.0
  0
LINE
  5
92
  8
VISIBLE
 10
396.8545930400934
 20
130.040345806478
 30
0.0
 11
409.8545930400934
 21
130.040345806478
 31
0.0
  0
ARC
  5
93
  8
VISIBLE
 10
396.8545930400934
 20
129.540345806478
 30
0.0
 40
0.5
 50
90.0
 51
180.0
  0
LINE
  5
94
  8
VISIBLE
 10
377.3045930400934
 20
129.540345806478
 30
0.0
 11
377.3045930400934
 21
116.540345806478
 31
0.0
  0
ARC
  5
95
  8
VISIBLE
 10
377.8045930400934
 20
116.540345806478
 30
0.0
 40
0.49999999999999
 50
180.0
 51
270.0
  0
LINE
  5
96
  8
VISIBLE
 10
377.8045930400934
 20
116.040345806478
 30
0.0
 11
390.8045930400934
 21
116.040345806478
 31
0.0
  0
ARC
  5
97
  8
VISIBLE
 10
390.8045930400934
 20
116.540345806478
 30
0.0
 40
0.5
 50
270.0
 51
0.0
  0
LINE
  5
98
  8
VISIBLE
 10
391.3045930400934
 20
129.540345806478
 30
0.0
 11
391.3045930400934
 21
116.540345806478
 31
0.0
  0
ARC
  5
99
  8
VISIBLE
 10
390.8045930400934
 20
129.540345806478
 30
0.0
 40
0.5
 50
0.0
 51
90.0
  0
LINE
  5
9A
  8
VISIBLE
 10
377.8045930400934
 20
130.040345806478
 30
0.0
 11
390.8045930400934
 21
130.040345806478
 31
0.0
  0
ARC
  5
9B
  8
VISIBLE
 10
377.8045930400934
 20
129.540345806478
 30
0.0
 40
0.49999999999999
 50
90.0
 51
180.0
  0
LINE
  5
9C
  8
VISIBLE
 10
358.2545930400935
 20
129.540345806478
 30
0.0
 11
358.2545930400935
 21
116.540345806478
 31
0.0
  0
ARC
  5
9D
  8
VISIBLE
 10
358.7545930400935
 20
116.540345806478
 30
0.0
 40
0.5
 50
180.0
 51
270.0
  0
LINE
  5
9E
  8
VISIBLE
 10
358.7545930400935
 20
116.040345806478
 30
0.0
 11
371.7545930400935
 21
116.040345806478
 31
0.0
  0
ARC
  5
9F
  8
VISIBLE
 10
371.7545930400935
 20
116.540345806478
 30
0.0
 40
0.500000000000011
 50
270.0
 51
0.0
  0
LINE
  5
A0
  8
VISIBLE
 10
372.2545930400935
 20
129.540345806478
 30
0.0
 11
372.2545930400935
 21
116.540345806478
 31
0.0
  0
ARC
  5
A1
  8
VISIBLE
 10
371.7545930400935
 20
129.540345806478
 30
0.0
 40
0.500000000000011
 50
0.0
 51
90.0
  0
LINE
  5
A2
  8
VISIBLE
 10
358.7545930400935
 20
130.040345806478
 30
0.0
 11
371.7545930400935
 21
130.040345806478
 31
0.0
  0
ARC
  5
A3
  8
VISIBLE
 10
358.7545930400935
 20
129.540345806478
 30
0.0
 40
0.5
 50
90.0
 51
180.0
  0
LINE
  5
A4
  8
VISIBLE
 10
324.9170930400934
 20
129.540345806478
 30
0.0
 11
324.9170930400934
 21
116.540345806478
 31
0.0
  0
ARC
  5
A5
  8
VISIBLE
 10
325.4170930400934
 20
116.540345806478
 30
0.0
 40
0.5
 50
180.0
 51
270.0
  0
LINE
  5
A6
  8
VISIBLE
 10
325.4170930400934
 20
116.040345806478
 30
0.0
 11
338.4170930400934
 21
116.040345806478
 31
0.0
  0
ARC
  5
A7
  8
VISIBLE
 10
338.4170930400934
 20
116.540345806478
 30
0.0
 40
0.5
 50
270.0
 51
0.0
  0
LINE
  5
A8
  8
VISIBLE
 10
338.9170930400934
 20
129.540345806478
 30
0.0
 11
338.9170930400934
 21
116.540345806478
 31
0.0
  0
ARC
  5
A9
  8
VISIBLE
 10
338.4170930400934
 20
129.540345806478
 30
0.0
 40
0.5
 50
0.0
 51
90.0
  0
LINE
  5
AA
  8
VISIBLE
 10
325.4170930400934
 20
130.040345806478
 30
0.0
 11
338.4170930400934
 21
130.040345806478
 31
0.0
  0
ARC
  5
AB
  8
VISIBLE
 10
325.4170930400934
 20
129.540345806478
 30
0.0
 40
0.5
 50
90.0
 51
180.0
  0
LINE
  5
AC
  8
VISIBLE
 10
311.6045930400934
 20
117.540345806478
 30
0.0
 11
311.6045930400934
 21
131.540345806478
 31
0.0
  0
ARC
  5
AD
  8
VISIBLE
 10
311.1045930400934
 20
131.540345806478
 30
0.0
 40
0.5
 50
0.0
 51
90.0
  0
LINE
  5
AE
  8
VISIBLE
 10
311.1045930400934
 20
132.040345806478
 30
0.0
 11
305.1045930400934
 21
132.040345806478
 31
0.0
  0
ARC
  5
AF
  8
VISIBLE
 10
305.1045930400934
 20
131.540345806478
 30
0.0
 40
0.499999999999992
 50
90.0
 51
180.0
  0
LINE
  5
B0
  8
VISIBLE
 10
304.6045930400934
 20
117.540345806478
 30
0.0
 11
304.6045930400934
 21
131.540345806478
 31
0.0
  0
ARC
  5
B1
  8
VISIBLE
 10
305.1045930400934
 20
117.540345806478
 30
0.0
 40
0.5
 50
180.0
 51
270.0
  0
LINE
  5
B2
  8
VISIBLE
 10
311.1045930400934
 20
117.040345806478
 30
0.0
 11
305.1045930400934
 21
117.040345806478
 31
0.0
  0
ARC
  5
B3
  8
VISIBLE
 10
311.1045930400934
 20
117.540345806478
 30
0.0
 40
0.5000000000000071
 50
270.0
 51
0.0
  0
LINE
  5
B4
  8
VISIBLE
 10
197.3045930400934
 20
117.540345806478
 30
0.0
 11
197.3045930400934
 21
131.540345806478
 31
0.0
  0
ARC
  5
B5
  8
VISIBLE
 10
196.8045930400934
 20
131.540345806478
 30
0.0
 40
0.5
 50
0.0
 51
90.0
  0
LINE
  5
B6
  8
VISIBLE
 10
196.8045930400934
 20
132.040345806478
 30
0.0
 11
190.8045930400934
 21
132.040345806478
 31
0.0
  0
ARC
  5
B7
  8
VISIBLE
 10
190.8045930400934
 20
131.540345806478
 30
0.0
 40
0.5
 50
90.0
 51
180.0
  0
LINE
  5
B8
  8
VISIBLE
 10
190.3045930400934
 20
117.540345806478
 30
0.0
 11
190.3045930400934
 21
131.540345806478
 31
0.0
  0
ARC
  5
B9
  8
VISIBLE
 10
190.8045930400934
 20
117.540345806478
 30
0.0
 40
0.5000000000000071
 50
180.0
 51
270.0
  0
LINE
  5
BA
  8
VISIBLE
 10
196.8045930400934
 20
117.040345806478
 30
0.0
 11
190.8045930400934
 21
117.040345806478
 31
0.0
  0
ARC
  5
BB
  8
VISIBLE
 10
196.8045930400934
 20
117.540345806478
 30
0.0
 40
0.5000000000000071
 50
270.0
 51
0.0
  0
LINE
  5
BC
  8
VISIBLE
 10
243.9545930400934
 20
129.540345806478
 30
0.0
 11
243.9545930400934
 21
116.540345806478
 31
0.0
  0
ARC
  5
BD
  8
VISIBLE
 10
244.4545930400934
 20
116.540345806478
 30
0.0
 40
0.5
 50
180.0
 51
270.0
  0
LINE
  5
BE
  8
VISIBLE
 10
244.4545930400934
 20
116.040345806478
 30
0.0
 11
257.4545930400934
 21
116.040345806478
 31
0.0
  0
ARC
  5
BF
  8
VISIBLE
 10
257.4545930400934
 20
116.540345806478
 30
0.0
 40
0.5
 50
270.0
 51
0.0
  0
LINE
  5
C0
  8
VISIBLE
 10
257.9545930400934
 20
129.540345806478
 30
0.0
 11
257.9545930400934
 21
116.540345806478
 31
0.0
  0
ARC
  5
C1
  8
VISIBLE
 10
257.4545930400934
 20
129.540345806478
 30
0.0
 40
0.5
 50
0.0
 51
90.0
  0
LINE
  5
C2
  8
VISIBLE
 10
244.4545930400934
 20
130.040345806478
 30
0.0
 11
257.4545930400934
 21
130.040345806478
 31
0.0
  0
ARC
  5
C3
  8
VISIBLE
 10
244.4545930400934
 20
129.540345806478
 30
0.0
 40
0.5
 50
90.0
 51
180.0
  0
LINE
  5
C4
  8
VISIBLE
 10
162.9920930400934
 20
129.540345806478
 30
0.0
 11
162.9920930400934
 21
116.540345806478
 31
0.0
  0
ARC
  5
C5
  8
VISIBLE
 10
163.4920930400934
 20
116.540345806478
 30
0.0
 40
0.5
 50
180.0
 51
270.0
  0
LINE
  5
C6
  8
VISIBLE
 10
163.4920930400934
 20
116.040345806478
 30
0.0
 11
176.4920930400934
 21
116.040345806478
 31
0.0
  0
ARC
  5
C7
  8
VISIBLE
 10
176.4920930400934
 20
116.540345806478
 30
0.0
 40
0.5
 50
270.0
 51
0.0
  0
LINE
  5
C8
  8
VISIBLE
 10
176.9920930400934
 20
129.540345806478
 30
0.0
 11
176.9920930400934
 21
116.540345806478
 31
0.0
  0
ARC
  5
C9
  8
VISIBLE
 10
176.4920930400934
 20
129.540345806478
 30
0.0
 40
0.5
 50
0.0
 51
90.0
  0
LINE
  5
CA
  8
VISIBLE
 10
163.4920930400934
 20
130.040345806478
 30
0.0
 11
176.4920930400934
 21
130.040345806478
 31
0.0
  0
ARC
  5
CB
  8
VISIBLE
 10
163.4920930400934
 20
129.540345806478
 30
0.0
 40
0.5
 50
90.0
 51
180.0
  0
LINE
  5
CC
  8
VISIBLE
 10
139.1795930400934
 20
129.540345806478
 30
0.0
 11
139.1795930400934
 21
116.540345806478
 31
0.0
  0
ARC
  5
CD
  8
VISIBLE
 10
139.6795930400934
 20
116.540345806478
 30
0.0
 40
0.5
 50
180.0
 51
270.0
  0
LINE
  5
CE
  8
VISIBLE
 10
139.6795930400934
 20
116.040345806478
 30
0.0
 11
152.6795930400934
 21
116.040345806478
 31
0.0
  0
ARC
  5
CF
  8
VISIBLE
 10
152.6795930400934
 20
116.540345806478
 30
0.0
 40
0.5
 50
270.0
 51
0.0
  0
LINE
  5
D0
  8
VISIBLE
 10
153.1795930400934
 20
129.540345806478
 30
0.0
 11
153.1795930400934
 21
116.540345806478
 31
0.0
  0
ARC
  5
D1
  8
VISIBLE
 10
152.6795930400934
 20
129.540345806478
 30
0.0
 40
0.5
 50
0.0
 51
90.0
  0
LINE
  5
D2
  8
VISIBLE
 10
139.6795930400934
 20
130.040345806478
 30
0.0
 11
152.6795930400934
 21
130.040345806478
 31
0.0
  0
ARC
  5
D3
  8
VISIBLE
 10
139.6795930400934
 20
129.540345806478
 30
0.0
 40
0.5
 50
90.0
 51
180.0
  0
LINE
  5
D4
  8
VISIBLE
 10
115.3670930400934
 20
129.540345806478
 30
0.0
 11
115.3670930400934
 21
116.540345806478
 31
0.0
  0
ARC
  5
D5
  8
VISIBLE
 10
115.8670930400934
 20
116.540345806478
 30
0.0
 40
0.5
 50
180.0
 51
270.0
  0
LINE
  5
D6
  8
VISIBLE
 10
115.8670930400934
 20
116.040345806478
 30
0.0
 11
128.8670930400935
 21
116.040345806478
 31
0.0
  0
ARC
  5
D7
  8
VISIBLE
 10
128.8670930400935
 20
116.540345806478
 30
0.0
 40
0.5
 50
270.0
 51
0.0
  0
LINE
  5
D8
  8
VISIBLE
 10
129.3670930400935
 20
129.540345806478
 30
0.0
 11
129.3670930400935
 21
116.540345806478
 31
0.0
  0
ARC
  5
D9
  8
VISIBLE
 10
128.8670930400935
 20
129.540345806478
 30
0.0
 40
0.5
 50
0.0
 51
90.0
  0
LINE
  5
DA
  8
VISIBLE
 10
115.8670930400934
 20
130.040345806478
 30
0.0
 11
128.8670930400935
 21
130.040345806478
 31
0.0
  0
ARC
  5
DB
  8
VISIBLE
 10
115.8670930400934
 20
129.540345806478
 30
0.0
 40
0.5
 50
90.0
 51
180.0
  0
LINE
  5
DC
  8
VISIBLE
 10
396.3545930400934
 20
148.590345806478
 30
0.0
 11
396.3545930400934
 21
135.590345806478
 31
0.0
  0
ARC
  5
DD
  8
VISIBLE
 10
396.8545930400934
 20
135.590345806478
 30
0.0
 40
0.5
 50
180.0
 51
270.0
  0
LINE
  5
DE
  8
VISIBLE
 10
396.8545930400934
 20
135.090345806478
 30
0.0
 11
409.8545930400934
 21
135.090345806478
 31
0.0
  0
ARC
  5
DF
  8
VISIBLE
 10
409.8545930400934
 20
135.590345806478
 30
0.0
 40
0.5
 50
270.0
 51
0.0
  0
LINE
  5
E0
  8
VISIBLE
 10
410.3545930400934
 20
148.590345806478
 30
0.0
 11
410.3545930400934
 21
135.590345806478
 31
0.0
  0
ARC
  5
E1
  8
VISIBLE
 10
409.8545930400934
 20
148.590345806478
 30
0.0
 40
0.5
 50
0.0
 51
90.0
  0
LINE
  5
E2
  8
VISIBLE
 10
396.8545930400934
 20
149.090345806478
 30
0.0
 11
409.8545930400934
 21
149.090345806478
 31
0.0
  0
ARC
  5
E3
  8
VISIBLE
 10
396.8545930400934
 20
148.590345806478
 30
0.0
 40
0.5
 50
90.0
 51
180.0
  0
LINE
  5
E4
  8
VISIBLE
 10
377.3045930400934
 20
148.590345806478
 30
0.0
 11
377.3045930400934
 21
135.590345806478
 31
0.0
  0
ARC
  5
E5
  8
VISIBLE
 10
377.8045930400934
 20
135.590345806478
 30
0.0
 40
0.499999999999988
 50
180.0
 51
270.0
  0
LINE
  5
E6
  8
VISIBLE
 10
377.8045930400934
 20
135.090345806478
 30
0.0
 11
390.8045930400934
 21
135.090345806478
 31
0.0
  0
ARC
  5
E7
  8
VISIBLE
 10
390.8045930400934
 20
135.590345806478
 30
0.0
 40
0.5
 50
270.0
 51
0.0
  0
LINE
  5
E8
  8
VISIBLE
 10
391.3045930400934
 20
148.590345806478
 30
0.0
 11
391.3045930400934
 21
135.590345806478
 31
0.0
  0
ARC
  5
E9
  8
VISIBLE
 10
390.8045930400934
 20
148.590345806478
 30
0.0
 40
0.5
 50
0.0
 51
90.0
  0
LINE
  5
EA
  8
VISIBLE
 10
377.8045930400934
 20
149.090345806478
 30
0.0
 11
390.8045930400934
 21
149.090345806478
 31
0.0
  0
ARC
  5
EB
  8
VISIBLE
 10
377.8045930400934
 20
148.590345806478
 30
0.0
 40
0.499999999999988
 50
90.0
 51
180.0
  0
LINE
  5
EC
  8
VISIBLE
 10
351.1108430400934
 20
148.590345806478
 30
0.0
 11
351.1108430400934
 21
135.590345806478
 31
0.0
  0
ARC
  5
ED
  8
VISIBLE
 10
351.6108430400934
 20
135.590345806478
 30
0.0
 40
0.5
 50
180.0
 51
270.0
  0
LINE
  5
EE
  8
VISIBLE
 10
351.6108430400934
 20
135.090345806478
 30
0.0
 11
364.6108430400934
 21
135.090345806478
 31
0.0
  0
ARC
  5
EF
  8
VISIBLE
 10
364.6108430400934
 20
135.590345806478
 30
0.0
 40
0.5
 50
270.0
 51
0.0
  0
LINE
  5
F0
  8
VISIBLE
 10
365.1108430400934
 20
148.590345806478
 30
0.0
 11
365.1108430400934
 21
135.590345806478
 31
0.0
  0
ARC
  5
F1
  8
VISIBLE
 10
364.6108430400934
 20
148.590345806478
 30
0.0
 40
0.5
 50
0.0
 51
90.0
  0
LINE
  5
F2
  8
VISIBLE
 10
351.6108430400934
 20
149.090345806478
 30
0.0
 11
364.6108430400934
 21
149.090345806478
 31
0.0
  0
ARC
  5
F3
  8
VISIBLE
 10
351.6108430400934
 20
148.590345806478
 30
0.0
 40
0.5
 50
90.0
 51
180.0
  0
LINE
  5
F4
  8
VISIBLE
 10
324.9170930400934
 20
148.590345806478
 30
0.0
 11
324.9170930400934
 21
135.590345806478
 31
0.0
  0
ARC
  5
F5
  8
VISIBLE
 10
325.4170930400934
 20
135.590345806478
 30
0.0
 40
0.5
 50
180.0
 51
270.0
  0
LINE
  5
F6
  8
VISIBLE
 10
325.4170930400934
 20
135.090345806478
 30
0.0
 11
338.4170930400934
 21
135.090345806478
 31
0.0
  0
ARC
  5
F7
  8
VISIBLE
 10
338.4170930400934
 20
135.590345806478
 30
0.0
 40
0.5
 50
270.0
 51
0.0
  0
LINE
  5
F8
  8
VISIBLE
 10
338.9170930400934
 20
148.590345806478
 30
0.0
 11
338.9170930400934
 21
135.590345806478
 31
0.0
  0
ARC
  5
F9
  8
VISIBLE
 10
338.4170930400934
 20
148.590345806478
 30
0.0
 40
0.5
 50
0.0
 51
90.0
  0
LINE
  5
FA
  8
VISIBLE
 10
325.4170930400934
 20
149.090345806478
 30
0.0
 11
338.4170930400934
 21
149.090345806478
 31
0.0
  0
ARC
  5
FB
  8
VISIBLE
 10
325.4170930400934
 20
148.590345806478
 30
0.0
 40
0.5
 50
90.0
 51
180.0
  0
LINE
  5
FC
  8
VISIBLE
 10
305.8670930400934
 20
148.590345806478
 30
0.0
 11
305.8670930400934
 21
135.590345806478
 31
0.0
  0
ARC
  5
FD
  8
VISIBLE
 10
306.3670930400934
 20
135.590345806478
 30
0.0
 40
0.5
 50
180.0
 51
270.0
  0
LINE
  5
FE
  8
VISIBLE
 10
306.3670930400934
 20
135.090345806478
 30
0.0
 11
319.3670930400934
 21
135.090345806478
 31
0.0
  0
ARC
  5
FF
  8
VISIBLE
 10
319.3670930400934
 20
135.590345806478
 30
0.0
 40
0.5
 50
270.0
 51
0.0
  0
LINE
  5
100
  8
VISIBLE
 10
319.8670930400934
 20
148.590345806478
 30
0.0
 11
319.8670930400934
 21
135.590345806478
 31
0.0
  0
ARC
  5
101
  8
VISIBLE
 10
319.3670930400934
 20
148.590345806478
 30
0.0
 40
0.5
 50
0.0
 51
90.0
  0
LINE
  5
102
  8
VISIBLE
 10
306.3670930400934
 20
149.090345806478
 30
0.0
 11
319.3670930400934
 21
149.090345806478
 31
0.0
  0
ARC
  5
103
  8
VISIBLE
 10
306.3670930400934
 20
148.590345806478
 30
0.0
 40
0.5
 50
90.0
 51
180.0
  0
LINE
  5
104
  8
VISIBLE
 10
286.8170930400935
 20
148.590345806478
 30
0.0
 11
286.8170930400935
 21
135.590345806478
 31
0.0
  0
ARC
  5
105
  8
VISIBLE
 10
287.3170930400935
 20
135.590345806478
 30
0.0
 40
0.5
 50
180.0
 51
270.0
  0
LINE
  5
106
  8
VISIBLE
 10
287.3170930400935
 20
135.090345806478
 30
0.0
 11
300.3170930400935
 21
135.090345806478
 31
0.0
  0
ARC
  5
107
  8
VISIBLE
 10
300.3170930400935
 20
135.590345806478
 30
0.0
 40
0.5
 50
270.0
 51
0.0
  0
LINE
  5
108
  8
VISIBLE
 10
300.8170930400935
 20
148.590345806478
 30
0.0
 11
300.8170930400935
 21
135.590345806478
 31
0.0
  0
ARC
  5
109
  8
VISIBLE
 10
300.3170930400935
 20
148.590345806478
 30
0.0
 40
0.5
 50
0.0
 51
90.0
  0
LINE
  5
10A
  8
VISIBLE
 10
287.3170930400935
 20
149.090345806478
 30
0.0
 11
300.3170930400935
 21
149.090345806478
 31
0.0
  0
ARC
  5
10B
  8
VISIBLE
 10
287.3170930400935
 20
148.590345806478
 30
0.0
 40
0.5
 50
90.0
 51
180.0
  0
LINE
  5
10C
  8
VISIBLE
 10
267.7670930400934
 20
148.590345806478
 30
0.0
 11
267.7670930400934
 21
135.590345806478
 31
0.0
  0
ARC
  5
10D
  8
VISIBLE
 10
268.2670930400934
 20
135.590345806478
 30
0.0
 40
0.5
 50
180.0
 51
270.0
  0
LINE
  5
10E
  8
VISIBLE
 10
268.2670930400934
 20
135.090345806478
 30
0.0
 11
281.2670930400934
 21
135.090345806478
 31
0.0
  0
ARC
  5
10F
  8
VISIBLE
 10
281.2670930400934
 20
135.590345806478
 30
0.0
 40
0.5
 50
270.0
 51
0.0
  0
LINE
  5
110
  8
VISIBLE
 10
281.7670930400934
 20
148.590345806478
 30
0.0
 11
281.7670930400934
 21
135.590345806478
 31
0.0
  0
ARC
  5
111
  8
VISIBLE
 10
281.2670930400934
 20
148.590345806478
 30
0.0
 40
0.5
 50
0.0
 51
90.0
  0
LINE
  5
112
  8
VISIBLE
 10
268.2670930400934
 20
149.090345806478
 30
0.0
 11
281.2670930400934
 21
149.090345806478
 31
0.0
  0
ARC
  5
113
  8
VISIBLE
 10
268.2670930400934
 20
148.590345806478
 30
0.0
 40
0.5
 50
90.0
 51
180.0
  0
LINE
  5
114
  8
VISIBLE
 10
248.7170930400935
 20
148.590345806478
 30
0.0
 11
248.7170930400935
 21
135.590345806478
 31
0.0
  0
ARC
  5
115
  8
VISIBLE
 10
249.2170930400935
 20
135.590345806478
 30
0.0
 40
0.5
 50
180.0
 51
270.0
  0
LINE
  5
116
  8
VISIBLE
 10
249.2170930400935
 20
135.090345806478
 30
0.0
 11
262.2170930400935
 21
135.090345806478
 31
0.0
  0
ARC
  5
117
  8
VISIBLE
 10
262.2170930400935
 20
135.590345806478
 30
0.0
 40
0.5
 50
270.0
 51
0.0
  0
LINE
  5
118
  8
VISIBLE
 10
262.7170930400935
 20
148.590345806478
 30
0.0
 11
262.7170930400935
 21
135.590345806478
 31
0.0
  0
ARC
  5
119
  8
VISIBLE
 10
262.2170930400935
 20
148.590345806478
 30
0.0
 40
0.5
 50
0.0
 51
90.0
  0
LINE
  5
11A
  8
VISIBLE
 10
249.2170930400935
 20
149.090345806478
 30
0.0
 11
262.2170930400935
 21
149.090345806478
 31
0.0
  0
ARC
  5
11B
  8
VISIBLE
 10
249.2170930400935
 20
148.590345806478
 30
0.0
 40
0.5
 50
90.0
 51
180.0
  0
LINE
  5
11C
  8
VISIBLE
 10
229.6670930400934
 20
148.590345806478
 30
0.0
 11
229.6670930400934
 21
135.590345806478
 31
0.0
  0
ARC
  5
11D
  8
VISIBLE
 10
230.1670930400934
 20
135.590345806478
 30
0.0
 40
0.5
 50
180.0
 51
270.0
  0
LINE
  5
11E
  8
VISIBLE
 10
230.1670930400934
 20
135.090345806478
 30
0.0
 11
243.1670930400934
 21
135.090345806478
 31
0.0
  0
ARC
  5
11F
  8
VISIBLE
 10
243.1670930400934
 20
135.590345806478
 30
0.0
 40
0.5
 50
270.0
 51
0.0
  0
LINE
  5
120
  8
VISIBLE
 10
243.6670930400934
 20
148.590345806478
 30
0.0
 11
243.6670930400934
 21
135.590345806478
 31
0.0
  0
ARC
  5
121
  8
VISIBLE
 10
243.1670930400934
 20
148.590345806478
 30
0.0
 40
0.5
 50
0.0
 51
90.0
  0
LINE
  5
122
  8
VISIBLE
 10
230.1670930400934
 20
149.090345806478
 30
0.0
 11
243.1670930400934
 21
149.090345806478
 31
0.0
  0
ARC
  5
123
  8
VISIBLE
 10
230.1670930400934
 20
148.590345806478
 30
0.0
 40
0.5
 50
90.0
 51
180.0
  0
LINE
  5
124
  8
VISIBLE
 10
210.6170930400934
 20
148.590345806478
 30
0.0
 11
210.6170930400934
 21
135.590345806478
 31
0.0
  0
ARC
  5
125
  8
VISIBLE
 10
211.1170930400934
 20
135.590345806478
 30
0.0
 40
0.500000000000006
 50
180.0
 51
270.0
  0
LINE
  5
126
  8
VISIBLE
 10
211.1170930400934
 20
135.090345806478
 30
0.0
 11
224.1170930400934
 21
135.090345806478
 31
0.0
  0
ARC
  5
127
  8
VISIBLE
 10
224.1170930400934
 20
135.590345806478
 30
0.0
 40
0.5
 50
270.0
 51
0.0
  0
LINE
  5
128
  8
VISIBLE
 10
224.6170930400934
 20
148.590345806478
 30
0.0
 11
224.6170930400934
 21
135.590345806478
 31
0.0
  0
ARC
  5
129
  8
VISIBLE
 10
224.1170930400934
 20
148.590345806478
 30
0.0
 40
0.5
 50
0.0
 51
90.0
  0
LINE
  5
12A
  8
VISIBLE
 10
211.1170930400934
 20
149.090345806478
 30
0.0
 11
224.1170930400934
 21
149.090345806478
 31
0.0
  0
ARC
  5
12B
  8
VISIBLE
 10
211.1170930400934
 20
148.590345806478
 30
0.0
 40
0.5000000000000071
 50
90.0
 51
180.0
  0
LINE
  5
12C
  8
VISIBLE
 10
191.5670930400934
 20
148.590345806478
 30
0.0
 11
191.5670930400934
 21
135.590345806478
 31
0.0
  0
ARC
  5
12D
  8
VISIBLE
 10
192.0670930400935
 20
135.590345806478
 30
0.0
 40
0.500000000000013
 50
180.0
 51
270.0
  0
LINE
  5
12E
  8
VISIBLE
 10
192.0670930400935
 20
135.090345806478
 30
0.0
 11
205.0670930400935
 21
135.090345806478
 31
0.0
  0
ARC
  5
12F
  8
VISIBLE
 10
205.0670930400935
 20
135.590345806478
 30
0.0
 40
0.5
 50
270.0
 51
0.0
  0
LINE
  5
130
  8
VISIBLE
 10
205.5670930400935
 20
148.590345806478
 30
0.0
 11
205.5670930400935
 21
135.590345806478
 31
0.0
  0
ARC
  5
131
  8
VISIBLE
 10
205.0670930400935
 20
148.590345806478
 30
0.0
 40
0.5
 50
0.0
 51
90.0
  0
LINE
  5
132
  8
VISIBLE
 10
192.0670930400935
 20
149.090345806478
 30
0.0
 11
205.0670930400935
 21
149.090345806478
 31
0.0
  0
ARC
  5
133
  8
VISIBLE
 10
192.0670930400935
 20
148.590345806478
 30
0.0
 40
0.500000000000013
 50
90.0
 51
180.0
  0
LINE
  5
134
  8
VISIBLE
 10
172.5170930400934
 20
148.590345806478
 30
0.0
 11
172.5170930400934
 21
135.590345806478
 31
0.0
  0
ARC
  5
135
  8
VISIBLE
 10
173.0170930400934
 20
135.590345806478
 30
0.0
 40
0.500000000000013
 50
180.0
 51
270.0
  0
LINE
  5
136
  8
VISIBLE
 10
173.0170930400934
 20
135.090345806478
 30
0.0
 11
186.0170930400934
 21
135.090345806478
 31
0.0
  0
ARC
  5
137
  8
VISIBLE
 10
186.0170930400934
 20
135.590345806478
 30
0.0
 40
0.5
 50
270.0
 51
0.0
  0
LINE
  5
138
  8
VISIBLE
 10
186.5170930400934
 20
148.590345806478
 30
0.0
 11
186.5170930400934
 21
135.590345806478
 31
0.0
  0
ARC
  5
139
  8
VISIBLE
 10
186.0170930400934
 20
148.590345806478
 30
0.0
 40
0.5
 50
0.0
 51
90.0
  0
LINE
  5
13A
  8
VISIBLE
 10
173.0170930400934
 20
149.090345806478
 30
0.0
 11
186.0170930400934
 21
149.090345806478
 31
0.0
  0
ARC
  5
13B
  8
VISIBLE
 10
173.0170930400934
 20
148.590345806478
 30
0.0
 40
0.500000000000013
 50
90.0
 51
180.0
  0
LINE
  5
13C
  8
VISIBLE
 10
153.4670930400935
 20
148.590345806478
 30
0.0
 11
153.4670930400935
 21
135.590345806478
 31
0.0
  0
ARC
  5
13D
  8
VISIBLE
 10
153.9670930400935
 20
135.590345806478
 30
0.0
 40
0.5
 50
180.0
 51
270.0
  0
LINE
  5
13E
  8
VISIBLE
 10
153.9670930400935
 20
135.090345806478
 30
0.0
 11
166.9670930400935
 21
135.090345806478
 31
0.0
  0
ARC
  5
13F
  8
VISIBLE
 10
166.9670930400935
 20
135.590345806478
 30
0.0
 40
0.5
 50
270.0
 51
0.0
  0
LINE
  5
140
  8
VISIBLE
 10
167.4670930400935
 20
148.590345806478
 30
0.0
 11
167.4670930400935
 21
135.590345806478
 31
0.0
  0
ARC
  5
141
  8
VISIBLE
 10
166.9670930400935
 20
148.590345806478
 30
0.0
 40
0.5
 50
0.0
 51
90.0
  0
LINE
  5
142
  8
VISIBLE
 10
153.9670930400935
 20
149.090345806478
 30
0.0
 11
166.9670930400935
 21
149.090345806478
 31
0.0
  0
ARC
  5
143
  8
VISIBLE
 10
153.9670930400935
 20
148.590345806478
 30
0.0
 40
0.5
 50
90.0
 51
180.0
  0
ARC
  5
144
  8
VISIBLE
 10
137.4488430400934
 20
134.590345806478
 30
0.0
 40
0.5
 50
0.0
 51
90.0
  0
LINE
  5
145
  8
VISIBLE
 10
137.9488430400934
 20
134.590345806478
 30
0.0
 11
137.9488430400934
 21
133.590345806478
 31
0.0
  0
ARC
  5
146
  8
VISIBLE
 10
138.4488430400934
 20
133.590345806478
 30
0.0
 40
0.500000000000013
 50
180.0
 51
270.0
  0
LINE
  5
147
  8
VISIBLE
 10
138.4488430400934
 20
133.090345806478
 30
0.0
 11
144.4488430400934
 21
133.090345806478
 31
0.0
  0
ARC
  5
148
  8
VISIBLE
 10
144.4488430400934
 20
133.590345806478
 30
0.0
 40
0.5
 50
270.0
 51
0.0
  0
LINE
  5
149
  8
VISIBLE
 10
144.9488430400934
 20
148.590345806478
 30
0.0
 11
144.9488430400934
 21
133.590345806478
 31
0.0
  0
ARC
  5
14A
  8
VISIBLE
 10
144.4488430400934
 20
148.590345806478
 30
0.0
 40
0.5
 50
0.0
 51
90.0
  0
LINE
  5
14B
  8
VISIBLE
 10
114.5728430400935
 20
149.090345806478
 30
0.0
 11
144.4488430400934
 21
149.090345806478
 31
0.0
  0
ARC
  5
14C
  8
VISIBLE
 10
114.5728430400935
 20
148.590345806478
 30
0.0
 40
0.5
 50
90.0
 51
180.0
  0
LINE
  5
14D
  8
VISIBLE
 10
114.0728430400935
 20
148.590345806478
 30
0.0
 11
114.0728430400935
 21
133.590345806478
 31
0.0
  0
ARC
  5
14E
  8
VISIBLE
 10
114.5728430400935
 20
133.590345806478
 30
0.0
 40
0.5
 50
180.0
 51
270.0
  0
LINE
  5
14F
  8
VISIBLE
 10
114.5728430400935
 20
133.090345806478
 30
0.0
 11
120.5728430400935
 21
133.090345806478
 31
0.0
  0
ARC
  5
150
  8
VISIBLE
 10
120.5728430400935
 20
133.590345806478
 30
0.0
 40
0.5
 50
270.0
 51
0.0
  0
LINE
  5
151
  8
VISIBLE
 10
121.0728430400935
 20
134.590345806478
 30
0.0
 11
121.0728430400935
 21
133.590345806478
 31
0.0
  0
ARC
  5
152
  8
VISIBLE
 10
121.5728430400935
 20
134.590345806478
 30
0.0
 40
0.5
 50
90.0
 51
180.0
  0
LINE
  5
153
  8
VISIBLE
 10
121.5728430400935
 20
135.090345806478
 30
0.0
 11
137.4488430400934
 21
135.090345806478
 31
0.0
  0
LINE
  5
154
  8
VISIBLE
 10
396.3545930400934
 20
167.640345806478
 30
0.0
 11
396.3545930400934
 21
154.640345806478
 31
0.0
  0
ARC
  5
155
  8
VISIBLE
 10
396.8545930400934
 20
154.640345806478
 30
0.0
 40
0.5
 50
180.0
 51
270.0
  0
LINE
  5
156
  8
VISIBLE
 10
396.8545930400934
 20
154.140345806478
 30
0.0
 11
409.8545930400934
 21
154.140345806478
 31
0.0
  0
ARC
  5
157
  8
VISIBLE
 10
409.8545930400934
 20
154.640345806478
 30
0.0
 40
0.5
 50
270.0
 51
0.0
  0
LINE
  5
158
  8
VISIBLE
 10
410.3545930400934
 20
167.640345806478
 30
0.0
 11
410.3545930400934
 21
154.640345806478
 31
0.0
  0
ARC
  5
159
  8
VISIBLE
 10
409.8545930400934
 20
167.640345806478
 30
0.0
 40
0.5
 50
0.0
 51
90.0
  0
LINE
  5
15A
  8
VISIBLE
 10
396.8545930400934
 20
168.140345806478
 30
0.0
 11
409.8545930400934
 21
168.140345806478
 31
0.0
  0
ARC
  5
15B
  8
VISIBLE
 10
396.8545930400934
 20
167.640345806478
 30
0.0
 40
0.5
 50
90.0
 51
180.0
  0
ARC
  5
15C
  8
VISIBLE
 10
381.3363430400934
 20
152.640345806478
 30
0.0
 40
0.5
 50
180.0
 51
270.0
  0
LINE
  5
15D
  8
VISIBLE
 10
381.3363430400934
 20
152.140345806478
 30
0.0
 11
387.3363430400934
 21
152.140345806478
 31
0.0
  0
ARC
  5
15E
  8
VISIBLE
 10
387.3363430400934
 20
152.640345806478
 30
0.0
 40
0.5
 50
270.0
 51
0.0
  0
LINE
  5
15F
  8
VISIBLE
 10
387.8363430400934
 20
167.640345806478
 30
0.0
 11
387.8363430400934
 21
152.640345806478
 31
0.0
  0
ARC
  5
160
  8
VISIBLE
 10
387.3363430400934
 20
167.640345806478
 30
0.0
 40
0.5
 50
0.0
 51
90.0
  0
LINE
  5
161
  8
VISIBLE
 10
357.4603430400934
 20
168.140345806478
 30
0.0
 11
387.3363430400934
 21
168.140345806478
 31
0.0
  0
ARC
  5
162
  8
VISIBLE
 10
357.4603430400934
 20
167.640345806478
 30
0.0
 40
0.5
 50
90.0
 51
180.0
  0
LINE
  5
163
  8
VISIBLE
 10
356.9603430400934
 20
167.640345806478
 30
0.0
 11
356.9603430400934
 21
152.640345806478
 31
0.0
  0
ARC
  5
164
  8
VISIBLE
 10
357.4603430400934
 20
152.640345806478
 30
0.0
 40
0.499999999999988
 50
180.0
 51
270.0
  0
LINE
  5
165
  8
VISIBLE
 10
357.4603430400934
 20
152.140345806478
 30
0.0
 11
363.4603430400934
 21
152.140345806478
 31
0.0
  0
ARC
  5
166
  8
VISIBLE
 10
363.4603430400934
 20
152.640345806478
 30
0.0
 40
0.5
 50
270.0
 51
0.0
  0
LINE
  5
167
  8
VISIBLE
 10
363.9603430400934
 20
153.640345806478
 30
0.0
 11
363.9603430400934
 21
152.640345806478
 31
0.0
  0
ARC
  5
168
  8
VISIBLE
 10
364.4603430400934
 20
153.640345806478
 30
0.0
 40
0.5
 50
90.0
 51
180.0
  0
LINE
  5
169
  8
VISIBLE
 10
364.4603430400934
 20
154.140345806478
 30
0.0
 11
380.3363430400934
 21
154.140345806478
 31
0.0
  0
ARC
  5
16A
  8
VISIBLE
 10
380.3363430400934
 20
153.640345806478
 30
0.0
 40
0.5
 50
0.0
 51
90.0
  0
LINE
  5
16B
  8
VISIBLE
 10
380.8363430400934
 20
153.640345806478
 30
0.0
 11
380.8363430400934
 21
152.640345806478
 31
0.0
  0
LINE
  5
16C
  8
VISIBLE
 10
334.4420930400935
 20
167.640345806478
 30
0.0
 11
334.4420930400935
 21
154.640345806478
 31
0.0
  0
ARC
  5
16D
  8
VISIBLE
 10
334.9420930400935
 20
154.640345806478
 30
0.0
 40
0.5
 50
180.0
 51
270.0
  0
LINE
  5
16E
  8
VISIBLE
 10
334.9420930400935
 20
154.140345806478
 30
0.0
 11
347.9420930400935
 21
154.140345806478
 31
0.0
  0
ARC
  5
16F
  8
VISIBLE
 10
347.9420930400935
 20
154.640345806478
 30
0.0
 40
0.500000000000012
 50
270.0
 51
0.0
  0
LINE
  5
170
  8
VISIBLE
 10
348.4420930400935
 20
167.640345806478
 30
0.0
 11
348.4420930400935
 21
154.640345806478
 31
0.0
  0
ARC
  5
171
  8
VISIBLE
 10
347.9420930400935
 20
167.640345806478
 30
0.0
 40
0.500000000000012
 50
0.0
 51
90.0
  0
LINE
  5
172
  8
VISIBLE
 10
334.9420930400935
 20
168.140345806478
 30
0.0
 11
347.9420930400935
 21
168.140345806478
 31
0.0
  0
ARC
  5
173
  8
VISIBLE
 10
334.9420930400935
 20
167.640345806478
 30
0.0
 40
0.5
 50
90.0
 51
180.0
  0
LINE
  5
174
  8
VISIBLE
 10
315.3920930400935
 20
167.640345806478
 30
0.0
 11
315.3920930400935
 21
154.640345806478
 31
0.0
  0
ARC
  5
175
  8
VISIBLE
 10
315.8920930400935
 20
154.640345806478
 30
0.0
 40
0.5
 50
180.0
 51
270.0
  0
LINE
  5
176
  8
VISIBLE
 10
315.8920930400935
 20
154.140345806478
 30
0.0
 11
328.8920930400934
 21
154.140345806478
 31
0.0
  0
ARC
  5
177
  8
VISIBLE
 10
328.8920930400934
 20
154.640345806478
 30
0.0
 40
0.5
 50
270.0
 51
0.0
  0
LINE
  5
178
  8
VISIBLE
 10
329.3920930400935
 20
167.640345806478
 30
0.0
 11
329.3920930400935
 21
154.640345806478
 31
0.0
  0
ARC
  5
179
  8
VISIBLE
 10
328.8920930400934
 20
167.640345806478
 30
0.0
 40
0.5
 50
0.0
 51
90.0
  0
LINE
  5
17A
  8
VISIBLE
 10
315.8920930400935
 20
168.140345806478
 30
0.0
 11
328.8920930400934
 21
168.140345806478
 31
0.0
  0
ARC
  5
17B
  8
VISIBLE
 10
315.8920930400935
 20
167.640345806478
 30
0.0
 40
0.5
 50
90.0
 51
180.0
  0
LINE
  5
17C
  8
VISIBLE
 10
296.3420930400935
 20
167.640345806478
 30
0.0
 11
296.3420930400935
 21
154.640345806478
 31
0.0
  0
ARC
  5
17D
  8
VISIBLE
 10
296.8420930400935
 20
154.640345806478
 30
0.0
 40
0.5
 50
180.0
 51
270.0
  0
LINE
  5
17E
  8
VISIBLE
 10
296.8420930400935
 20
154.140345806478
 30
0.0
 11
309.8420930400935
 21
154.140345806478
 31
0.0
  0
ARC
  5
17F
  8
VISIBLE
 10
309.8420930400935
 20
154.640345806478
 30
0.0
 40
0.5000000000000071
 50
270.0
 51
0.0
  0
LINE
  5
180
  8
VISIBLE
 10
310.3420930400935
 20
167.640345806478
 30
0.0
 11
310.3420930400935
 21
154.640345806478
 31
0.0
  0
ARC
  5
181
  8
VISIBLE
 10
309.8420930400935
 20
167.640345806478
 30
0.0
 40
0.5000000000000071
 50
0.0
 51
90.0
  0
LINE
  5
182
  8
VISIBLE
 10
296.8420930400935
 20
168.140345806478
 30
0.0
 11
309.8420930400935
 21
168.140345806478
 31
0.0
  0
ARC
  5
183
  8
VISIBLE
 10
296.8420930400935
 20
167.640345806478
 30
0.0
 40
0.5
 50
90.0
 51
180.0
  0
LINE
  5
184
  8
VISIBLE
 10
277.2920930400934
 20
167.640345806478
 30
0.0
 11
277.2920930400934
 21
154.640345806478
 31
0.0
  0
ARC
  5
185
  8
VISIBLE
 10
277.7920930400934
 20
154.640345806478
 30
0.0
 40
0.5
 50
180.0
 51
270.0
  0
LINE
  5
186
  8
VISIBLE
 10
277.7920930400934
 20
154.140345806478
 30
0.0
 11
290.7920930400934
 21
154.140345806478
 31
0.0
  0
ARC
  5
187
  8
VISIBLE
 10
290.7920930400934
 20
154.640345806478
 30
0.0
 40
0.5
 50
270.0
 51
0.0
  0
LINE
  5
188
  8
VISIBLE
 10
291.2920930400934
 20
167.640345806478
 30
0.0
 11
291.2920930400934
 21
154.640345806478
 31
0.0
  0
ARC
  5
189
  8
VISIBLE
 10
290.7920930400934
 20
167.640345806478
 30
0.0
 40
0.5
 50
0.0
 51
90.0
  0
LINE
  5
18A
  8
VISIBLE
 10
277.7920930400934
 20
168.140345806478
 30
0.0
 11
290.7920930400934
 21
168.140345806478
 31
0.0
  0
ARC
  5
18B
  8
VISIBLE
 10
277.7920930400934
 20
167.640345806478
 30
0.0
 40
0.5
 50
90.0
 51
180.0
  0
LINE
  5
18C
  8
VISIBLE
 10
258.2420930400934
 20
167.640345806478
 30
0.0
 11
258.2420930400934
 21
154.640345806478
 31
0.0
  0
ARC
  5
18D
  8
VISIBLE
 10
258.7420930400934
 20
154.640345806478
 30
0.0
 40
0.5
 50
180.0
 51
270.0
  0
LINE
  5
18E
  8
VISIBLE
 10
258.7420930400934
 20
154.140345806478
 30
0.0
 11
271.7420930400934
 21
154.140345806478
 31
0.0
  0
ARC
  5
18F
  8
VISIBLE
 10
271.7420930400934
 20
154.640345806478
 30
0.0
 40
0.5
 50
270.0
 51
0.0
  0
LINE
  5
190
  8
VISIBLE
 10
272.2420930400934
 20
167.640345806478
 30
0.0
 11
272.2420930400934
 21
154.640345806478
 31
0.0
  0
ARC
  5
191
  8
VISIBLE
 10
271.7420930400934
 20
167.640345806478
 30
0.0
 40
0.5
 50
0.0
 51
90.0
  0
LINE
  5
192
  8
VISIBLE
 10
258.7420930400934
 20
168.140345806478
 30
0.0
 11
271.7420930400934
 21
168.140345806478
 31
0.0
  0
ARC
  5
193
  8
VISIBLE
 10
258.7420930400934
 20
167.640345806478
 30
0.0
 40
0.5
 50
90.0
 51
180.0
  0
LINE
  5
194
  8
VISIBLE
 10
239.1920930400935
 20
167.640345806478
 30
0.0
 11
239.1920930400935
 21
154.640345806478
 31
0.0
  0
ARC
  5
195
  8
VISIBLE
 10
239.6920930400935
 20
154.640345806478
 30
0.0
 40
0.5
 50
180.0
 51
270.0
  0
LINE
  5
196
  8
VISIBLE
 10
239.6920930400935
 20
154.140345806478
 30
0.0
 11
252.6920930400935
 21
154.140345806478
 31
0.0
  0
ARC
  5
197
  8
VISIBLE
 10
252.6920930400935
 20
154.640345806478
 30
0.0
 40
0.5
 50
270.0
 51
0.0
  0
LINE
  5
198
  8
VISIBLE
 10
253.1920930400935
 20
167.640345806478
 30
0.0
 11
253.1920930400935
 21
154.640345806478
 31
0.0
  0
ARC
  5
199
  8
VISIBLE
 10
252.6920930400935
 20
167.640345806478
 30
0.0
 40
0.5
 50
0.0
 51
90.0
  0
LINE
  5
19A
  8
VISIBLE
 10
239.6920930400935
 20
168.140345806478
 30
0.0
 11
252.6920930400935
 21
168.140345806478
 31
0.0
  0
ARC
  5
19B
  8
VISIBLE
 10
239.6920930400935
 20
167.640345806478
 30
0.0
 40
0.5
 50
90.0
 51
180.0
  0
LINE
  5
19C
  8
VISIBLE
 10
220.1420930400934
 20
167.640345806478
 30
0.0
 11
220.1420930400934
 21
154.640345806478
 31
0.0
  0
ARC
  5
19D
  8
VISIBLE
 10
220.6420930400934
 20
154.640345806478
 30
0.0
 40
0.5
 50
180.0
 51
270.0
  0
LINE
  5
19E
  8
VISIBLE
 10
220.6420930400934
 20
154.140345806478
 30
0.0
 11
233.6420930400934
 21
154.140345806478
 31
0.0
  0
ARC
  5
19F
  8
VISIBLE
 10
233.6420930400934
 20
154.640345806478
 30
0.0
 40
0.5
 50
270.0
 51
0.0
  0
LINE
  5
1A0
  8
VISIBLE
 10
234.1420930400934
 20
167.640345806478
 30
0.0
 11
234.1420930400934
 21
154.640345806478
 31
0.0
  0
ARC
  5
1A1
  8
VISIBLE
 10
233.6420930400934
 20
167.640345806478
 30
0.0
 40
0.5
 50
0.0
 51
90.0
  0
LINE
  5
1A2
  8
VISIBLE
 10
220.6420930400934
 20
168.140345806478
 30
0.0
 11
233.6420930400934
 21
168.140345806478
 31
0.0
  0
ARC
  5
1A3
  8
VISIBLE
 10
220.6420930400934
 20
167.640345806478
 30
0.0
 40
0.5
 50
90.0
 51
180.0
  0
LINE
  5
1A4
  8
VISIBLE
 10
201.0920930400935
 20
167.640345806478
 30
0.0
 11
201.0920930400935
 21
154.640345806478
 31
0.0
  0
ARC
  5
1A5
  8
VISIBLE
 10
201.5920930400935
 20
154.640345806478
 30
0.0
 40
0.5000000000000071
 50
180.0
 51
270.0
  0
LINE
  5
1A6
  8
VISIBLE
 10
201.5920930400935
 20
154.140345806478
 30
0.0
 11
214.5920930400935
 21
154.140345806478
 31
0.0
  0
ARC
  5
1A7
  8
VISIBLE
 10
214.5920930400935
 20
154.640345806478
 30
0.0
 40
0.5
 50
270.0
 51
0.0
  0
LINE
  5
1A8
  8
VISIBLE
 10
215.0920930400935
 20
167.640345806478
 30
0.0
 11
215.0920930400935
 21
154.640345806478
 31
0.0
  0
ARC
  5
1A9
  8
VISIBLE
 10
214.5920930400935
 20
167.640345806478
 30
0.0
 40
0.5
 50
0.0
 51
90.0
  0
LINE
  5
1AA
  8
VISIBLE
 10
201.5920930400935
 20
168.140345806478
 30
0.0
 11
214.5920930400935
 21
168.140345806478
 31
0.0
  0
ARC
  5
1AB
  8
VISIBLE
 10
201.5920930400935
 20
167.640345806478
 30
0.0
 40
0.5000000000000071
 50
90.0
 51
180.0
  0
LINE
  5
1AC
  8
VISIBLE
 10
182.0420930400934
 20
167.640345806478
 30
0.0
 11
182.0420930400934
 21
154.640345806478
 31
0.0
  0
ARC
  5
1AD
  8
VISIBLE
 10
182.5420930400934
 20
154.640345806478
 30
0.0
 40
0.5
 50
180.0
 51
270.0
  0
LINE
  5
1AE
  8
VISIBLE
 10
182.5420930400934
 20
154.140345806478
 30
0.0
 11
195.5420930400934
 21
154.140345806478
 31
0.0
  0
ARC
  5
1AF
  8
VISIBLE
 10
195.5420930400934
 20
154.640345806478
 30
0.0
 40
0.5
 50
270.0
 51
0.0
  0
LINE
  5
1B0
  8
VISIBLE
 10
196.0420930400934
 20
167.640345806478
 30
0.0
 11
196.0420930400934
 21
154.640345806478
 31
0.0
  0
ARC
  5
1B1
  8
VISIBLE
 10
195.5420930400934
 20
167.640345806478
 30
0.0
 40
0.5
 50
0.0
 51
90.0
  0
LINE
  5
1B2
  8
VISIBLE
 10
182.5420930400934
 20
168.140345806478
 30
0.0
 11
195.5420930400934
 21
168.140345806478
 31
0.0
  0
ARC
  5
1B3
  8
VISIBLE
 10
182.5420930400934
 20
167.640345806478
 30
0.0
 40
0.5
 50
90.0
 51
180.0
  0
LINE
  5
1B4
  8
VISIBLE
 10
162.9920930400934
 20
167.640345806478
 30
0.0
 11
162.9920930400934
 21
154.640345806478
 31
0.0
  0
ARC
  5
1B5
  8
VISIBLE
 10
163.4920930400934
 20
154.640345806478
 30
0.0
 40
0.5
 50
180.0
 51
270.0
  0
LINE
  5
1B6
  8
VISIBLE
 10
163.4920930400934
 20
154.140345806478
 30
0.0
 11
176.4920930400934
 21
154.140345806478
 31
0.0
  0
ARC
  5
1B7
  8
VISIBLE
 10
176.4920930400934
 20
154.640345806478
 30
0.0
 40
0.5
 50
270.0
 51
0.0
  0
LINE
  5
1B8
  8
VISIBLE
 10
176.9920930400934
 20
167.640345806478
 30
0.0
 11
176.9920930400934
 21
154.640345806478
 31
0.0
  0
ARC
  5
1B9
  8
VISIBLE
 10
176.4920930400934
 20
167.640345806478
 30
0.0
 40
0.5
 50
0.0
 51
90.0
  0
LINE
  5
1BA
  8
VISIBLE
 10
163.4920930400934
 20
168.140345806478
 30
0.0
 11
176.4920930400934
 21
168.140345806478
 31
0.0
  0
ARC
  5
1BB
  8
VISIBLE
 10
163.4920930400934
 20
167.640345806478
 30
0.0
 40
0.5
 50
90.0
 51
180.0
  0
LINE
  5
1BC
  8
VISIBLE
 10
143.9420930400934
 20
167.640345806478
 30
0.0
 11
143.9420930400934
 21
154.640345806478
 31
0.0
  0
ARC
  5
1BD
  8
VISIBLE
 10
144.4420930400934
 20
154.640345806478
 30
0.0
 40
0.5
 50
180.0
 51
270.0
  0
LINE
  5
1BE
  8
VISIBLE
 10
144.4420930400934
 20
154.140345806478
 30
0.0
 11
157.4420930400934
 21
154.140345806478
 31
0.0
  0
ARC
  5
1BF
  8
VISIBLE
 10
157.4420930400934
 20
154.640345806478
 30
0.0
 40
0.4999999999999891
 50
270.0
 51
0.0
  0
LINE
  5
1C0
  8
VISIBLE
 10
157.9420930400934
 20
167.640345806478
 30
0.0
 11
157.9420930400934
 21
154.640345806478
 31
0.0
  0
ARC
  5
1C1
  8
VISIBLE
 10
157.4420930400934
 20
167.640345806478
 30
0.0
 40
0.4999999999999891
 50
0.0
 51
90.0
  0
LINE
  5
1C2
  8
VISIBLE
 10
144.4420930400934
 20
168.140345806478
 30
0.0
 11
157.4420930400934
 21
168.140345806478
 31
0.0
  0
ARC
  5
1C3
  8
VISIBLE
 10
144.4420930400934
 20
167.640345806478
 30
0.0
 40
0.5
 50
90.0
 51
180.0
  0
LINE
  5
1C4
  8
VISIBLE
 10
396.3545930400934
 20
186.690345806478
 30
0.0
 11
396.3545930400934
 21
173.690345806478
 31
0.0
  0
ARC
  5
1C5
  8
VISIBLE
 10
396.8545930400934
 20
173.690345806478
 30
0.0
 40
0.5
 50
180.0
 51
270.0
  0
LINE
  5
1C6
  8
VISIBLE
 10
396.8545930400934
 20
173.190345806478
 30
0.0
 11
409.8545930400934
 21
173.190345806478
 31
0.0
  0
ARC
  5
1C7
  8
VISIBLE
 10
409.8545930400934
 20
173.690345806478
 30
0.0
 40
0.5
 50
270.0
 51
0.0
  0
LINE
  5
1C8
  8
VISIBLE
 10
410.3545930400934
 20
186.690345806478
 30
0.0
 11
410.3545930400934
 21
173.690345806478
 31
0.0
  0
ARC
  5
1C9
  8
VISIBLE
 10
409.8545930400934
 20
186.690345806478
 30
0.0
 40
0.5
 50
0.0
 51
90.0
  0
LINE
  5
1CA
  8
VISIBLE
 10
396.8545930400934
 20
187.190345806478
 30
0.0
 11
409.8545930400934
 21
187.190345806478
 31
0.0
  0
ARC
  5
1CB
  8
VISIBLE
 10
396.8545930400934
 20
186.690345806478
 30
0.0
 40
0.5
 50
90.0
 51
180.0
  0
LINE
  5
1CC
  8
VISIBLE
 10
372.5420930400934
 20
186.690345806478
 30
0.0
 11
372.5420930400934
 21
173.690345806478
 31
0.0
  0
ARC
  5
1CD
  8
VISIBLE
 10
373.0420930400934
 20
173.690345806478
 30
0.0
 40
0.5
 50
180.0
 51
270.0
  0
LINE
  5
1CE
  8
VISIBLE
 10
373.0420930400934
 20
173.190345806478
 30
0.0
 11
386.0420930400934
 21
173.190345806478
 31
0.0
  0
ARC
  5
1CF
  8
VISIBLE
 10
386.0420930400934
 20
173.690345806478
 30
0.0
 40
0.5
 50
270.0
 51
0.0
  0
LINE
  5
1D0
  8
VISIBLE
 10
386.5420930400934
 20
186.690345806478
 30
0.0
 11
386.5420930400934
 21
173.690345806478
 31
0.0
  0
ARC
  5
1D1
  8
VISIBLE
 10
386.0420930400934
 20
186.690345806478
 30
0.0
 40
0.5
 50
0.0
 51
90.0
  0
LINE
  5
1D2
  8
VISIBLE
 10
373.0420930400934
 20
187.190345806478
 30
0.0
 11
386.0420930400934
 21
187.190345806478
 31
0.0
  0
ARC
  5
1D3
  8
VISIBLE
 10
373.0420930400934
 20
186.690345806478
 30
0.0
 40
0.5
 50
90.0
 51
180.0
  0
LINE
  5
1D4
  8
VISIBLE
 10
348.7295930400934
 20
186.690345806478
 30
0.0
 11
348.7295930400934
 21
173.690345806478
 31
0.0
  0
ARC
  5
1D5
  8
VISIBLE
 10
349.2295930400934
 20
173.690345806478
 30
0.0
 40
0.499999999999988
 50
180.0
 51
270.0
  0
LINE
  5
1D6
  8
VISIBLE
 10
349.2295930400934
 20
173.190345806478
 30
0.0
 11
362.2295930400934
 21
173.190345806478
 31
0.0
  0
ARC
  5
1D7
  8
VISIBLE
 10
362.2295930400934
 20
173.690345806478
 30
0.0
 40
0.5
 50
270.0
 51
0.0
  0
LINE
  5
1D8
  8
VISIBLE
 10
362.7295930400934
 20
186.690345806478
 30
0.0
 11
362.7295930400934
 21
173.690345806478
 31
0.0
  0
ARC
  5
1D9
  8
VISIBLE
 10
362.2295930400934
 20
186.690345806478
 30
0.0
 40
0.5
 50
0.0
 51
90.0
  0
LINE
  5
1DA
  8
VISIBLE
 10
349.2295930400934
 20
187.190345806478
 30
0.0
 11
362.2295930400934
 21
187.190345806478
 31
0.0
  0
ARC
  5
1DB
  8
VISIBLE
 10
349.2295930400934
 20
186.690345806478
 30
0.0
 40
0.499999999999988
 50
90.0
 51
180.0
  0
LINE
  5
1DC
  8
VISIBLE
 10
329.6795930400934
 20
186.690345806478
 30
0.0
 11
329.6795930400934
 21
173.690345806478
 31
0.0
  0
ARC
  5
1DD
  8
VISIBLE
 10
330.1795930400934
 20
173.690345806478
 30
0.0
 40
0.5
 50
180.0
 51
270.0
  0
LINE
  5
1DE
  8
VISIBLE
 10
330.1795930400934
 20
173.190345806478
 30
0.0
 11
343.1795930400934
 21
173.190345806478
 31
0.0
  0
ARC
  5
1DF
  8
VISIBLE
 10
343.1795930400934
 20
173.690345806478
 30
0.0
 40
0.500000000000013
 50
270.0
 51
0.0
  0
LINE
  5
1E0
  8
VISIBLE
 10
343.6795930400934
 20
186.690345806478
 30
0.0
 11
343.6795930400934
 21
173.690345806478
 31
0.0
  0
ARC
  5
1E1
  8
VISIBLE
 10
343.1795930400934
 20
186.690345806478
 30
0.0
 40
0.500000000000013
 50
0.0
 51
90.0
  0
LINE
  5
1E2
  8
VISIBLE
 10
330.1795930400934
 20
187.190345806478
 30
0.0
 11
343.1795930400934
 21
187.190345806478
 31
0.0
  0
ARC
  5
1E3
  8
VISIBLE
 10
330.1795930400934
 20
186.690345806478
 30
0.0
 40
0.5
 50
90.0
 51
180.0
  0
LINE
  5
1E4
  8
VISIBLE
 10
310.6295930400934
 20
186.690345806478
 30
0.0
 11
310.6295930400934
 21
173.690345806478
 31
0.0
  0
ARC
  5
1E5
  8
VISIBLE
 10
311.1295930400934
 20
173.690345806478
 30
0.0
 40
0.5
 50
180.0
 51
270.0
  0
LINE
  5
1E6
  8
VISIBLE
 10
311.1295930400934
 20
173.190345806478
 30
0.0
 11
324.1295930400934
 21
173.190345806478
 31
0.0
  0
ARC
  5
1E7
  8
VISIBLE
 10
324.1295930400934
 20
173.690345806478
 30
0.0
 40
0.5
 50
270.0
 51
0.0
  0
LINE
  5
1E8
  8
VISIBLE
 10
324.6295930400935
 20
186.690345806478
 30
0.0
 11
324.6295930400935
 21
173.690345806478
 31
0.0
  0
ARC
  5
1E9
  8
VISIBLE
 10
324.1295930400934
 20
186.690345806478
 30
0.0
 40
0.5
 50
0.0
 51
90.0
  0
LINE
  5
1EA
  8
VISIBLE
 10
311.1295930400934
 20
187.190345806478
 30
0.0
 11
324.1295930400934
 21
187.190345806478
 31
0.0
  0
ARC
  5
1EB
  8
VISIBLE
 10
311.1295930400934
 20
186.690345806478
 30
0.0
 40
0.5
 50
90.0
 51
180.0
  0
LINE
  5
1EC
  8
VISIBLE
 10
291.5795930400934
 20
186.690345806478
 30
0.0
 11
291.5795930400934
 21
173.690345806478
 31
0.0
  0
ARC
  5
1ED
  8
VISIBLE
 10
292.0795930400934
 20
173.690345806478
 30
0.0
 40
0.5
 50
180.0
 51
270.0
  0
LINE
  5
1EE
  8
VISIBLE
 10
292.0795930400934
 20
173.190345806478
 30
0.0
 11
305.0795930400935
 21
173.190345806478
 31
0.0
  0
ARC
  5
1EF
  8
VISIBLE
 10
305.0795930400935
 20
173.690345806478
 30
0.0
 40
0.5
 50
270.0
 51
0.0
  0
LINE
  5
1F0
  8
VISIBLE
 10
305.5795930400935
 20
186.690345806478
 30
0.0
 11
305.5795930400935
 21
173.690345806478
 31
0.0
  0
ARC
  5
1F1
  8
VISIBLE
 10
305.0795930400935
 20
186.690345806478
 30
0.0
 40
0.5
 50
0.0
 51
90.0
  0
LINE
  5
1F2
  8
VISIBLE
 10
292.0795930400934
 20
187.190345806478
 30
0.0
 11
305.0795930400935
 21
187.190345806478
 31
0.0
  0
ARC
  5
1F3
  8
VISIBLE
 10
292.0795930400934
 20
186.690345806478
 30
0.0
 40
0.5
 50
90.0
 51
180.0
  0
LINE
  5
1F4
  8
VISIBLE
 10
272.5295930400935
 20
186.690345806478
 30
0.0
 11
272.5295930400935
 21
173.690345806478
 31
0.0
  0
ARC
  5
1F5
  8
VISIBLE
 10
273.0295930400935
 20
173.690345806478
 30
0.0
 40
0.5
 50
180.0
 51
270.0
  0
LINE
  5
1F6
  8
VISIBLE
 10
273.0295930400935
 20
173.190345806478
 30
0.0
 11
286.0295930400935
 21
173.190345806478
 31
0.0
  0
ARC
  5
1F7
  8
VISIBLE
 10
286.0295930400935
 20
173.690345806478
 30
0.0
 40
0.5
 50
270.0
 51
0.0
  0
LINE
  5
1F8
  8
VISIBLE
 10
286.5295930400935
 20
186.690345806478
 30
0.0
 11
286.5295930400935
 21
173.690345806478
 31
0.0
  0
ARC
  5
1F9
  8
VISIBLE
 10
286.0295930400935
 20
186.690345806478
 30
0.0
 40
0.5000000000000071
 50
0.0
 51
90.0
  0
LINE
  5
1FA
  8
VISIBLE
 10
273.0295930400935
 20
187.190345806478
 30
0.0
 11
286.0295930400935
 21
187.190345806478
 31
0.0
  0
ARC
  5
1FB
  8
VISIBLE
 10
273.0295930400935
 20
186.690345806478
 30
0.0
 40
0.5
 50
90.0
 51
180.0
  0
LINE
  5
1FC
  8
VISIBLE
 10
253.4795930400934
 20
186.690345806478
 30
0.0
 11
253.4795930400934
 21
173.690345806478
 31
0.0
  0
ARC
  5
1FD
  8
VISIBLE
 10
253.9795930400934
 20
173.690345806478
 30
0.0
 40
0.5
 50
180.0
 51
270.0
  0
LINE
  5
1FE
  8
VISIBLE
 10
253.9795930400934
 20
173.190345806478
 30
0.0
 11
266.9795930400934
 21
173.190345806478
 31
0.0
  0
ARC
  5
1FF
  8
VISIBLE
 10
266.9795930400934
 20
173.690345806478
 30
0.0
 40
0.5
 50
270.0
 51
0.0
  0
LINE
  5
200
  8
VISIBLE
 10
267.4795930400934
 20
186.690345806478
 30
0.0
 11
267.4795930400934
 21
173.690345806478
 31
0.0
  0
ARC
  5
201
  8
VISIBLE
 10
266.9795930400934
 20
186.690345806478
 30
0.0
 40
0.5
 50
0.0
 51
90.0
  0
LINE
  5
202
  8
VISIBLE
 10
253.9795930400934
 20
187.190345806478
 30
0.0
 11
266.9795930400934
 21
187.190345806478
 31
0.0
  0
ARC
  5
203
  8
VISIBLE
 10
253.9795930400934
 20
186.690345806478
 30
0.0
 40
0.5
 50
90.0
 51
180.0
  0
LINE
  5
204
  8
VISIBLE
 10
234.4295930400934
 20
186.690345806478
 30
0.0
 11
234.4295930400934
 21
173.690345806478
 31
0.0
  0
ARC
  5
205
  8
VISIBLE
 10
234.9295930400934
 20
173.690345806478
 30
0.0
 40
0.5
 50
180.0
 51
270.0
  0
LINE
  5
206
  8
VISIBLE
 10
234.9295930400934
 20
173.190345806478
 30
0.0
 11
247.9295930400934
 21
173.190345806478
 31
0.0
  0
ARC
  5
207
  8
VISIBLE
 10
247.9295930400934
 20
173.690345806478
 30
0.0
 40
0.5
 50
270.0
 51
0.0
  0
LINE
  5
208
  8
VISIBLE
 10
248.4295930400934
 20
186.690345806478
 30
0.0
 11
248.4295930400934
 21
173.690345806478
 31
0.0
  0
ARC
  5
209
  8
VISIBLE
 10
247.9295930400934
 20
186.690345806478
 30
0.0
 40
0.5
 50
0.0
 51
90.0
  0
LINE
  5
20A
  8
VISIBLE
 10
234.9295930400934
 20
187.190345806478
 30
0.0
 11
247.9295930400934
 21
187.190345806478
 31
0.0
  0
ARC
  5
20B
  8
VISIBLE
 10
234.9295930400934
 20
186.690345806478
 30
0.0
 40
0.5
 50
90.0
 51
180.0
  0
LINE
  5
20C
  8
VISIBLE
 10
215.3795930400935
 20
186.690345806478
 30
0.0
 11
215.3795930400935
 21
173.690345806478
 31
0.0
  0
ARC
  5
20D
  8
VISIBLE
 10
215.8795930400935
 20
173.690345806478
 30
0.0
 40
0.5
 50
180.0
 51
270.0
  0
LINE
  5
20E
  8
VISIBLE
 10
215.8795930400935
 20
173.190345806478
 30
0.0
 11
228.8795930400935
 21
173.190345806478
 31
0.0
  0
ARC
  5
20F
  8
VISIBLE
 10
228.8795930400935
 20
173.690345806478
 30
0.0
 40
0.5
 50
270.0
 51
0.0
  0
LINE
  5
210
  8
VISIBLE
 10
229.3795930400935
 20
186.690345806478
 30
0.0
 11
229.3795930400935
 21
173.690345806478
 31
0.0
  0
ARC
  5
211
  8
VISIBLE
 10
228.8795930400935
 20
186.690345806478
 30
0.0
 40
0.5
 50
0.0
 51
90.0
  0
LINE
  5
212
  8
VISIBLE
 10
215.8795930400935
 20
187.190345806478
 30
0.0
 11
228.8795930400935
 21
187.190345806478
 31
0.0
  0
ARC
  5
213
  8
VISIBLE
 10
215.8795930400935
 20
186.690345806478
 30
0.0
 40
0.5
 50
90.0
 51
180.0
  0
LINE
  5
214
  8
VISIBLE
 10
196.3295930400934
 20
186.690345806478
 30
0.0
 11
196.3295930400934
 21
173.690345806478
 31
0.0
  0
ARC
  5
215
  8
VISIBLE
 10
196.8295930400934
 20
173.690345806478
 30
0.0
 40
0.5
 50
180.0
 51
270.0
  0
LINE
  5
216
  8
VISIBLE
 10
196.8295930400934
 20
173.190345806478
 30
0.0
 11
209.8295930400934
 21
173.190345806478
 31
0.0
  0
ARC
  5
217
  8
VISIBLE
 10
209.8295930400934
 20
173.690345806478
 30
0.0
 40
0.5
 50
270.0
 51
0.0
  0
LINE
  5
218
  8
VISIBLE
 10
210.3295930400934
 20
186.690345806478
 30
0.0
 11
210.3295930400934
 21
173.690345806478
 31
0.0
  0
ARC
  5
219
  8
VISIBLE
 10
209.8295930400934
 20
186.690345806478
 30
0.0
 40
0.5
 50
0.0
 51
90.0
  0
LINE
  5
21A
  8
VISIBLE
 10
196.8295930400934
 20
187.190345806478
 30
0.0
 11
209.8295930400934
 21
187.190345806478
 31
0.0
  0
ARC
  5
21B
  8
VISIBLE
 10
196.8295930400934
 20
186.690345806478
 30
0.0
 40
0.5
 50
90.0
 51
180.0
  0
LINE
  5
21C
  8
VISIBLE
 10
177.2795930400935
 20
186.690345806478
 30
0.0
 11
177.2795930400935
 21
173.690345806478
 31
0.0
  0
ARC
  5
21D
  8
VISIBLE
 10
177.7795930400935
 20
173.690345806478
 30
0.0
 40
0.5
 50
180.0
 51
270.0
  0
LINE
  5
21E
  8
VISIBLE
 10
177.7795930400935
 20
173.190345806478
 30
0.0
 11
190.7795930400935
 21
173.190345806478
 31
0.0
  0
ARC
  5
21F
  8
VISIBLE
 10
190.7795930400935
 20
173.690345806478
 30
0.0
 40
0.5
 50
270.0
 51
0.0
  0
LINE
  5
220
  8
VISIBLE
 10
191.2795930400935
 20
186.690345806478
 30
0.0
 11
191.2795930400935
 21
173.690345806478
 31
0.0
  0
ARC
  5
221
  8
VISIBLE
 10
190.7795930400935
 20
186.690345806478
 30
0.0
 40
0.5
 50
0.0
 51
90.0
  0
LINE
  5
222
  8
VISIBLE
 10
177.7795930400935
 20
187.190345806478
 30
0.0
 11
190.7795930400935
 21
187.190345806478
 31
0.0
  0
ARC
  5
223
  8
VISIBLE
 10
177.7795930400935
 20
186.690345806478
 30
0.0
 40
0.5
 50
90.0
 51
180.0
  0
LINE
  5
224
  8
VISIBLE
 10
158.2295930400934
 20
186.690345806478
 30
0.0
 11
158.2295930400934
 21
173.690345806478
 31
0.0
  0
ARC
  5
225
  8
VISIBLE
 10
158.7295930400934
 20
173.690345806478
 30
0.0
 40
0.5
 50
180.0
 51
270.0
  0
LINE
  5
226
  8
VISIBLE
 10
158.7295930400934
 20
173.190345806478
 30
0.0
 11
171.7295930400934
 21
173.190345806478
 31
0.0
  0
ARC
  5
227
  8
VISIBLE
 10
171.7295930400934
 20
173.690345806478
 30
0.0
 40
0.499999999999988
 50
270.0
 51
0.0
  0
LINE
  5
228
  8
VISIBLE
 10
172.2295930400934
 20
186.690345806478
 30
0.0
 11
172.2295930400934
 21
173.690345806478
 31
0.0
  0
ARC
  5
229
  8
VISIBLE
 10
171.7295930400934
 20
186.690345806478
 30
0.0
 40
0.499999999999988
 50
0.0
 51
90.0
  0
LINE
  5
22A
  8
VISIBLE
 10
158.7295930400934
 20
187.190345806478
 30
0.0
 11
171.7295930400934
 21
187.190345806478
 31
0.0
  0
ARC
  5
22B
  8
VISIBLE
 10
158.7295930400934
 20
186.690345806478
 30
0.0
 40
0.5
 50
90.0
 51
180.0
  0
LINE
  5
22C
  8
VISIBLE
 10
139.1795930400934
 20
186.690345806478
 30
0.0
 11
139.1795930400934
 21
173.690345806478
 31
0.0
  0
ARC
  5
22D
  8
VISIBLE
 10
139.6795930400934
 20
173.690345806478
 30
0.0
 40
0.5
 50
180.0
 51
270.0
  0
LINE
  5
22E
  8
VISIBLE
 10
139.6795930400934
 20
173.190345806478
 30
0.0
 11
152.6795930400934
 21
173.190345806478
 31
0.0
  0
ARC
  5
22F
  8
VISIBLE
 10
152.6795930400934
 20
173.690345806478
 30
0.0
 40
0.5
 50
270.0
 51
0.0
  0
LINE
  5
230
  8
VISIBLE
 10
153.1795930400934
 20
186.690345806478
 30
0.0
 11
153.1795930400934
 21
173.690345806478
 31
0.0
  0
ARC
  5
231
  8
VISIBLE
 10
152.6795930400934
 20
186.690345806478
 30
0.0
 40
0.5
 50
0.0
 51
90.0
  0
LINE
  5
232
  8
VISIBLE
 10
139.6795930400934
 20
187.190345806478
 30
0.0
 11
152.6795930400934
 21
187.190345806478
 31
0.0
  0
ARC
  5
233
  8
VISIBLE
 10
139.6795930400934
 20
186.690345806478
 30
0.0
 40
0.5
 50
90.0
 51
180.0
  0
LINE
  5
234
  8
VISIBLE
 10
115.3670930400934
 20
186.690345806478
 30
0.0
 11
115.3670930400934
 21
173.690345806478
 31
0.0
  0
ARC
  5
235
  8
VISIBLE
 10
115.8670930400934
 20
173.690345806478
 30
0.0
 40
0.5
 50
180.0
 51
270.0
  0
LINE
  5
236
  8
VISIBLE
 10
115.8670930400934
 20
173.190345806478
 30
0.0
 11
128.8670930400935
 21
173.190345806478
 31
0.0
  0
ARC
  5
237
  8
VISIBLE
 10
128.8670930400935
 20
173.690345806478
 30
0.0
 40
0.5
 50
270.0
 51
0.0
  0
LINE
  5
238
  8
VISIBLE
 10
129.3670930400935
 20
186.690345806478
 30
0.0
 11
129.3670930400935
 21
173.690345806478
 31
0.0
  0
ARC
  5
239
  8
VISIBLE
 10
128.8670930400935
 20
186.690345806478
 30
0.0
 40
0.5
 50
0.0
 51
90.0
  0
LINE
  5
23A
  8
VISIBLE
 10
115.8670930400934
 20
187.190345806478
 30
0.0
 11
128.8670930400935
 21
187.190345806478
 31
0.0
  0
ARC
  5
23B
  8
VISIBLE
 10
115.8670930400934
 20
186.690345806478
 30
0.0
 40
0.5
 50
90.0
 51
180.0
  0
LINE
  5
23C
  8
VISIBLE
 10
396.3545930400934
 20
205.740345806478
 30
0.0
 11
396.3545930400934
 21
192.740345806478
 31
0.0
  0
ARC
  5
23D
  8
VISIBLE
 10
396.8545930400934
 20
192.740345806478
 30
0.0
 40
0.5
 50
180.0
 51
270.0
  0
LINE
  5
23E
  8
VISIBLE
 10
396.8545930400934
 20
192.240345806478
 30
0.0
 11
409.8545930400934
 21
192.240345806478
 31
0.0
  0
ARC
  5
23F
  8
VISIBLE
 10
409.8545930400934
 20
192.740345806478
 30
0.0
 40
0.5
 50
270.0
 51
0.0
  0
LINE
  5
240
  8
VISIBLE
 10
410.3545930400934
 20
205.740345806478
 30
0.0
 11
410.3545930400934
 21
192.740345806478
 31
0.0
  0
ARC
  5
241
  8
VISIBLE
 10
409.8545930400934
 20
205.740345806478
 30
0.0
 40
0.5
 50
0.0
 51
90.0
  0
LINE
  5
242
  8
VISIBLE
 10
396.8545930400934
 20
206.240345806478
 30
0.0
 11
409.8545930400934
 21
206.240345806478
 31
0.0
  0
ARC
  5
243
  8
VISIBLE
 10
396.8545930400934
 20
205.740345806478
 30
0.0
 40
0.5
 50
90.0
 51
180.0
  0
ARC
  5
244
  8
VISIBLE
 10
382.7175930400934
 20
191.740345806478
 30
0.0
 40
0.5
 50
0.0
 51
90.0
  0
LINE
  5
245
  8
VISIBLE
 10
383.2175930400934
 20
191.740345806478
 30
0.0
 11
383.2175930400934
 21
190.740345806478
 31
0.0
  0
ARC
  5
246
  8
VISIBLE
 10
383.7175930400934
 20
190.740345806478
 30
0.0
 40
0.5
 50
180.0
 51
270.0
  0
LINE
  5
247
  8
VISIBLE
 10
383.7175930400934
 20
190.240345806478
 30
0.0
 11
389.7175930400934
 21
190.240345806478
 31
0.0
  0
ARC
  5
248
  8
VISIBLE
 10
389.7175930400934
 20
190.740345806478
 30
0.0
 40
0.5
 50
270.0
 51
0.0
  0
LINE
  5
249
  8
VISIBLE
 10
390.2175930400934
 20
205.740345806478
 30
0.0
 11
390.2175930400934
 21
190.740345806478
 31
0.0
  0
ARC
  5
24A
  8
VISIBLE
 10
389.7175930400934
 20
205.740345806478
 30
0.0
 40
0.5
 50
0.0
 51
90.0
  0
LINE
  5
24B
  8
VISIBLE
 10
359.8415930400935
 20
206.240345806478
 30
0.0
 11
389.7175930400934
 21
206.240345806478
 31
0.0
  0
ARC
  5
24C
  8
VISIBLE
 10
359.8415930400935
 20
205.740345806478
 30
0.0
 40
0.5
 50
90.0
 51
180.0
  0
LINE
  5
24D
  8
VISIBLE
 10
359.3415930400935
 20
205.740345806478
 30
0.0
 11
359.3415930400935
 21
190.740345806478
 31
0.0
  0
ARC
  5
24E
  8
VISIBLE
 10
359.8415930400935
 20
190.740345806478
 30
0.0
 40
0.5
 50
180.0
 51
270.0
  0
LINE
  5
24F
  8
VISIBLE
 10
359.8415930400935
 20
190.240345806478
 30
0.0
 11
365.8415930400935
 21
190.240345806478
 31
0.0
  0
ARC
  5
250
  8
VISIBLE
 10
365.8415930400935
 20
190.740345806478
 30
0.0
 40
0.5
 50
270.0
 51
0.0
  0
LINE
  5
251
  8
VISIBLE
 10
366.3415930400935
 20
191.740345806478
 30
0.0
 11
366.3415930400935
 21
190.740345806478
 31
0.0
  0
ARC
  5
252
  8
VISIBLE
 10
366.8415930400935
 20
191.740345806478
 30
0.0
 40
0.5
 50
90.0
 51
180.0
  0
LINE
  5
253
  8
VISIBLE
 10
366.8415930400935
 20
192.240345806478
 30
0.0
 11
382.7175930400934
 21
192.240345806478
 31
0.0
  0
LINE
  5
254
  8
VISIBLE
 10
339.2045930400935
 20
205.740345806478
 30
0.0
 11
339.2045930400935
 21
192.740345806478
 31
0.0
  0
ARC
  5
255
  8
VISIBLE
 10
339.7045930400935
 20
192.740345806478
 30
0.0
 40
0.5
 50
180.0
 51
270.0
  0
LINE
  5
256
  8
VISIBLE
 10
339.7045930400935
 20
192.240345806478
 30
0.0
 11
352.7045930400934
 21
192.240345806478
 31
0.0
  0
ARC
  5
257
  8
VISIBLE
 10
352.7045930400934
 20
192.740345806478
 30
0.0
 40
0.5
 50
270.0
 51
0.0
  0
LINE
  5
258
  8
VISIBLE
 10
353.2045930400935
 20
205.740345806478
 30
0.0
 11
353.2045930400935
 21
192.740345806478
 31
0.0
  0
ARC
  5
259
  8
VISIBLE
 10
352.7045930400934
 20
205.740345806478
 30
0.0
 40
0.5
 50
0.0
 51
90.0
  0
LINE
  5
25A
  8
VISIBLE
 10
339.7045930400935
 20
206.240345806478
 30
0.0
 11
352.7045930400934
 21
206.240345806478
 31
0.0
  0
ARC
  5
25B
  8
VISIBLE
 10
339.7045930400935
 20
205.740345806478
 30
0.0
 40
0.5
 50
90.0
 51
180.0
  0
LINE
  5
25C
  8
VISIBLE
 10
320.1545930400935
 20
205.740345806478
 30
0.0
 11
320.1545930400935
 21
192.740345806478
 31
0.0
  0
ARC
  5
25D
  8
VISIBLE
 10
320.6545930400935
 20
192.740345806478
 30
0.0
 40
0.5
 50
180.0
 51
270.0
  0
LINE
  5
25E
  8
VISIBLE
 10
320.6545930400935
 20
192.240345806478
 30
0.0
 11
333.6545930400935
 21
192.240345806478
 31
0.0
  0
ARC
  5
25F
  8
VISIBLE
 10
333.6545930400935
 20
192.740345806478
 30
0.0
 40
0.5
 50
270.0
 51
0.0
  0
LINE
  5
260
  8
VISIBLE
 10
334.1545930400935
 20
205.740345806478
 30
0.0
 11
334.1545930400935
 21
192.740345806478
 31
0.0
  0
ARC
  5
261
  8
VISIBLE
 10
333.6545930400935
 20
205.740345806478
 30
0.0
 40
0.5
 50
0.0
 51
90.0
  0
LINE
  5
262
  8
VISIBLE
 10
320.6545930400935
 20
206.240345806478
 30
0.0
 11
333.6545930400935
 21
206.240345806478
 31
0.0
  0
ARC
  5
263
  8
VISIBLE
 10
320.6545930400935
 20
205.740345806478
 30
0.0
 40
0.5
 50
90.0
 51
180.0
  0
LINE
  5
264
  8
VISIBLE
 10
301.1045930400934
 20
205.740345806478
 30
0.0
 11
301.1045930400934
 21
192.740345806478
 31
0.0
  0
ARC
  5
265
  8
VISIBLE
 10
301.6045930400934
 20
192.740345806478
 30
0.0
 40
0.4999999999999941
 50
180.0
 51
270.0
  0
LINE
  5
266
  8
VISIBLE
 10
301.6045930400934
 20
192.240345806478
 30
0.0
 11
314.6045930400934
 21
192.240345806478
 31
0.0
  0
ARC
  5
267
  8
VISIBLE
 10
314.6045930400934
 20
192.740345806478
 30
0.0
 40
0.5
 50
270.0
 51
0.0
  0
LINE
  5
268
  8
VISIBLE
 10
315.1045930400934
 20
205.740345806478
 30
0.0
 11
315.1045930400934
 21
192.740345806478
 31
0.0
  0
ARC
  5
269
  8
VISIBLE
 10
314.6045930400934
 20
205.740345806478
 30
0.0
 40
0.5
 50
0.0
 51
90.0
  0
LINE
  5
26A
  8
VISIBLE
 10
301.6045930400934
 20
206.240345806478
 30
0.0
 11
314.6045930400934
 21
206.240345806478
 31
0.0
  0
ARC
  5
26B
  8
VISIBLE
 10
301.6045930400934
 20
205.740345806478
 30
0.0
 40
0.4999999999999941
 50
90.0
 51
180.0
  0
LINE
  5
26C
  8
VISIBLE
 10
282.0545930400934
 20
205.740345806478
 30
0.0
 11
282.0545930400934
 21
192.740345806478
 31
0.0
  0
ARC
  5
26D
  8
VISIBLE
 10
282.5545930400934
 20
192.740345806478
 30
0.0
 40
0.5
 50
180.0
 51
270.0
  0
LINE
  5
26E
  8
VISIBLE
 10
282.5545930400934
 20
192.240345806478
 30
0.0
 11
295.5545930400934
 21
192.240345806478
 31
0.0
  0
ARC
  5
26F
  8
VISIBLE
 10
295.5545930400934
 20
192.740345806478
 30
0.0
 40
0.5
 50
270.0
 51
0.0
  0
LINE
  5
270
  8
VISIBLE
 10
296.0545930400934
 20
205.740345806478
 30
0.0
 11
296.0545930400934
 21
192.740345806478
 31
0.0
  0
ARC
  5
271
  8
VISIBLE
 10
295.5545930400934
 20
205.740345806478
 30
0.0
 40
0.5
 50
0.0
 51
90.0
  0
LINE
  5
272
  8
VISIBLE
 10
282.5545930400934
 20
206.240345806478
 30
0.0
 11
295.5545930400934
 21
206.240345806478
 31
0.0
  0
ARC
  5
273
  8
VISIBLE
 10
282.5545930400934
 20
205.740345806478
 30
0.0
 40
0.5
 50
90.0
 51
180.0
  0
LINE
  5
274
  8
VISIBLE
 10
263.0045930400935
 20
205.740345806478
 30
0.0
 11
263.0045930400935
 21
192.740345806478
 31
0.0
  0
ARC
  5
275
  8
VISIBLE
 10
263.5045930400935
 20
192.740345806478
 30
0.0
 40
0.5
 50
180.0
 51
270.0
  0
LINE
  5
276
  8
VISIBLE
 10
263.5045930400935
 20
192.240345806478
 30
0.0
 11
276.5045930400935
 21
192.240345806478
 31
0.0
  0
ARC
  5
277
  8
VISIBLE
 10
276.5045930400935
 20
192.740345806478
 30
0.0
 40
0.5
 50
270.0
 51
0.0
  0
LINE
  5
278
  8
VISIBLE
 10
277.0045930400935
 20
205.740345806478
 30
0.0
 11
277.0045930400935
 21
192.740345806478
 31
0.0
  0
ARC
  5
279
  8
VISIBLE
 10
276.5045930400935
 20
205.740345806478
 30
0.0
 40
0.5
 50
0.0
 51
90.0
  0
LINE
  5
27A
  8
VISIBLE
 10
263.5045930400935
 20
206.240345806478
 30
0.0
 11
276.5045930400935
 21
206.240345806478
 31
0.0
  0
ARC
  5
27B
  8
VISIBLE
 10
263.5045930400935
 20
205.740345806478
 30
0.0
 40
0.5
 50
90.0
 51
180.0
  0
LINE
  5
27C
  8
VISIBLE
 10
243.9545930400934
 20
205.740345806478
 30
0.0
 11
243.9545930400934
 21
192.740345806478
 31
0.0
  0
ARC
  5
27D
  8
VISIBLE
 10
244.4545930400934
 20
192.740345806478
 30
0.0
 40
0.5
 50
180.0
 51
270.0
  0
LINE
  5
27E
  8
VISIBLE
 10
244.4545930400934
 20
192.240345806478
 30
0.0
 11
257.4545930400934
 21
192.240345806478
 31
0.0
  0
ARC
  5
27F
  8
VISIBLE
 10
257.4545930400934
 20
192.740345806478
 30
0.0
 40
0.5
 50
270.0
 51
0.0
  0
LINE
  5
280
  8
VISIBLE
 10
257.9545930400934
 20
205.740345806478
 30
0.0
 11
257.9545930400934
 21
192.740345806478
 31
0.0
  0
ARC
  5
281
  8
VISIBLE
 10
257.4545930400934
 20
205.740345806478
 30
0.0
 40
0.5
 50
0.0
 51
90.0
  0
LINE
  5
282
  8
VISIBLE
 10
244.4545930400934
 20
206.240345806478
 30
0.0
 11
257.4545930400934
 21
206.240345806478
 31
0.0
  0
ARC
  5
283
  8
VISIBLE
 10
244.4545930400934
 20
205.740345806478
 30
0.0
 40
0.5
 50
90.0
 51
180.0
  0
LINE
  5
284
  8
VISIBLE
 10
224.9045930400935
 20
205.740345806478
 30
0.0
 11
224.9045930400935
 21
192.740345806478
 31
0.0
  0
ARC
  5
285
  8
VISIBLE
 10
225.4045930400935
 20
192.740345806478
 30
0.0
 40
0.5
 50
180.0
 51
270.0
  0
LINE
  5
286
  8
VISIBLE
 10
225.4045930400935
 20
192.240345806478
 30
0.0
 11
238.4045930400935
 21
192.240345806478
 31
0.0
  0
ARC
  5
287
  8
VISIBLE
 10
238.4045930400935
 20
192.740345806478
 30
0.0
 40
0.5
 50
270.0
 51
0.0
  0
LINE
  5
288
  8
VISIBLE
 10
238.9045930400935
 20
205.740345806478
 30
0.0
 11
238.9045930400935
 21
192.740345806478
 31
0.0
  0
ARC
  5
289
  8
VISIBLE
 10
238.4045930400935
 20
205.740345806478
 30
0.0
 40
0.5
 50
0.0
 51
90.0
  0
LINE
  5
28A
  8
VISIBLE
 10
225.4045930400935
 20
206.240345806478
 30
0.0
 11
238.4045930400935
 21
206.240345806478
 31
0.0
  0
ARC
  5
28B
  8
VISIBLE
 10
225.4045930400935
 20
205.740345806478
 30
0.0
 40
0.5
 50
90.0
 51
180.0
  0
LINE
  5
28C
  8
VISIBLE
 10
205.8545930400934
 20
205.740345806478
 30
0.0
 11
205.8545930400934
 21
192.740345806478
 31
0.0
  0
ARC
  5
28D
  8
VISIBLE
 10
206.3545930400934
 20
192.740345806478
 30
0.0
 40
0.5
 50
180.0
 51
270.0
  0
LINE
  5
28E
  8
VISIBLE
 10
206.3545930400934
 20
192.240345806478
 30
0.0
 11
219.3545930400934
 21
192.240345806478
 31
0.0
  0
ARC
  5
28F
  8
VISIBLE
 10
219.3545930400934
 20
192.740345806478
 30
0.0
 40
0.4999999999999941
 50
270.0
 51
0.0
  0
LINE
  5
290
  8
VISIBLE
 10
219.8545930400934
 20
205.740345806478
 30
0.0
 11
219.8545930400934
 21
192.740345806478
 31
0.0
  0
ARC
  5
291
  8
VISIBLE
 10
219.3545930400934
 20
205.740345806478
 30
0.0
 40
0.4999999999999941
 50
0.0
 51
90.0
  0
LINE
  5
292
  8
VISIBLE
 10
206.3545930400934
 20
206.240345806478
 30
0.0
 11
219.3545930400934
 21
206.240345806478
 31
0.0
  0
ARC
  5
293
  8
VISIBLE
 10
206.3545930400934
 20
205.740345806478
 30
0.0
 40
0.5
 50
90.0
 51
180.0
  0
LINE
  5
294
  8
VISIBLE
 10
186.8045930400934
 20
205.740345806478
 30
0.0
 11
186.8045930400934
 21
192.740345806478
 31
0.0
  0
ARC
  5
295
  8
VISIBLE
 10
187.3045930400934
 20
192.740345806478
 30
0.0
 40
0.5
 50
180.0
 51
270.0
  0
LINE
  5
296
  8
VISIBLE
 10
187.3045930400934
 20
192.240345806478
 30
0.0
 11
200.3045930400934
 21
192.240345806478
 31
0.0
  0
ARC
  5
297
  8
VISIBLE
 10
200.3045930400934
 20
192.740345806478
 30
0.0
 40
0.4999999999999941
 50
270.0
 51
0.0
  0
LINE
  5
298
  8
VISIBLE
 10
200.8045930400934
 20
205.740345806478
 30
0.0
 11
200.8045930400934
 21
192.740345806478
 31
0.0
  0
ARC
  5
299
  8
VISIBLE
 10
200.3045930400934
 20
205.740345806478
 30
0.0
 40
0.4999999999999941
 50
0.0
 51
90.0
  0
LINE
  5
29A
  8
VISIBLE
 10
187.3045930400934
 20
206.240345806478
 30
0.0
 11
200.3045930400934
 21
206.240345806478
 31
0.0
  0
ARC
  5
29B
  8
VISIBLE
 10
187.3045930400934
 20
205.740345806478
 30
0.0
 40
0.5
 50
90.0
 51
180.0
  0
LINE
  5
29C
  8
VISIBLE
 10
167.7545930400934
 20
205.740345806478
 30
0.0
 11
167.7545930400934
 21
192.740345806478
 31
0.0
  0
ARC
  5
29D
  8
VISIBLE
 10
168.2545930400935
 20
192.740345806478
 30
0.0
 40
0.5
 50
180.0
 51
270.0
  0
LINE
  5
29E
  8
VISIBLE
 10
168.2545930400935
 20
192.240345806478
 30
0.0
 11
181.2545930400934
 21
192.240345806478
 31
0.0
  0
ARC
  5
29F
  8
VISIBLE
 10
181.2545930400934
 20
192.740345806478
 30
0.0
 40
0.49999999999999
 50
270.0
 51
0.0
  0
LINE
  5
2A0
  8
VISIBLE
 10
181.7545930400934
 20
205.740345806478
 30
0.0
 11
181.7545930400934
 21
192.740345806478
 31
0.0
  0
ARC
  5
2A1
  8
VISIBLE
 10
181.2545930400934
 20
205.740345806478
 30
0.0
 40
0.49999999999999
 50
0.0
 51
90.0
  0
LINE
  5
2A2
  8
VISIBLE
 10
168.2545930400935
 20
206.240345806478
 30
0.0
 11
181.2545930400934
 21
206.240345806478
 31
0.0
  0
ARC
  5
2A3
  8
VISIBLE
 10
168.2545930400935
 20
205.740345806478
 30
0.0
 40
0.5
 50
90.0
 51
180.0
  0
LINE
  5
2A4
  8
VISIBLE
 10
148.7045930400934
 20
205.740345806478
 30
0.0
 11
148.7045930400934
 21
192.740345806478
 31
0.0
  0
ARC
  5
2A5
  8
VISIBLE
 10
149.2045930400934
 20
192.740345806478
 30
0.0
 40
0.500000000000011
 50
180.0
 51
270.0
  0
LINE
  5
2A6
  8
VISIBLE
 10
149.2045930400934
 20
192.240345806478
 30
0.0
 11
162.2045930400934
 21
192.240345806478
 31
0.0
  0
ARC
  5
2A7
  8
VISIBLE
 10
162.2045930400934
 20
192.740345806478
 30
0.0
 40
0.5
 50
270.0
 51
0.0
  0
LINE
  5
2A8
  8
VISIBLE
 10
162.7045930400934
 20
205.740345806478
 30
0.0
 11
162.7045930400934
 21
192.740345806478
 31
0.0
  0
ARC
  5
2A9
  8
VISIBLE
 10
162.2045930400934
 20
205.740345806478
 30
0.0
 40
0.5
 50
0.0
 51
90.0
  0
LINE
  5
2AA
  8
VISIBLE
 10
149.2045930400934
 20
206.240345806478
 30
0.0
 11
162.2045930400934
 21
206.240345806478
 31
0.0
  0
ARC
  5
2AB
  8
VISIBLE
 10
149.2045930400934
 20
205.740345806478
 30
0.0
 40
0.500000000000011
 50
90.0
 51
180.0
  0
LINE
  5
2AC
  8
VISIBLE
 10
129.6545930400935
 20
205.740345806478
 30
0.0
 11
129.6545930400935
 21
192.740345806478
 31
0.0
  0
ARC
  5
2AD
  8
VISIBLE
 10
130.1545930400935
 20
192.740345806478
 30
0.0
 40
0.5
 50
180.0
 51
270.0
  0
LINE
  5
2AE
  8
VISIBLE
 10
130.1545930400935
 20
192.240345806478
 30
0.0
 11
143.1545930400935
 21
192.240345806478
 31
0.0
  0
ARC
  5
2AF
  8
VISIBLE
 10
143.1545930400935
 20
192.740345806478
 30
0.0
 40
0.5
 50
270.0
 51
0.0
  0
LINE
  5
2B0
  8
VISIBLE
 10
143.6545930400935
 20
205.740345806478
 30
0.0
 11
143.6545930400935
 21
192.740345806478
 31
0.0
  0
ARC
  5
2B1
  8
VISIBLE
 10
143.1545930400935
 20
205.740345806478
 30
0.0
 40
0.5
 50
0.0
 51
90.0
  0
LINE
  5
2B2
  8
VISIBLE
 10
130.1545930400935
 20
206.240345806478
 30
0.0
 11
143.1545930400935
 21
206.240345806478
 31
0.0
  0
ARC
  5
2B3
  8
VISIBLE
 10
130.1545930400935
 20
205.740345806478
 30
0.0
 40
0.5
 50
90.0
 51
180.0
  0
LINE
  5
2B4
  8
VISIBLE
 10
110.6045930400934
 20
205.740345806478
 30
0.0
 11
110.6045930400934
 21
192.740345806478
 31
0.0
  0
ARC
  5
2B5
  8
VISIBLE
 10
111.1045930400934
 20
192.740345806478
 30
0.0
 40
0.5
 50
180.0
 51
270.0
  0
LINE
  5
2B6
  8
VISIBLE
 10
111.1045930400934
 20
192.240345806478
 30
0.0
 11
124.1045930400934
 21
192.240345806478
 31
0.0
  0
ARC
  5
2B7
  8
VISIBLE
 10
124.1045930400934
 20
192.740345806478
 30
0.0
 40
0.5
 50
270.0
 51
0.0
  0
LINE
  5
2B8
  8
VISIBLE
 10
124.6045930400934
 20
205.740345806478
 30
0.0
 11
124.6045930400934
 21
192.740345806478
 31
0.0
  0
ARC
  5
2B9
  8
VISIBLE
 10
124.1045930400934
 20
205.740345806478
 30
0.0
 40
0.5
 50
0.0
 51
90.0
  0
LINE
  5
2BA
  8
VISIBLE
 10
111.1045930400934
 20
206.240345806478
 30
0.0
 11
124.1045930400934
 21
206.240345806478
 31
0.0
  0
ARC
  5
2BB
  8
VISIBLE
 10
111.1045930400934
 20
205.740345806478
 30
0.0
 40
0.5
 50
90.0
 51
180.0
  0
LINE
  5
2BC
  8
VISIBLE
 10
357.9795930400934
 20
113.515345806478
 30
0.0
 11
410.6295930400935
 21
113.515345806478
 31
0.0
  0
ENDSEC
  0
EOF
