  0
SECTION
  2
HEADER
  9
$ACADVER
  1
AC1014
  9
$HANDSEED
  5
FFFF
  9
$MEASUREMENT
 70
     1
  0
ENDSEC
  0
SECTION
  2
TABLES
  0
TABLE
  2
VPORT
  5
8
330
0
100
AcDbSymbolTable
 70
     4
  0
VPORT
  5
2E
330
8
100
AcDbSymbolTableRecord
100
AcDbViewportTableRecord
  2
*ACTIVE
 70
     0
 10
0.0
 20
0.0
 11
1.0
 21
1.0
 12
210.0
 22
148.5
 13
0.0
 23
0.0
 14
10.0
 24
10.0
 15
10.0
 25
10.0
 16
0.0
 26
0.0
 36
1.0
 17
0.0
 27
0.0
 37
0.0
 40
341.0
 41
1.24
 42
50.0
 43
0.0
 44
0.0
 50
0.0
 51
0.0
 71
     0
 72
   100
 73
     1
 74
     3
 75
     0
 76
     0
 77
     0
 78
     0
  0
ENDTAB
  0
TABLE
  2
LTYPE
  5
5
330
0
100
AcDbSymbolTable
 70
     1
  0
LTYPE
  5
14
330
5
100
AcDbSymbolTableRecord
100
AcDbLinetypeTableRecord
  2
BYBLOCK
 70
     0
  3

 72
    65
 73
     0
 40
0.0
  0
LTYPE
  5
15
330
5
100
AcDbSymbolTableRecord
100
AcDbLinetypeTableRecord
  2
BYLAYER
 70
     0
  3

 72
    65
 73
     0
 40
0.0
  0
LTYPE
  5
16
330
5
100
AcDbSymbolTableRecord
100
AcDbLinetypeTableRecord
  2
CONTINUOUS
 70
     0
  3
Solid line
 72
    65
 73
     0
 40
0.0
  0
ENDTAB
  0
TABLE
  2
LAYER
  5
2
100
AcDbSymbolTable
 70
6
  0
LAYER
  5
50
100
AcDbSymbolTableRecord
100
AcDbLayerTableRecord
  2
0
 70
0
  6
CONTINUOUS
  0
LAYER
  5
51
100
AcDbSymbolTableRecord
100
AcDbLayerTableRecord
  2
BORDER_FRAME
 70
0
  6
CONTINUOUS
  0
LAYER
  5
52
100
AcDbSymbolTableRecord
100
AcDbLayerTableRecord
  2
BORDER_ZONES
 70
0
  6
CONTINUOUS
  0
LAYER
  5
53
100
AcDbSymbolTableRecord
100
AcDbLayerTableRecord
  2
TITLE_BLOCK
 70
0
  6
CONTINUOUS
  0
LAYER
  5
54
100
AcDbSymbolTableRecord
100
AcDbLayerTableRecord
  2
ANNOTATION_TEXT
 70
0
  6
CONTINUOUS
  0
LAYER
  5
55
100
AcDbSymbolTableRecord
100
AcDbLayerTableRecord
  2
VISIBLE
 70
0
  6
CONTINUOUS
  0
ENDTAB
  0
TABLE
  2
STYLE
  5
3
330
0
100
AcDbSymbolTable
 70
     1
  0
STYLE
  5
11
330
3
100
AcDbSymbolTableRecord
100
AcDbTextStyleTableRecord
  2
STANDARD
 70
     0
 40
0.0
 41
1.0
 50
0.0
 71
     0
 42
2.5
  3
txt
  4

  0
ENDTAB
  0
TABLE
  2
VIEW
  5
6
330
0
100
AcDbSymbolTable
 70
     0
  0
ENDTAB
  0
TABLE
  2
UCS
  5
7
330
0
100
AcDbSymbolTable
 70
     0
  0
ENDTAB
  0
TABLE
  2
APPID
  5
9
330
0
100
AcDbSymbolTable
 70
     2
  0
APPID
  5
12
330
9
100
AcDbSymbolTableRecord
100
AcDbRegAppTableRecord
  2
ACAD
 70
     0
  0
ENDTAB
  0
TABLE
  2
DIMSTYLE
  5
A
330
0
100
AcDbSymbolTable
 70
     1
  0
DIMSTYLE
105
27
330
A
100
AcDbSymbolTableRecord
100
AcDbDimStyleTableRecord
  2
ISO-25
 70
     0
  3

  4

  5

  6

  7

 40
1.0
 41
2.5
 42
0.625
 43
3.75
 44
1.25
 45
0.0
 46
0.0
 47
0.0
 48
0.0
140
2.5
141
2.5
142
0.0
143
0.03937007874016
144
1.0
145
0.0
146
1.0
147
0.625
 71
     0
 72
     0
 73
     0
 74
     0
 75
     0
 76
     0
 77
     1
 78
     8
170
     0
171
     3
172
     1
173
     0
174
     0
175
     0
176
     0
177
     0
178
     0
270
     2
271
     2
272
     2
273
     2
274
     3
340
11
275
     0
280
     0
281
     0
282
     0
283
     0
284
     8
285
     0
286
     0
287
     3
288
     0
  0
ENDTAB
  0
TABLE
  2
BLOCK_RECORD
  5
1
330
0
100
AcDbSymbolTable
 70
     1
  0
BLOCK_RECORD
  5
1F
330
1
100
AcDbSymbolTableRecord
100
AcDbBlockTableRecord
  2
*MODEL_SPACE
  0
BLOCK_RECORD
  5
1B
330
1
100
AcDbSymbolTableRecord
100
AcDbBlockTableRecord
  2
*PAPER_SPACE
  0
ENDTAB
  0
ENDSEC
  0
SECTION
  2
BLOCKS
  0
BLOCK
  5
20
330
1F
100
AcDbEntity
  8
0
100
AcDbBlockBegin
  2
*MODEL_SPACE
 70
     0
 10
0.0
 20
0.0
 30
0.0
  3
*MODEL_SPACE
  1

  0
ENDBLK
  5
21
330
1F
100
AcDbEntity
  8
0
100
AcDbBlockEnd
  0
BLOCK
  5
1C
330
1B
100
AcDbEntity
 67
     1
  8
0
100
AcDbBlockBegin
  2
*PAPER_SPACE
  1

  0
ENDBLK
  5
1D
330
1B
100
AcDbEntity
 67
     1
  8
0
100
AcDbBlockEnd
  0
ENDSEC
  0
SECTION
  2
ENTITIES
  0
SPLINE
  5
100
100
AcDbEntity
  8
VISIBLE
 62
7
100
AcDbSpline
 70
8
 71
3
 72
8
 73
4
 74
0
 40
0
 40
0
 40
0
 40
0
 40
1
 40
1
 40
1
 40
1
 10
368.993794
 20
210.707299
 30
0.0
 10
368.993794
 20
211.237732
 30
0.0
 10
368.783080
 20
211.746440
 30
0.0
 10
368.408007
 20
212.121513
 30
0.0
  0
SPLINE
  5
101
100
AcDbEntity
  8
VISIBLE
 62
7
100
AcDbSpline
 70
8
 71
3
 72
8
 73
4
 74
0
 40
0
 40
0
 40
0
 40
0
 40
1
 40
1
 40
1
 40
1
 10
368.408007
 20
212.121513
 30
0.0
 10
368.032934
 20
212.496586
 30
0.0
 10
367.524227
 20
212.707300
 30
0.0
 10
366.993794
 20
212.707300
 30
0.0
  0
SPLINE
  5
102
100
AcDbEntity
  8
VISIBLE
 62
7
100
AcDbSpline
 70
8
 71
3
 72
8
 73
4
 74
0
 40
0
 40
0
 40
0
 40
0
 40
1
 40
1
 40
1
 40
1
 10
366.993794
 20
117.457300
 30
0.0
 10
367.524227
 20
117.457300
 30
0.0
 10
368.032934
 20
117.668013
 30
0.0
 10
368.408007
 20
118.043086
 30
0.0
  0
SPLINE
  5
103
100
AcDbEntity
  8
VISIBLE
 62
7
100
AcDbSpline
 70
8
 71
3
 72
8
 73
4
 74
0
 40
0
 40
0
 40
0
 40
0
 40
1
 40
1
 40
1
 40
1
 10
368.408007
 20
118.043086
 30
0.0
 10
368.783080
 20
118.418159
 30
0.0
 10
368.993794
 20
118.926867
 30
0.0
 10
368.993794
 20
119.457300
 30
0.0
  0
SPLINE
  5
104
100
AcDbEntity
  8
VISIBLE
 62
7
100
AcDbSpline
 70
8
 71
3
 72
8
 73
4
 74
0
 40
0
 40
0
 40
0
 40
0
 40
1
 40
1
 40
1
 40
1
 10
64.193794
 20
119.457300
 30
0.0
 10
64.193794
 20
118.926867
 30
0.0
 10
64.404507
 20
118.418159
 30
0.0
 10
64.779580
 20
118.043086
 30
0.0
  0
SPLINE
  5
105
100
AcDbEntity
  8
VISIBLE
 62
7
100
AcDbSpline
 70
8
 71
3
 72
8
 73
4
 74
0
 40
0
 40
0
 40
0
 40
0
 40
1
 40
1
 40
1
 40
1
 10
64.779580
 20
118.043086
 30
0.0
 10
65.154653
 20
117.668013
 30
0.0
 10
65.663361
 20
117.457300
 30
0.0
 10
66.193794
 20
117.457300
 30
0.0
  0
SPLINE
  5
106
100
AcDbEntity
  8
VISIBLE
 62
7
100
AcDbSpline
 70
8
 71
3
 72
8
 73
4
 74
0
 40
0
 40
0
 40
0
 40
0
 40
1
 40
1
 40
1
 40
1
 10
66.193794
 20
212.707300
 30
0.0
 10
65.663361
 20
212.707300
 30
0.0
 10
65.154653
 20
212.496586
 30
0.0
 10
64.779580
 20
212.121513
 30
0.0
  0
SPLINE
  5
107
100
AcDbEntity
  8
VISIBLE
 62
7
100
AcDbSpline
 70
8
 71
3
 72
8
 73
4
 74
0
 40
0
 40
0
 40
0
 40
0
 40
1
 40
1
 40
1
 40
1
 10
64.779580
 20
212.121513
 30
0.0
 10
64.404507
 20
211.746440
 30
0.0
 10
64.193794
 20
211.237732
 30
0.0
 10
64.193794
 20
210.707299
 30
0.0
  0
SPLINE
  5
108
100
AcDbEntity
  8
VISIBLE
 62
7
100
AcDbSpline
 70
8
 71
3
 72
8
 73
4
 74
0
 40
0
 40
0
 40
0
 40
0
 40
1
 40
1
 40
1
 40
1
 10
94.063043
 20
138.532300
 30
0.0
 10
94.063043
 20
138.664908
 30
0.0
 10
94.010365
 20
138.792085
 30
0.0
 10
93.916597
 20
138.885853
 30
0.0
  0
SPLINE
  5
109
100
AcDbEntity
  8
VISIBLE
 62
7
100
AcDbSpline
 70
8
 71
3
 72
8
 73
4
 74
0
 40
0
 40
0
 40
0
 40
0
 40
1
 40
1
 40
1
 40
1
 10
93.916597
 20
138.885853
 30
0.0
 10
93.822829
 20
138.979621
 30
0.0
 10
93.695652
 20
139.032300
 30
0.0
 10
93.563043
 20
139.032300
 30
0.0
  0
SPLINE
  5
10a
100
AcDbEntity
  8
VISIBLE
 62
7
100
AcDbSpline
 70
8
 71
3
 72
8
 73
4
 74
0
 40
0
 40
0
 40
0
 40
0
 40
1
 40
1
 40
1
 40
1
 10
77.687044
 20
139.032300
 30
0.0
 10
77.554435
 20
139.032300
 30
0.0
 10
77.427258
 20
138.979621
 30
0.0
 10
77.333490
 20
138.885853
 30
0.0
  0
SPLINE
  5
10b
100
AcDbEntity
  8
VISIBLE
 62
7
100
AcDbSpline
 70
8
 71
3
 72
8
 73
4
 74
0
 40
0
 40
0
 40
0
 40
0
 40
1
 40
1
 40
1
 40
1
 10
77.333490
 20
138.885853
 30
0.0
 10
77.239722
 20
138.792085
 30
0.0
 10
77.187043
 20
138.664908
 30
0.0
 10
77.187043
 20
138.532300
 30
0.0
  0
SPLINE
  5
10c
100
AcDbEntity
  8
VISIBLE
 62
7
100
AcDbSpline
 70
8
 71
3
 72
8
 73
4
 74
0
 40
0
 40
0
 40
0
 40
0
 40
1
 40
1
 40
1
 40
1
 10
336.950543
 20
157.582300
 30
0.0
 10
336.950543
 20
157.858442
 30
0.0
 10
336.726686
 20
158.082300
 30
0.0
 10
336.450543
 20
158.082300
 30
0.0
  0
SPLINE
  5
10d
100
AcDbEntity
  8
VISIBLE
 62
7
100
AcDbSpline
 70
8
 71
3
 72
8
 73
4
 74
0
 40
0
 40
0
 40
0
 40
0
 40
1
 40
1
 40
1
 40
1
 10
320.574544
 20
158.082300
 30
0.0
 10
320.441935
 20
158.082300
 30
0.0
 10
320.314758
 20
158.029621
 30
0.0
 10
320.220990
 20
157.935853
 30
0.0
  0
SPLINE
  5
10e
100
AcDbEntity
  8
VISIBLE
 62
7
100
AcDbSpline
 70
8
 71
3
 72
8
 73
4
 74
0
 40
0
 40
0
 40
0
 40
0
 40
1
 40
1
 40
1
 40
1
 10
320.220990
 20
157.935853
 30
0.0
 10
320.127222
 20
157.842085
 30
0.0
 10
320.074543
 20
157.714908
 30
0.0
 10
320.074543
 20
157.582300
 30
0.0
  0
SPLINE
  5
10f
100
AcDbEntity
  8
VISIBLE
 62
7
100
AcDbSpline
 70
8
 71
3
 72
8
 73
4
 74
0
 40
0
 40
0
 40
0
 40
0
 40
1
 40
1
 40
1
 40
1
 10
339.331793
 20
195.682300
 30
0.0
 10
339.331793
 20
195.814908
 30
0.0
 10
339.279115
 20
195.942085
 30
0.0
 10
339.185347
 20
196.035853
 30
0.0
  0
SPLINE
  5
110
100
AcDbEntity
  8
VISIBLE
 62
7
100
AcDbSpline
 70
8
 71
3
 72
8
 73
4
 74
0
 40
0
 40
0
 40
0
 40
0
 40
1
 40
1
 40
1
 40
1
 10
339.185347
 20
196.035853
 30
0.0
 10
339.091579
 20
196.129621
 30
0.0
 10
338.964402
 20
196.182300
 30
0.0
 10
338.831793
 20
196.182300
 30
0.0
  0
SPLINE
  5
111
100
AcDbEntity
  8
VISIBLE
 62
7
100
AcDbSpline
 70
8
 71
3
 72
8
 73
4
 74
0
 40
0
 40
0
 40
0
 40
0
 40
1
 40
1
 40
1
 40
1
 10
346.831794
 20
196.182300
 30
0.0
 10
346.699185
 20
196.182300
 30
0.0
 10
346.572008
 20
196.129621
 30
0.0
 10
346.478240
 20
196.035853
 30
0.0
  0
SPLINE
  5
112
100
AcDbEntity
  8
VISIBLE
 62
7
100
AcDbSpline
 70
8
 71
3
 72
8
 73
4
 74
0
 40
0
 40
0
 40
0
 40
0
 40
1
 40
1
 40
1
 40
1
 10
346.478240
 20
196.035853
 30
0.0
 10
346.384472
 20
195.942085
 30
0.0
 10
346.331793
 20
195.814908
 30
0.0
 10
346.331793
 20
195.682300
 30
0.0
  0
SPLINE
  5
113
100
AcDbEntity
  8
VISIBLE
 62
7
100
AcDbSpline
 70
8
 71
3
 72
8
 73
4
 74
0
 40
0
 40
0
 40
0
 40
0
 40
1
 40
1
 40
1
 40
1
 10
315.455793
 20
195.682300
 30
0.0
 10
315.455793
 20
195.958442
 30
0.0
 10
315.231936
 20
196.182300
 30
0.0
 10
314.955793
 20
196.182300
 30
0.0
  0
SPLINE
  5
114
100
AcDbEntity
  8
VISIBLE
 62
7
100
AcDbSpline
 70
8
 71
3
 72
8
 73
4
 74
0
 40
0
 40
0
 40
0
 40
0
 40
1
 40
1
 40
1
 40
1
 10
322.955794
 20
196.182300
 30
0.0
 10
322.823185
 20
196.182300
 30
0.0
 10
322.696008
 20
196.129621
 30
0.0
 10
322.602240
 20
196.035853
 30
0.0
  0
SPLINE
  5
115
100
AcDbEntity
  8
VISIBLE
 62
7
100
AcDbSpline
 70
8
 71
3
 72
8
 73
4
 74
0
 40
0
 40
0
 40
0
 40
0
 40
1
 40
1
 40
1
 40
1
 10
322.602240
 20
196.035853
 30
0.0
 10
322.508472
 20
195.942085
 30
0.0
 10
322.455793
 20
195.814908
 30
0.0
 10
322.455793
 20
195.682300
 30
0.0
  0
SPLINE
  5
116
100
AcDbEntity
  8
VISIBLE
 62
7
100
AcDbSpline
 70
8
 71
3
 72
8
 73
4
 74
0
 40
0
 40
0
 40
0
 40
0
 40
1
 40
1
 40
1
 40
1
 10
69.600043
 20
172.082300
 30
0.0
 10
69.323901
 20
172.082300
 30
0.0
 10
69.100044
 20
171.858442
 30
0.0
 10
69.100044
 20
171.582300
 30
0.0
  0
LWPOLYLINE
  5
117
100
AcDbEntity
  8
VISIBLE
 62
7
100
AcDbPolyline
 90
2
 70
0
 10
66.718794
 20
209.682300
 30
0.0
 10
66.718794
 20
196.682299
 30
0.0
  0
LWPOLYLINE
  5
118
100
AcDbEntity
  8
VISIBLE
 62
7
100
AcDbPolyline
 90
2
 70
0
 10
85.768794
 20
209.682300
 30
0.0
 10
85.768794
 20
196.682299
 30
0.0
  0
LWPOLYLINE
  5
119
100
AcDbEntity
  8
VISIBLE
 62
7
100
AcDbPolyline
 90
2
 70
0
 10
104.818794
 20
209.682300
 30
0.0
 10
104.818794
 20
196.682299
 30
0.0
  0
LWPOLYLINE
  5
11a
100
AcDbEntity
  8
VISIBLE
 62
7
100
AcDbPolyline
 90
2
 70
0
 10
123.868794
 20
209.682300
 30
0.0
 10
123.868794
 20
196.682299
 30
0.0
  0
LWPOLYLINE
  5
11b
100
AcDbEntity
  8
VISIBLE
 62
7
100
AcDbPolyline
 90
2
 70
0
 10
142.918794
 20
209.682300
 30
0.0
 10
142.918794
 20
196.682299
 30
0.0
  0
LWPOLYLINE
  5
11c
100
AcDbEntity
  8
VISIBLE
 62
7
100
AcDbPolyline
 90
2
 70
0
 10
161.968794
 20
209.682300
 30
0.0
 10
161.968794
 20
196.682299
 30
0.0
  0
LWPOLYLINE
  5
11d
100
AcDbEntity
  8
VISIBLE
 62
7
100
AcDbPolyline
 90
2
 70
0
 10
181.018794
 20
209.682300
 30
0.0
 10
181.018794
 20
196.682299
 30
0.0
  0
LWPOLYLINE
  5
11e
100
AcDbEntity
  8
VISIBLE
 62
7
100
AcDbPolyline
 90
2
 70
0
 10
200.068794
 20
209.682300
 30
0.0
 10
200.068794
 20
196.682299
 30
0.0
  0
LWPOLYLINE
  5
11f
100
AcDbEntity
  8
VISIBLE
 62
7
100
AcDbPolyline
 90
2
 70
0
 10
219.118794
 20
209.682300
 30
0.0
 10
219.118794
 20
196.682299
 30
0.0
  0
LWPOLYLINE
  5
120
100
AcDbEntity
  8
VISIBLE
 62
7
100
AcDbPolyline
 90
2
 70
0
 10
238.168794
 20
209.682300
 30
0.0
 10
238.168794
 20
196.682299
 30
0.0
  0
LWPOLYLINE
  5
121
100
AcDbEntity
  8
VISIBLE
 62
7
100
AcDbPolyline
 90
2
 70
0
 10
257.218794
 20
209.682300
 30
0.0
 10
257.218794
 20
196.682299
 30
0.0
  0
LWPOLYLINE
  5
122
100
AcDbEntity
  8
VISIBLE
 62
7
100
AcDbPolyline
 90
2
 70
0
 10
276.268794
 20
209.682300
 30
0.0
 10
276.268794
 20
196.682299
 30
0.0
  0
LWPOLYLINE
  5
123
100
AcDbEntity
  8
VISIBLE
 62
7
100
AcDbPolyline
 90
2
 70
0
 10
295.318794
 20
209.682300
 30
0.0
 10
295.318794
 20
196.682299
 30
0.0
  0
LWPOLYLINE
  5
124
100
AcDbEntity
  8
VISIBLE
 62
7
100
AcDbPolyline
 90
2
 70
0
 10
339.331793
 20
195.682300
 30
0.0
 10
339.331793
 20
194.682299
 30
0.0
  0
LWPOLYLINE
  5
125
100
AcDbEntity
  8
VISIBLE
 62
7
100
AcDbPolyline
 90
2
 70
0
 10
352.468794
 20
209.682300
 30
0.0
 10
352.468794
 20
196.682299
 30
0.0
  0
LWPOLYLINE
  5
126
100
AcDbEntity
  8
VISIBLE
 62
7
100
AcDbPolyline
 90
2
 70
0
 10
71.481294
 20
190.632300
 30
0.0
 10
71.481294
 20
177.632299
 30
0.0
  0
LWPOLYLINE
  5
127
100
AcDbEntity
  8
VISIBLE
 62
7
100
AcDbPolyline
 90
2
 70
0
 10
95.293794
 20
190.632300
 30
0.0
 10
95.293794
 20
177.632299
 30
0.0
  0
LWPOLYLINE
  5
128
100
AcDbEntity
  8
VISIBLE
 62
7
100
AcDbPolyline
 90
2
 70
0
 10
114.343794
 20
190.632300
 30
0.0
 10
114.343794
 20
177.632299
 30
0.0
  0
LWPOLYLINE
  5
129
100
AcDbEntity
  8
VISIBLE
 62
7
100
AcDbPolyline
 90
2
 70
0
 10
133.393794
 20
190.632300
 30
0.0
 10
133.393794
 20
177.632299
 30
0.0
  0
LWPOLYLINE
  5
12a
100
AcDbEntity
  8
VISIBLE
 62
7
100
AcDbPolyline
 90
2
 70
0
 10
152.443794
 20
190.632300
 30
0.0
 10
152.443794
 20
177.632299
 30
0.0
  0
LWPOLYLINE
  5
12b
100
AcDbEntity
  8
VISIBLE
 62
7
100
AcDbPolyline
 90
2
 70
0
 10
171.493794
 20
190.632300
 30
0.0
 10
171.493794
 20
177.632299
 30
0.0
  0
LWPOLYLINE
  5
12c
100
AcDbEntity
  8
VISIBLE
 62
7
100
AcDbPolyline
 90
2
 70
0
 10
190.543794
 20
190.632300
 30
0.0
 10
190.543794
 20
177.632299
 30
0.0
  0
LWPOLYLINE
  5
12d
100
AcDbEntity
  8
VISIBLE
 62
7
100
AcDbPolyline
 90
2
 70
0
 10
209.593794
 20
190.632300
 30
0.0
 10
209.593794
 20
177.632299
 30
0.0
  0
LWPOLYLINE
  5
12e
100
AcDbEntity
  8
VISIBLE
 62
7
100
AcDbPolyline
 90
2
 70
0
 10
228.643794
 20
190.632300
 30
0.0
 10
228.643794
 20
177.632299
 30
0.0
  0
LWPOLYLINE
  5
12f
100
AcDbEntity
  8
VISIBLE
 62
7
100
AcDbPolyline
 90
2
 70
0
 10
247.693794
 20
190.632300
 30
0.0
 10
247.693794
 20
177.632299
 30
0.0
  0
LWPOLYLINE
  5
130
100
AcDbEntity
  8
VISIBLE
 62
7
100
AcDbPolyline
 90
2
 70
0
 10
266.743794
 20
190.632300
 30
0.0
 10
266.743794
 20
177.632299
 30
0.0
  0
LWPOLYLINE
  5
131
100
AcDbEntity
  8
VISIBLE
 62
7
100
AcDbPolyline
 90
2
 70
0
 10
285.793794
 20
190.632300
 30
0.0
 10
285.793794
 20
177.632299
 30
0.0
  0
LWPOLYLINE
  5
132
100
AcDbEntity
  8
VISIBLE
 62
7
100
AcDbPolyline
 90
2
 70
0
 10
304.843794
 20
190.632300
 30
0.0
 10
304.843794
 20
177.632299
 30
0.0
  0
LWPOLYLINE
  5
133
100
AcDbEntity
  8
VISIBLE
 62
7
100
AcDbPolyline
 90
2
 70
0
 10
328.656294
 20
190.632300
 30
0.0
 10
328.656294
 20
177.632299
 30
0.0
  0
LWPOLYLINE
  5
134
100
AcDbEntity
  8
VISIBLE
 62
7
100
AcDbPolyline
 90
2
 70
0
 10
352.468794
 20
190.632300
 30
0.0
 10
352.468794
 20
177.632299
 30
0.0
  0
LWPOLYLINE
  5
135
100
AcDbEntity
  8
VISIBLE
 62
7
100
AcDbPolyline
 90
2
 70
0
 10
100.056294
 20
171.582300
 30
0.0
 10
100.056294
 20
158.582299
 30
0.0
  0
LWPOLYLINE
  5
136
100
AcDbEntity
  8
VISIBLE
 62
7
100
AcDbPolyline
 90
2
 70
0
 10
119.106294
 20
171.582300
 30
0.0
 10
119.106294
 20
158.582299
 30
0.0
  0
LWPOLYLINE
  5
137
100
AcDbEntity
  8
VISIBLE
 62
7
100
AcDbPolyline
 90
2
 70
0
 10
138.156294
 20
171.582300
 30
0.0
 10
138.156294
 20
158.582299
 30
0.0
  0
LWPOLYLINE
  5
138
100
AcDbEntity
  8
VISIBLE
 62
7
100
AcDbPolyline
 90
2
 70
0
 10
157.206294
 20
171.582300
 30
0.0
 10
157.206294
 20
158.582299
 30
0.0
  0
LWPOLYLINE
  5
139
100
AcDbEntity
  8
VISIBLE
 62
7
100
AcDbPolyline
 90
2
 70
0
 10
176.256294
 20
171.582300
 30
0.0
 10
176.256294
 20
158.582299
 30
0.0
  0
LWPOLYLINE
  5
13a
100
AcDbEntity
  8
VISIBLE
 62
7
100
AcDbPolyline
 90
2
 70
0
 10
195.306294
 20
171.582300
 30
0.0
 10
195.306294
 20
158.582299
 30
0.0
  0
LWPOLYLINE
  5
13b
100
AcDbEntity
  8
VISIBLE
 62
7
100
AcDbPolyline
 90
2
 70
0
 10
214.356294
 20
171.582300
 30
0.0
 10
214.356294
 20
158.582299
 30
0.0
  0
LWPOLYLINE
  5
13c
100
AcDbEntity
  8
VISIBLE
 62
7
100
AcDbPolyline
 90
2
 70
0
 10
233.406294
 20
171.582300
 30
0.0
 10
233.406294
 20
158.582299
 30
0.0
  0
LWPOLYLINE
  5
13d
100
AcDbEntity
  8
VISIBLE
 62
7
100
AcDbPolyline
 90
2
 70
0
 10
252.456294
 20
171.582300
 30
0.0
 10
252.456294
 20
158.582299
 30
0.0
  0
LWPOLYLINE
  5
13e
100
AcDbEntity
  8
VISIBLE
 62
7
100
AcDbPolyline
 90
2
 70
0
 10
271.506294
 20
171.582300
 30
0.0
 10
271.506294
 20
158.582299
 30
0.0
  0
LWPOLYLINE
  5
13f
100
AcDbEntity
  8
VISIBLE
 62
7
100
AcDbPolyline
 90
2
 70
0
 10
290.556294
 20
171.582300
 30
0.0
 10
290.556294
 20
158.582299
 30
0.0
  0
LWPOLYLINE
  5
140
100
AcDbEntity
  8
VISIBLE
 62
7
100
AcDbPolyline
 90
2
 70
0
 10
336.950543
 20
157.582300
 30
0.0
 10
336.950543
 20
156.582299
 30
0.0
  0
LWPOLYLINE
  5
141
100
AcDbEntity
  8
VISIBLE
 62
7
100
AcDbPolyline
 90
2
 70
0
 10
352.468794
 20
171.582300
 30
0.0
 10
352.468794
 20
158.582299
 30
0.0
  0
LWPOLYLINE
  5
142
100
AcDbEntity
  8
VISIBLE
 62
7
100
AcDbPolyline
 90
2
 70
0
 10
94.063043
 20
138.532300
 30
0.0
 10
94.063043
 20
137.532299
 30
0.0
  0
LWPOLYLINE
  5
143
100
AcDbEntity
  8
VISIBLE
 62
7
100
AcDbPolyline
 90
2
 70
0
 10
109.581294
 20
152.532300
 30
0.0
 10
109.581294
 20
139.532299
 30
0.0
  0
LWPOLYLINE
  5
144
100
AcDbEntity
  8
VISIBLE
 62
7
100
AcDbPolyline
 90
2
 70
0
 10
128.631294
 20
152.532300
 30
0.0
 10
128.631294
 20
139.532299
 30
0.0
  0
LWPOLYLINE
  5
145
100
AcDbEntity
  8
VISIBLE
 62
7
100
AcDbPolyline
 90
2
 70
0
 10
147.681294
 20
152.532300
 30
0.0
 10
147.681294
 20
139.532299
 30
0.0
  0
LWPOLYLINE
  5
146
100
AcDbEntity
  8
VISIBLE
 62
7
100
AcDbPolyline
 90
2
 70
0
 10
166.731294
 20
152.532300
 30
0.0
 10
166.731294
 20
139.532299
 30
0.0
  0
LWPOLYLINE
  5
147
100
AcDbEntity
  8
VISIBLE
 62
7
100
AcDbPolyline
 90
2
 70
0
 10
185.781294
 20
152.532300
 30
0.0
 10
185.781294
 20
139.532299
 30
0.0
  0
LWPOLYLINE
  5
148
100
AcDbEntity
  8
VISIBLE
 62
7
100
AcDbPolyline
 90
2
 70
0
 10
204.831294
 20
152.532300
 30
0.0
 10
204.831294
 20
139.532299
 30
0.0
  0
LWPOLYLINE
  5
149
100
AcDbEntity
  8
VISIBLE
 62
7
100
AcDbPolyline
 90
2
 70
0
 10
223.881294
 20
152.532300
 30
0.0
 10
223.881294
 20
139.532299
 30
0.0
  0
LWPOLYLINE
  5
14a
100
AcDbEntity
  8
VISIBLE
 62
7
100
AcDbPolyline
 90
2
 70
0
 10
242.931294
 20
152.532300
 30
0.0
 10
242.931294
 20
139.532299
 30
0.0
  0
LWPOLYLINE
  5
14b
100
AcDbEntity
  8
VISIBLE
 62
7
100
AcDbPolyline
 90
2
 70
0
 10
261.981294
 20
152.532300
 30
0.0
 10
261.981294
 20
139.532299
 30
0.0
  0
LWPOLYLINE
  5
14c
100
AcDbEntity
  8
VISIBLE
 62
7
100
AcDbPolyline
 90
2
 70
0
 10
281.031294
 20
152.532300
 30
0.0
 10
281.031294
 20
139.532299
 30
0.0
  0
LWPOLYLINE
  5
14d
100
AcDbEntity
  8
VISIBLE
 62
7
100
AcDbPolyline
 90
2
 70
0
 10
307.225044
 20
152.532300
 30
0.0
 10
307.225044
 20
139.532299
 30
0.0
  0
LWPOLYLINE
  5
14e
100
AcDbEntity
  8
VISIBLE
 62
7
100
AcDbPolyline
 90
2
 70
0
 10
333.418794
 20
152.532300
 30
0.0
 10
333.418794
 20
139.532299
 30
0.0
  0
LWPOLYLINE
  5
14f
100
AcDbEntity
  8
VISIBLE
 62
7
100
AcDbPolyline
 90
2
 70
0
 10
352.468794
 20
152.532300
 30
0.0
 10
352.468794
 20
139.532299
 30
0.0
  0
LWPOLYLINE
  5
150
100
AcDbEntity
  8
VISIBLE
 62
7
100
AcDbPolyline
 90
2
 70
0
 10
69.100044
 20
133.482300
 30
0.0
 10
69.100044
 20
120.482299
 30
0.0
  0
LWPOLYLINE
  5
151
100
AcDbEntity
  8
VISIBLE
 62
7
100
AcDbPolyline
 90
2
 70
0
 10
92.912544
 20
133.482300
 30
0.0
 10
92.912544
 20
120.482299
 30
0.0
  0
LWPOLYLINE
  5
152
100
AcDbEntity
  8
VISIBLE
 62
7
100
AcDbPolyline
 90
2
 70
0
 10
116.725044
 20
133.482300
 30
0.0
 10
116.725044
 20
120.482299
 30
0.0
  0
LWPOLYLINE
  5
153
100
AcDbEntity
  8
VISIBLE
 62
7
100
AcDbPolyline
 90
2
 70
0
 10
188.162544
 20
133.482300
 30
0.0
 10
188.162544
 20
120.482299
 30
0.0
  0
LWPOLYLINE
  5
154
100
AcDbEntity
  8
VISIBLE
 62
7
100
AcDbPolyline
 90
2
 70
0
 10
148.662543
 20
121.482300
 30
0.0
 10
148.662543
 20
135.482300
 30
0.0
  0
LWPOLYLINE
  5
155
100
AcDbEntity
  8
VISIBLE
 62
7
100
AcDbPolyline
 90
2
 70
0
 10
248.662543
 20
121.482300
 30
0.0
 10
248.662543
 20
135.482300
 30
0.0
  0
LWPOLYLINE
  5
156
100
AcDbEntity
  8
VISIBLE
 62
7
100
AcDbPolyline
 90
2
 70
0
 10
314.368794
 20
133.482300
 30
0.0
 10
314.368794
 20
120.482299
 30
0.0
  0
LWPOLYLINE
  5
157
100
AcDbEntity
  8
VISIBLE
 62
7
100
AcDbPolyline
 90
2
 70
0
 10
333.418794
 20
133.482300
 30
0.0
 10
333.418794
 20
120.482299
 30
0.0
  0
LWPOLYLINE
  5
158
100
AcDbEntity
  8
VISIBLE
 62
7
100
AcDbPolyline
 90
2
 70
0
 10
352.468794
 20
133.482300
 30
0.0
 10
352.468794
 20
120.482299
 30
0.0
  0
SPLINE
  5
159
100
AcDbEntity
  8
VISIBLE
 62
7
100
AcDbSpline
 70
8
 71
3
 72
8
 73
4
 74
0
 40
0
 40
0
 40
0
 40
0
 40
1
 40
1
 40
1
 40
1
 10
257.718793
 20
133.982300
 30
0.0
 10
257.442651
 20
133.982300
 30
0.0
 10
257.218794
 20
133.758442
 30
0.0
 10
257.218794
 20
133.482300
 30
0.0
  0
SPLINE
  5
15a
100
AcDbEntity
  8
VISIBLE
 62
7
100
AcDbSpline
 70
8
 71
3
 72
8
 73
4
 74
0
 40
0
 40
0
 40
0
 40
0
 40
1
 40
1
 40
1
 40
1
 10
66.718794
 20
196.682299
 30
0.0
 10
66.718794
 20
196.406157
 30
0.0
 10
66.942651
 20
196.182300
 30
0.0
 10
67.218793
 20
196.182300
 30
0.0
  0
LWPOLYLINE
  5
15b
100
AcDbEntity
  8
VISIBLE
 62
7
100
AcDbPolyline
 90
2
 70
0
 10
368.993794
 20
210.707299
 30
0.0
 10
368.993794
 20
119.457300
 30
0.0
  0
SPLINE
  5
15c
100
AcDbEntity
  8
VISIBLE
 62
7
100
AcDbSpline
 70
8
 71
3
 72
8
 73
4
 74
0
 40
0
 40
0
 40
0
 40
0
 40
1
 40
1
 40
1
 40
1
 10
80.218794
 20
196.182300
 30
0.0
 10
80.494936
 20
196.182300
 30
0.0
 10
80.718793
 20
196.406157
 30
0.0
 10
80.718794
 20
196.682299
 30
0.0
  0
LWPOLYLINE
  5
15d
100
AcDbEntity
  8
VISIBLE
 62
7
100
AcDbPolyline
 90
2
 70
0
 10
67.218793
 20
196.182300
 30
0.0
 10
80.218794
 20
196.182300
 30
0.0
  0
SPLINE
  5
15e
100
AcDbEntity
  8
VISIBLE
 62
7
100
AcDbSpline
 70
8
 71
3
 72
8
 73
4
 74
0
 40
0
 40
0
 40
0
 40
0
 40
1
 40
1
 40
1
 40
1
 10
80.718794
 20
209.682300
 30
0.0
 10
80.718794
 20
209.814908
 30
0.0
 10
80.666115
 20
209.942085
 30
0.0
 10
80.572347
 20
210.035853
 30
0.0
  0
SPLINE
  5
15f
100
AcDbEntity
  8
VISIBLE
 62
7
100
AcDbSpline
 70
8
 71
3
 72
8
 73
4
 74
0
 40
0
 40
0
 40
0
 40
0
 40
1
 40
1
 40
1
 40
1
 10
80.572347
 20
210.035853
 30
0.0
 10
80.478579
 20
210.129621
 30
0.0
 10
80.351402
 20
210.182300
 30
0.0
 10
80.218794
 20
210.182300
 30
0.0
  0
LWPOLYLINE
  5
160
100
AcDbEntity
  8
VISIBLE
 62
7
100
AcDbPolyline
 90
2
 70
0
 10
80.718794
 20
209.682300
 30
0.0
 10
80.718794
 20
196.682299
 30
0.0
  0
SPLINE
  5
161
100
AcDbEntity
  8
VISIBLE
 62
7
100
AcDbSpline
 70
8
 71
3
 72
8
 73
4
 74
0
 40
0
 40
0
 40
0
 40
0
 40
1
 40
1
 40
1
 40
1
 10
67.218793
 20
210.182300
 30
0.0
 10
66.942651
 20
210.182300
 30
0.0
 10
66.718794
 20
209.958442
 30
0.0
 10
66.718794
 20
209.682300
 30
0.0
  0
SPLINE
  5
162
100
AcDbEntity
  8
VISIBLE
 62
7
100
AcDbSpline
 70
8
 71
3
 72
8
 73
4
 74
0
 40
0
 40
0
 40
0
 40
0
 40
1
 40
1
 40
1
 40
1
 10
85.768794
 20
196.682299
 30
0.0
 10
85.768794
 20
196.406157
 30
0.0
 10
85.992651
 20
196.182300
 30
0.0
 10
86.268793
 20
196.182300
 30
0.0
  0
LWPOLYLINE
  5
163
100
AcDbEntity
  8
VISIBLE
 62
7
100
AcDbPolyline
 90
2
 70
0
 10
67.218793
 20
210.182300
 30
0.0
 10
80.218794
 20
210.182300
 30
0.0
  0
SPLINE
  5
164
100
AcDbEntity
  8
VISIBLE
 62
7
100
AcDbSpline
 70
8
 71
3
 72
8
 73
4
 74
0
 40
0
 40
0
 40
0
 40
0
 40
1
 40
1
 40
1
 40
1
 10
99.268794
 20
196.182300
 30
0.0
 10
99.544936
 20
196.182300
 30
0.0
 10
99.768793
 20
196.406157
 30
0.0
 10
99.768794
 20
196.682299
 30
0.0
  0
LWPOLYLINE
  5
165
100
AcDbEntity
  8
VISIBLE
 62
7
100
AcDbPolyline
 90
2
 70
0
 10
86.268793
 20
196.182300
 30
0.0
 10
99.268794
 20
196.182300
 30
0.0
  0
SPLINE
  5
166
100
AcDbEntity
  8
VISIBLE
 62
7
100
AcDbSpline
 70
8
 71
3
 72
8
 73
4
 74
0
 40
0
 40
0
 40
0
 40
0
 40
1
 40
1
 40
1
 40
1
 10
99.768794
 20
209.682300
 30
0.0
 10
99.768794
 20
209.814908
 30
0.0
 10
99.716115
 20
209.942085
 30
0.0
 10
99.622347
 20
210.035853
 30
0.0
  0
SPLINE
  5
167
100
AcDbEntity
  8
VISIBLE
 62
7
100
AcDbSpline
 70
8
 71
3
 72
8
 73
4
 74
0
 40
0
 40
0
 40
0
 40
0
 40
1
 40
1
 40
1
 40
1
 10
99.622347
 20
210.035853
 30
0.0
 10
99.528579
 20
210.129621
 30
0.0
 10
99.401402
 20
210.182300
 30
0.0
 10
99.268794
 20
210.182300
 30
0.0
  0
LWPOLYLINE
  5
168
100
AcDbEntity
  8
VISIBLE
 62
7
100
AcDbPolyline
 90
2
 70
0
 10
99.768794
 20
209.682300
 30
0.0
 10
99.768794
 20
196.682299
 30
0.0
  0
SPLINE
  5
169
100
AcDbEntity
  8
VISIBLE
 62
7
100
AcDbSpline
 70
8
 71
3
 72
8
 73
4
 74
0
 40
0
 40
0
 40
0
 40
0
 40
1
 40
1
 40
1
 40
1
 10
86.268793
 20
210.182300
 30
0.0
 10
85.992651
 20
210.182300
 30
0.0
 10
85.768794
 20
209.958442
 30
0.0
 10
85.768794
 20
209.682300
 30
0.0
  0
SPLINE
  5
16a
100
AcDbEntity
  8
VISIBLE
 62
7
100
AcDbSpline
 70
8
 71
3
 72
8
 73
4
 74
0
 40
0
 40
0
 40
0
 40
0
 40
1
 40
1
 40
1
 40
1
 10
104.818794
 20
196.682299
 30
0.0
 10
104.818794
 20
196.406157
 30
0.0
 10
105.042651
 20
196.182300
 30
0.0
 10
105.318793
 20
196.182300
 30
0.0
  0
LWPOLYLINE
  5
16b
100
AcDbEntity
  8
VISIBLE
 62
7
100
AcDbPolyline
 90
2
 70
0
 10
86.268793
 20
210.182300
 30
0.0
 10
99.268794
 20
210.182300
 30
0.0
  0
SPLINE
  5
16c
100
AcDbEntity
  8
VISIBLE
 62
7
100
AcDbSpline
 70
8
 71
3
 72
8
 73
4
 74
0
 40
0
 40
0
 40
0
 40
0
 40
1
 40
1
 40
1
 40
1
 10
118.318794
 20
196.182300
 30
0.0
 10
118.594936
 20
196.182300
 30
0.0
 10
118.818793
 20
196.406157
 30
0.0
 10
118.818794
 20
196.682299
 30
0.0
  0
LWPOLYLINE
  5
16d
100
AcDbEntity
  8
VISIBLE
 62
7
100
AcDbPolyline
 90
2
 70
0
 10
105.318793
 20
196.182300
 30
0.0
 10
118.318794
 20
196.182300
 30
0.0
  0
SPLINE
  5
16e
100
AcDbEntity
  8
VISIBLE
 62
7
100
AcDbSpline
 70
8
 71
3
 72
8
 73
4
 74
0
 40
0
 40
0
 40
0
 40
0
 40
1
 40
1
 40
1
 40
1
 10
118.818794
 20
209.682300
 30
0.0
 10
118.818794
 20
209.814908
 30
0.0
 10
118.766115
 20
209.942085
 30
0.0
 10
118.672347
 20
210.035853
 30
0.0
  0
SPLINE
  5
16f
100
AcDbEntity
  8
VISIBLE
 62
7
100
AcDbSpline
 70
8
 71
3
 72
8
 73
4
 74
0
 40
0
 40
0
 40
0
 40
0
 40
1
 40
1
 40
1
 40
1
 10
118.672347
 20
210.035853
 30
0.0
 10
118.578579
 20
210.129621
 30
0.0
 10
118.451402
 20
210.182300
 30
0.0
 10
118.318794
 20
210.182300
 30
0.0
  0
LWPOLYLINE
  5
170
100
AcDbEntity
  8
VISIBLE
 62
7
100
AcDbPolyline
 90
2
 70
0
 10
118.818794
 20
209.682300
 30
0.0
 10
118.818794
 20
196.682299
 30
0.0
  0
SPLINE
  5
171
100
AcDbEntity
  8
VISIBLE
 62
7
100
AcDbSpline
 70
8
 71
3
 72
8
 73
4
 74
0
 40
0
 40
0
 40
0
 40
0
 40
1
 40
1
 40
1
 40
1
 10
105.318793
 20
210.182300
 30
0.0
 10
105.042651
 20
210.182300
 30
0.0
 10
104.818794
 20
209.958442
 30
0.0
 10
104.818794
 20
209.682300
 30
0.0
  0
SPLINE
  5
172
100
AcDbEntity
  8
VISIBLE
 62
7
100
AcDbSpline
 70
8
 71
3
 72
8
 73
4
 74
0
 40
0
 40
0
 40
0
 40
0
 40
1
 40
1
 40
1
 40
1
 10
123.868794
 20
196.682299
 30
0.0
 10
123.868794
 20
196.406157
 30
0.0
 10
124.092651
 20
196.182300
 30
0.0
 10
124.368793
 20
196.182300
 30
0.0
  0
LWPOLYLINE
  5
173
100
AcDbEntity
  8
VISIBLE
 62
7
100
AcDbPolyline
 90
2
 70
0
 10
105.318793
 20
210.182300
 30
0.0
 10
118.318794
 20
210.182300
 30
0.0
  0
SPLINE
  5
174
100
AcDbEntity
  8
VISIBLE
 62
7
100
AcDbSpline
 70
8
 71
3
 72
8
 73
4
 74
0
 40
0
 40
0
 40
0
 40
0
 40
1
 40
1
 40
1
 40
1
 10
137.368794
 20
196.182300
 30
0.0
 10
137.644936
 20
196.182300
 30
0.0
 10
137.868793
 20
196.406157
 30
0.0
 10
137.868794
 20
196.682299
 30
0.0
  0
LWPOLYLINE
  5
175
100
AcDbEntity
  8
VISIBLE
 62
7
100
AcDbPolyline
 90
2
 70
0
 10
124.368793
 20
196.182300
 30
0.0
 10
137.368794
 20
196.182300
 30
0.0
  0
SPLINE
  5
176
100
AcDbEntity
  8
VISIBLE
 62
7
100
AcDbSpline
 70
8
 71
3
 72
8
 73
4
 74
0
 40
0
 40
0
 40
0
 40
0
 40
1
 40
1
 40
1
 40
1
 10
137.868794
 20
209.682300
 30
0.0
 10
137.868794
 20
209.814908
 30
0.0
 10
137.816115
 20
209.942085
 30
0.0
 10
137.722347
 20
210.035853
 30
0.0
  0
SPLINE
  5
177
100
AcDbEntity
  8
VISIBLE
 62
7
100
AcDbSpline
 70
8
 71
3
 72
8
 73
4
 74
0
 40
0
 40
0
 40
0
 40
0
 40
1
 40
1
 40
1
 40
1
 10
137.722347
 20
210.035853
 30
0.0
 10
137.628579
 20
210.129621
 30
0.0
 10
137.501402
 20
210.182300
 30
0.0
 10
137.368794
 20
210.182300
 30
0.0
  0
LWPOLYLINE
  5
178
100
AcDbEntity
  8
VISIBLE
 62
7
100
AcDbPolyline
 90
2
 70
0
 10
137.868794
 20
209.682300
 30
0.0
 10
137.868794
 20
196.682299
 30
0.0
  0
SPLINE
  5
179
100
AcDbEntity
  8
VISIBLE
 62
7
100
AcDbSpline
 70
8
 71
3
 72
8
 73
4
 74
0
 40
0
 40
0
 40
0
 40
0
 40
1
 40
1
 40
1
 40
1
 10
124.368793
 20
210.182300
 30
0.0
 10
124.092651
 20
210.182300
 30
0.0
 10
123.868794
 20
209.958442
 30
0.0
 10
123.868794
 20
209.682300
 30
0.0
  0
SPLINE
  5
17a
100
AcDbEntity
  8
VISIBLE
 62
7
100
AcDbSpline
 70
8
 71
3
 72
8
 73
4
 74
0
 40
0
 40
0
 40
0
 40
0
 40
1
 40
1
 40
1
 40
1
 10
142.918794
 20
196.682299
 30
0.0
 10
142.918794
 20
196.406157
 30
0.0
 10
143.142651
 20
196.182300
 30
0.0
 10
143.418793
 20
196.182300
 30
0.0
  0
LWPOLYLINE
  5
17b
100
AcDbEntity
  8
VISIBLE
 62
7
100
AcDbPolyline
 90
2
 70
0
 10
124.368793
 20
210.182300
 30
0.0
 10
137.368794
 20
210.182300
 30
0.0
  0
SPLINE
  5
17c
100
AcDbEntity
  8
VISIBLE
 62
7
100
AcDbSpline
 70
8
 71
3
 72
8
 73
4
 74
0
 40
0
 40
0
 40
0
 40
0
 40
1
 40
1
 40
1
 40
1
 10
156.418794
 20
196.182300
 30
0.0
 10
156.694936
 20
196.182300
 30
0.0
 10
156.918793
 20
196.406157
 30
0.0
 10
156.918794
 20
196.682299
 30
0.0
  0
LWPOLYLINE
  5
17d
100
AcDbEntity
  8
VISIBLE
 62
7
100
AcDbPolyline
 90
2
 70
0
 10
143.418793
 20
196.182300
 30
0.0
 10
156.418794
 20
196.182300
 30
0.0
  0
SPLINE
  5
17e
100
AcDbEntity
  8
VISIBLE
 62
7
100
AcDbSpline
 70
8
 71
3
 72
8
 73
4
 74
0
 40
0
 40
0
 40
0
 40
0
 40
1
 40
1
 40
1
 40
1
 10
156.918794
 20
209.682300
 30
0.0
 10
156.918794
 20
209.814908
 30
0.0
 10
156.866115
 20
209.942085
 30
0.0
 10
156.772347
 20
210.035853
 30
0.0
  0
SPLINE
  5
17f
100
AcDbEntity
  8
VISIBLE
 62
7
100
AcDbSpline
 70
8
 71
3
 72
8
 73
4
 74
0
 40
0
 40
0
 40
0
 40
0
 40
1
 40
1
 40
1
 40
1
 10
156.772347
 20
210.035853
 30
0.0
 10
156.678579
 20
210.129621
 30
0.0
 10
156.551402
 20
210.182300
 30
0.0
 10
156.418794
 20
210.182300
 30
0.0
  0
LWPOLYLINE
  5
180
100
AcDbEntity
  8
VISIBLE
 62
7
100
AcDbPolyline
 90
2
 70
0
 10
156.918794
 20
209.682300
 30
0.0
 10
156.918794
 20
196.682299
 30
0.0
  0
SPLINE
  5
181
100
AcDbEntity
  8
VISIBLE
 62
7
100
AcDbSpline
 70
8
 71
3
 72
8
 73
4
 74
0
 40
0
 40
0
 40
0
 40
0
 40
1
 40
1
 40
1
 40
1
 10
143.418793
 20
210.182300
 30
0.0
 10
143.142651
 20
210.182300
 30
0.0
 10
142.918794
 20
209.958442
 30
0.0
 10
142.918794
 20
209.682300
 30
0.0
  0
SPLINE
  5
182
100
AcDbEntity
  8
VISIBLE
 62
7
100
AcDbSpline
 70
8
 71
3
 72
8
 73
4
 74
0
 40
0
 40
0
 40
0
 40
0
 40
1
 40
1
 40
1
 40
1
 10
161.968794
 20
196.682299
 30
0.0
 10
161.968794
 20
196.406157
 30
0.0
 10
162.192651
 20
196.182300
 30
0.0
 10
162.468793
 20
196.182300
 30
0.0
  0
LWPOLYLINE
  5
183
100
AcDbEntity
  8
VISIBLE
 62
7
100
AcDbPolyline
 90
2
 70
0
 10
143.418793
 20
210.182300
 30
0.0
 10
156.418794
 20
210.182300
 30
0.0
  0
SPLINE
  5
184
100
AcDbEntity
  8
VISIBLE
 62
7
100
AcDbSpline
 70
8
 71
3
 72
8
 73
4
 74
0
 40
0
 40
0
 40
0
 40
0
 40
1
 40
1
 40
1
 40
1
 10
175.468794
 20
196.182300
 30
0.0
 10
175.744936
 20
196.182300
 30
0.0
 10
175.968793
 20
196.406157
 30
0.0
 10
175.968794
 20
196.682299
 30
0.0
  0
LWPOLYLINE
  5
185
100
AcDbEntity
  8
VISIBLE
 62
7
100
AcDbPolyline
 90
2
 70
0
 10
162.468793
 20
196.182300
 30
0.0
 10
175.468794
 20
196.182300
 30
0.0
  0
SPLINE
  5
186
100
AcDbEntity
  8
VISIBLE
 62
7
100
AcDbSpline
 70
8
 71
3
 72
8
 73
4
 74
0
 40
0
 40
0
 40
0
 40
0
 40
1
 40
1
 40
1
 40
1
 10
175.968794
 20
209.682300
 30
0.0
 10
175.968794
 20
209.814908
 30
0.0
 10
175.916115
 20
209.942085
 30
0.0
 10
175.822347
 20
210.035853
 30
0.0
  0
SPLINE
  5
187
100
AcDbEntity
  8
VISIBLE
 62
7
100
AcDbSpline
 70
8
 71
3
 72
8
 73
4
 74
0
 40
0
 40
0
 40
0
 40
0
 40
1
 40
1
 40
1
 40
1
 10
175.822347
 20
210.035853
 30
0.0
 10
175.728579
 20
210.129621
 30
0.0
 10
175.601402
 20
210.182300
 30
0.0
 10
175.468794
 20
210.182300
 30
0.0
  0
LWPOLYLINE
  5
188
100
AcDbEntity
  8
VISIBLE
 62
7
100
AcDbPolyline
 90
2
 70
0
 10
175.968794
 20
209.682300
 30
0.0
 10
175.968794
 20
196.682299
 30
0.0
  0
SPLINE
  5
189
100
AcDbEntity
  8
VISIBLE
 62
7
100
AcDbSpline
 70
8
 71
3
 72
8
 73
4
 74
0
 40
0
 40
0
 40
0
 40
0
 40
1
 40
1
 40
1
 40
1
 10
162.468793
 20
210.182300
 30
0.0
 10
162.192651
 20
210.182300
 30
0.0
 10
161.968794
 20
209.958442
 30
0.0
 10
161.968794
 20
209.682300
 30
0.0
  0
SPLINE
  5
18a
100
AcDbEntity
  8
VISIBLE
 62
7
100
AcDbSpline
 70
8
 71
3
 72
8
 73
4
 74
0
 40
0
 40
0
 40
0
 40
0
 40
1
 40
1
 40
1
 40
1
 10
181.018794
 20
196.682299
 30
0.0
 10
181.018794
 20
196.406157
 30
0.0
 10
181.242651
 20
196.182300
 30
0.0
 10
181.518793
 20
196.182300
 30
0.0
  0
LWPOLYLINE
  5
18b
100
AcDbEntity
  8
VISIBLE
 62
7
100
AcDbPolyline
 90
2
 70
0
 10
162.468793
 20
210.182300
 30
0.0
 10
175.468794
 20
210.182300
 30
0.0
  0
SPLINE
  5
18c
100
AcDbEntity
  8
VISIBLE
 62
7
100
AcDbSpline
 70
8
 71
3
 72
8
 73
4
 74
0
 40
0
 40
0
 40
0
 40
0
 40
1
 40
1
 40
1
 40
1
 10
194.518794
 20
196.182300
 30
0.0
 10
194.794936
 20
196.182300
 30
0.0
 10
195.018793
 20
196.406157
 30
0.0
 10
195.018794
 20
196.682299
 30
0.0
  0
LWPOLYLINE
  5
18d
100
AcDbEntity
  8
VISIBLE
 62
7
100
AcDbPolyline
 90
2
 70
0
 10
181.518793
 20
196.182300
 30
0.0
 10
194.518794
 20
196.182300
 30
0.0
  0
SPLINE
  5
18e
100
AcDbEntity
  8
VISIBLE
 62
7
100
AcDbSpline
 70
8
 71
3
 72
8
 73
4
 74
0
 40
0
 40
0
 40
0
 40
0
 40
1
 40
1
 40
1
 40
1
 10
195.018794
 20
209.682300
 30
0.0
 10
195.018794
 20
209.814908
 30
0.0
 10
194.966115
 20
209.942085
 30
0.0
 10
194.872347
 20
210.035853
 30
0.0
  0
SPLINE
  5
18f
100
AcDbEntity
  8
VISIBLE
 62
7
100
AcDbSpline
 70
8
 71
3
 72
8
 73
4
 74
0
 40
0
 40
0
 40
0
 40
0
 40
1
 40
1
 40
1
 40
1
 10
194.872347
 20
210.035853
 30
0.0
 10
194.778579
 20
210.129621
 30
0.0
 10
194.651402
 20
210.182300
 30
0.0
 10
194.518794
 20
210.182300
 30
0.0
  0
LWPOLYLINE
  5
190
100
AcDbEntity
  8
VISIBLE
 62
7
100
AcDbPolyline
 90
2
 70
0
 10
195.018794
 20
209.682300
 30
0.0
 10
195.018794
 20
196.682299
 30
0.0
  0
SPLINE
  5
191
100
AcDbEntity
  8
VISIBLE
 62
7
100
AcDbSpline
 70
8
 71
3
 72
8
 73
4
 74
0
 40
0
 40
0
 40
0
 40
0
 40
1
 40
1
 40
1
 40
1
 10
181.518793
 20
210.182300
 30
0.0
 10
181.242651
 20
210.182300
 30
0.0
 10
181.018794
 20
209.958442
 30
0.0
 10
181.018794
 20
209.682300
 30
0.0
  0
SPLINE
  5
192
100
AcDbEntity
  8
VISIBLE
 62
7
100
AcDbSpline
 70
8
 71
3
 72
8
 73
4
 74
0
 40
0
 40
0
 40
0
 40
0
 40
1
 40
1
 40
1
 40
1
 10
200.068794
 20
196.682299
 30
0.0
 10
200.068794
 20
196.406157
 30
0.0
 10
200.292651
 20
196.182300
 30
0.0
 10
200.568793
 20
196.182300
 30
0.0
  0
LWPOLYLINE
  5
193
100
AcDbEntity
  8
VISIBLE
 62
7
100
AcDbPolyline
 90
2
 70
0
 10
181.518793
 20
210.182300
 30
0.0
 10
194.518794
 20
210.182300
 30
0.0
  0
SPLINE
  5
194
100
AcDbEntity
  8
VISIBLE
 62
7
100
AcDbSpline
 70
8
 71
3
 72
8
 73
4
 74
0
 40
0
 40
0
 40
0
 40
0
 40
1
 40
1
 40
1
 40
1
 10
213.568794
 20
196.182300
 30
0.0
 10
213.844936
 20
196.182300
 30
0.0
 10
214.068793
 20
196.406157
 30
0.0
 10
214.068794
 20
196.682299
 30
0.0
  0
LWPOLYLINE
  5
195
100
AcDbEntity
  8
VISIBLE
 62
7
100
AcDbPolyline
 90
2
 70
0
 10
200.568793
 20
196.182300
 30
0.0
 10
213.568794
 20
196.182300
 30
0.0
  0
SPLINE
  5
196
100
AcDbEntity
  8
VISIBLE
 62
7
100
AcDbSpline
 70
8
 71
3
 72
8
 73
4
 74
0
 40
0
 40
0
 40
0
 40
0
 40
1
 40
1
 40
1
 40
1
 10
214.068794
 20
209.682300
 30
0.0
 10
214.068794
 20
209.814908
 30
0.0
 10
214.016115
 20
209.942085
 30
0.0
 10
213.922347
 20
210.035853
 30
0.0
  0
SPLINE
  5
197
100
AcDbEntity
  8
VISIBLE
 62
7
100
AcDbSpline
 70
8
 71
3
 72
8
 73
4
 74
0
 40
0
 40
0
 40
0
 40
0
 40
1
 40
1
 40
1
 40
1
 10
213.922347
 20
210.035853
 30
0.0
 10
213.828579
 20
210.129621
 30
0.0
 10
213.701402
 20
210.182300
 30
0.0
 10
213.568794
 20
210.182300
 30
0.0
  0
LWPOLYLINE
  5
198
100
AcDbEntity
  8
VISIBLE
 62
7
100
AcDbPolyline
 90
2
 70
0
 10
214.068794
 20
209.682300
 30
0.0
 10
214.068794
 20
196.682299
 30
0.0
  0
SPLINE
  5
199
100
AcDbEntity
  8
VISIBLE
 62
7
100
AcDbSpline
 70
8
 71
3
 72
8
 73
4
 74
0
 40
0
 40
0
 40
0
 40
0
 40
1
 40
1
 40
1
 40
1
 10
200.568793
 20
210.182300
 30
0.0
 10
200.292651
 20
210.182300
 30
0.0
 10
200.068794
 20
209.958442
 30
0.0
 10
200.068794
 20
209.682300
 30
0.0
  0
SPLINE
  5
19a
100
AcDbEntity
  8
VISIBLE
 62
7
100
AcDbSpline
 70
8
 71
3
 72
8
 73
4
 74
0
 40
0
 40
0
 40
0
 40
0
 40
1
 40
1
 40
1
 40
1
 10
219.118794
 20
196.682299
 30
0.0
 10
219.118794
 20
196.406157
 30
0.0
 10
219.342651
 20
196.182300
 30
0.0
 10
219.618793
 20
196.182300
 30
0.0
  0
LWPOLYLINE
  5
19b
100
AcDbEntity
  8
VISIBLE
 62
7
100
AcDbPolyline
 90
2
 70
0
 10
200.568793
 20
210.182300
 30
0.0
 10
213.568794
 20
210.182300
 30
0.0
  0
SPLINE
  5
19c
100
AcDbEntity
  8
VISIBLE
 62
7
100
AcDbSpline
 70
8
 71
3
 72
8
 73
4
 74
0
 40
0
 40
0
 40
0
 40
0
 40
1
 40
1
 40
1
 40
1
 10
232.618794
 20
196.182300
 30
0.0
 10
232.894936
 20
196.182300
 30
0.0
 10
233.118793
 20
196.406157
 30
0.0
 10
233.118794
 20
196.682299
 30
0.0
  0
LWPOLYLINE
  5
19d
100
AcDbEntity
  8
VISIBLE
 62
7
100
AcDbPolyline
 90
2
 70
0
 10
219.618793
 20
196.182300
 30
0.0
 10
232.618794
 20
196.182300
 30
0.0
  0
SPLINE
  5
19e
100
AcDbEntity
  8
VISIBLE
 62
7
100
AcDbSpline
 70
8
 71
3
 72
8
 73
4
 74
0
 40
0
 40
0
 40
0
 40
0
 40
1
 40
1
 40
1
 40
1
 10
233.118794
 20
209.682300
 30
0.0
 10
233.118794
 20
209.814908
 30
0.0
 10
233.066115
 20
209.942085
 30
0.0
 10
232.972347
 20
210.035853
 30
0.0
  0
SPLINE
  5
19f
100
AcDbEntity
  8
VISIBLE
 62
7
100
AcDbSpline
 70
8
 71
3
 72
8
 73
4
 74
0
 40
0
 40
0
 40
0
 40
0
 40
1
 40
1
 40
1
 40
1
 10
232.972347
 20
210.035853
 30
0.0
 10
232.878579
 20
210.129621
 30
0.0
 10
232.751402
 20
210.182300
 30
0.0
 10
232.618794
 20
210.182300
 30
0.0
  0
LWPOLYLINE
  5
1a0
100
AcDbEntity
  8
VISIBLE
 62
7
100
AcDbPolyline
 90
2
 70
0
 10
233.118794
 20
209.682300
 30
0.0
 10
233.118794
 20
196.682299
 30
0.0
  0
SPLINE
  5
1a1
100
AcDbEntity
  8
VISIBLE
 62
7
100
AcDbSpline
 70
8
 71
3
 72
8
 73
4
 74
0
 40
0
 40
0
 40
0
 40
0
 40
1
 40
1
 40
1
 40
1
 10
219.618793
 20
210.182300
 30
0.0
 10
219.342651
 20
210.182300
 30
0.0
 10
219.118794
 20
209.958442
 30
0.0
 10
219.118794
 20
209.682300
 30
0.0
  0
SPLINE
  5
1a2
100
AcDbEntity
  8
VISIBLE
 62
7
100
AcDbSpline
 70
8
 71
3
 72
8
 73
4
 74
0
 40
0
 40
0
 40
0
 40
0
 40
1
 40
1
 40
1
 40
1
 10
238.168794
 20
196.682299
 30
0.0
 10
238.168794
 20
196.406157
 30
0.0
 10
238.392651
 20
196.182300
 30
0.0
 10
238.668793
 20
196.182300
 30
0.0
  0
LWPOLYLINE
  5
1a3
100
AcDbEntity
  8
VISIBLE
 62
7
100
AcDbPolyline
 90
2
 70
0
 10
219.618793
 20
210.182300
 30
0.0
 10
232.618794
 20
210.182300
 30
0.0
  0
SPLINE
  5
1a4
100
AcDbEntity
  8
VISIBLE
 62
7
100
AcDbSpline
 70
8
 71
3
 72
8
 73
4
 74
0
 40
0
 40
0
 40
0
 40
0
 40
1
 40
1
 40
1
 40
1
 10
251.668794
 20
196.182300
 30
0.0
 10
251.944936
 20
196.182300
 30
0.0
 10
252.168793
 20
196.406157
 30
0.0
 10
252.168794
 20
196.682299
 30
0.0
  0
LWPOLYLINE
  5
1a5
100
AcDbEntity
  8
VISIBLE
 62
7
100
AcDbPolyline
 90
2
 70
0
 10
238.668793
 20
196.182300
 30
0.0
 10
251.668794
 20
196.182300
 30
0.0
  0
SPLINE
  5
1a6
100
AcDbEntity
  8
VISIBLE
 62
7
100
AcDbSpline
 70
8
 71
3
 72
8
 73
4
 74
0
 40
0
 40
0
 40
0
 40
0
 40
1
 40
1
 40
1
 40
1
 10
252.168794
 20
209.682300
 30
0.0
 10
252.168794
 20
209.814908
 30
0.0
 10
252.116115
 20
209.942085
 30
0.0
 10
252.022347
 20
210.035853
 30
0.0
  0
SPLINE
  5
1a7
100
AcDbEntity
  8
VISIBLE
 62
7
100
AcDbSpline
 70
8
 71
3
 72
8
 73
4
 74
0
 40
0
 40
0
 40
0
 40
0
 40
1
 40
1
 40
1
 40
1
 10
252.022347
 20
210.035853
 30
0.0
 10
251.928579
 20
210.129621
 30
0.0
 10
251.801402
 20
210.182300
 30
0.0
 10
251.668794
 20
210.182300
 30
0.0
  0
LWPOLYLINE
  5
1a8
100
AcDbEntity
  8
VISIBLE
 62
7
100
AcDbPolyline
 90
2
 70
0
 10
252.168794
 20
209.682300
 30
0.0
 10
252.168794
 20
196.682299
 30
0.0
  0
SPLINE
  5
1a9
100
AcDbEntity
  8
VISIBLE
 62
7
100
AcDbSpline
 70
8
 71
3
 72
8
 73
4
 74
0
 40
0
 40
0
 40
0
 40
0
 40
1
 40
1
 40
1
 40
1
 10
238.668793
 20
210.182300
 30
0.0
 10
238.392651
 20
210.182300
 30
0.0
 10
238.168794
 20
209.958442
 30
0.0
 10
238.168794
 20
209.682300
 30
0.0
  0
SPLINE
  5
1aa
100
AcDbEntity
  8
VISIBLE
 62
7
100
AcDbSpline
 70
8
 71
3
 72
8
 73
4
 74
0
 40
0
 40
0
 40
0
 40
0
 40
1
 40
1
 40
1
 40
1
 10
257.218794
 20
196.682299
 30
0.0
 10
257.218794
 20
196.406157
 30
0.0
 10
257.442651
 20
196.182300
 30
0.0
 10
257.718793
 20
196.182300
 30
0.0
  0
LWPOLYLINE
  5
1ab
100
AcDbEntity
  8
VISIBLE
 62
7
100
AcDbPolyline
 90
2
 70
0
 10
238.668793
 20
210.182300
 30
0.0
 10
251.668794
 20
210.182300
 30
0.0
  0
SPLINE
  5
1ac
100
AcDbEntity
  8
VISIBLE
 62
7
100
AcDbSpline
 70
8
 71
3
 72
8
 73
4
 74
0
 40
0
 40
0
 40
0
 40
0
 40
1
 40
1
 40
1
 40
1
 10
270.718794
 20
196.182300
 30
0.0
 10
270.994936
 20
196.182300
 30
0.0
 10
271.218793
 20
196.406157
 30
0.0
 10
271.218794
 20
196.682299
 30
0.0
  0
LWPOLYLINE
  5
1ad
100
AcDbEntity
  8
VISIBLE
 62
7
100
AcDbPolyline
 90
2
 70
0
 10
257.718793
 20
196.182300
 30
0.0
 10
270.718794
 20
196.182300
 30
0.0
  0
SPLINE
  5
1ae
100
AcDbEntity
  8
VISIBLE
 62
7
100
AcDbSpline
 70
8
 71
3
 72
8
 73
4
 74
0
 40
0
 40
0
 40
0
 40
0
 40
1
 40
1
 40
1
 40
1
 10
271.218794
 20
209.682300
 30
0.0
 10
271.218794
 20
209.814908
 30
0.0
 10
271.166115
 20
209.942085
 30
0.0
 10
271.072347
 20
210.035853
 30
0.0
  0
SPLINE
  5
1af
100
AcDbEntity
  8
VISIBLE
 62
7
100
AcDbSpline
 70
8
 71
3
 72
8
 73
4
 74
0
 40
0
 40
0
 40
0
 40
0
 40
1
 40
1
 40
1
 40
1
 10
271.072347
 20
210.035853
 30
0.0
 10
270.978579
 20
210.129621
 30
0.0
 10
270.851402
 20
210.182300
 30
0.0
 10
270.718794
 20
210.182300
 30
0.0
  0
LWPOLYLINE
  5
1b0
100
AcDbEntity
  8
VISIBLE
 62
7
100
AcDbPolyline
 90
2
 70
0
 10
271.218794
 20
209.682300
 30
0.0
 10
271.218794
 20
196.682299
 30
0.0
  0
SPLINE
  5
1b1
100
AcDbEntity
  8
VISIBLE
 62
7
100
AcDbSpline
 70
8
 71
3
 72
8
 73
4
 74
0
 40
0
 40
0
 40
0
 40
0
 40
1
 40
1
 40
1
 40
1
 10
257.718793
 20
210.182300
 30
0.0
 10
257.442651
 20
210.182300
 30
0.0
 10
257.218794
 20
209.958442
 30
0.0
 10
257.218794
 20
209.682300
 30
0.0
  0
SPLINE
  5
1b2
100
AcDbEntity
  8
VISIBLE
 62
7
100
AcDbSpline
 70
8
 71
3
 72
8
 73
4
 74
0
 40
0
 40
0
 40
0
 40
0
 40
1
 40
1
 40
1
 40
1
 10
276.268794
 20
196.682299
 30
0.0
 10
276.268794
 20
196.406157
 30
0.0
 10
276.492651
 20
196.182300
 30
0.0
 10
276.768793
 20
196.182300
 30
0.0
  0
LWPOLYLINE
  5
1b3
100
AcDbEntity
  8
VISIBLE
 62
7
100
AcDbPolyline
 90
2
 70
0
 10
257.718793
 20
210.182300
 30
0.0
 10
270.718794
 20
210.182300
 30
0.0
  0
SPLINE
  5
1b4
100
AcDbEntity
  8
VISIBLE
 62
7
100
AcDbSpline
 70
8
 71
3
 72
8
 73
4
 74
0
 40
0
 40
0
 40
0
 40
0
 40
1
 40
1
 40
1
 40
1
 10
289.768794
 20
196.182300
 30
0.0
 10
290.044936
 20
196.182300
 30
0.0
 10
290.268793
 20
196.406157
 30
0.0
 10
290.268794
 20
196.682299
 30
0.0
  0
LWPOLYLINE
  5
1b5
100
AcDbEntity
  8
VISIBLE
 62
7
100
AcDbPolyline
 90
2
 70
0
 10
276.768793
 20
196.182300
 30
0.0
 10
289.768794
 20
196.182300
 30
0.0
  0
SPLINE
  5
1b6
100
AcDbEntity
  8
VISIBLE
 62
7
100
AcDbSpline
 70
8
 71
3
 72
8
 73
4
 74
0
 40
0
 40
0
 40
0
 40
0
 40
1
 40
1
 40
1
 40
1
 10
290.268794
 20
209.682300
 30
0.0
 10
290.268794
 20
209.814908
 30
0.0
 10
290.216115
 20
209.942085
 30
0.0
 10
290.122347
 20
210.035853
 30
0.0
  0
SPLINE
  5
1b7
100
AcDbEntity
  8
VISIBLE
 62
7
100
AcDbSpline
 70
8
 71
3
 72
8
 73
4
 74
0
 40
0
 40
0
 40
0
 40
0
 40
1
 40
1
 40
1
 40
1
 10
290.122347
 20
210.035853
 30
0.0
 10
290.028579
 20
210.129621
 30
0.0
 10
289.901402
 20
210.182300
 30
0.0
 10
289.768794
 20
210.182300
 30
0.0
  0
LWPOLYLINE
  5
1b8
100
AcDbEntity
  8
VISIBLE
 62
7
100
AcDbPolyline
 90
2
 70
0
 10
290.268794
 20
209.682300
 30
0.0
 10
290.268794
 20
196.682299
 30
0.0
  0
SPLINE
  5
1b9
100
AcDbEntity
  8
VISIBLE
 62
7
100
AcDbSpline
 70
8
 71
3
 72
8
 73
4
 74
0
 40
0
 40
0
 40
0
 40
0
 40
1
 40
1
 40
1
 40
1
 10
276.768793
 20
210.182300
 30
0.0
 10
276.492651
 20
210.182300
 30
0.0
 10
276.268794
 20
209.958442
 30
0.0
 10
276.268794
 20
209.682300
 30
0.0
  0
SPLINE
  5
1ba
100
AcDbEntity
  8
VISIBLE
 62
7
100
AcDbSpline
 70
8
 71
3
 72
8
 73
4
 74
0
 40
0
 40
0
 40
0
 40
0
 40
1
 40
1
 40
1
 40
1
 10
295.318794
 20
196.682299
 30
0.0
 10
295.318794
 20
196.406157
 30
0.0
 10
295.542651
 20
196.182300
 30
0.0
 10
295.818793
 20
196.182300
 30
0.0
  0
LWPOLYLINE
  5
1bb
100
AcDbEntity
  8
VISIBLE
 62
7
100
AcDbPolyline
 90
2
 70
0
 10
276.768793
 20
210.182300
 30
0.0
 10
289.768794
 20
210.182300
 30
0.0
  0
SPLINE
  5
1bc
100
AcDbEntity
  8
VISIBLE
 62
7
100
AcDbSpline
 70
8
 71
3
 72
8
 73
4
 74
0
 40
0
 40
0
 40
0
 40
0
 40
1
 40
1
 40
1
 40
1
 10
308.818794
 20
196.182300
 30
0.0
 10
309.094936
 20
196.182300
 30
0.0
 10
309.318793
 20
196.406157
 30
0.0
 10
309.318794
 20
196.682299
 30
0.0
  0
LWPOLYLINE
  5
1bd
100
AcDbEntity
  8
VISIBLE
 62
7
100
AcDbPolyline
 90
2
 70
0
 10
295.818793
 20
196.182300
 30
0.0
 10
308.818794
 20
196.182300
 30
0.0
  0
SPLINE
  5
1be
100
AcDbEntity
  8
VISIBLE
 62
7
100
AcDbSpline
 70
8
 71
3
 72
8
 73
4
 74
0
 40
0
 40
0
 40
0
 40
0
 40
1
 40
1
 40
1
 40
1
 10
309.318794
 20
209.682300
 30
0.0
 10
309.318794
 20
209.814908
 30
0.0
 10
309.266115
 20
209.942085
 30
0.0
 10
309.172347
 20
210.035853
 30
0.0
  0
SPLINE
  5
1bf
100
AcDbEntity
  8
VISIBLE
 62
7
100
AcDbSpline
 70
8
 71
3
 72
8
 73
4
 74
0
 40
0
 40
0
 40
0
 40
0
 40
1
 40
1
 40
1
 40
1
 10
309.172347
 20
210.035853
 30
0.0
 10
309.078579
 20
210.129621
 30
0.0
 10
308.951402
 20
210.182300
 30
0.0
 10
308.818794
 20
210.182300
 30
0.0
  0
LWPOLYLINE
  5
1c0
100
AcDbEntity
  8
VISIBLE
 62
7
100
AcDbPolyline
 90
2
 70
0
 10
309.318794
 20
209.682300
 30
0.0
 10
309.318794
 20
196.682299
 30
0.0
  0
SPLINE
  5
1c1
100
AcDbEntity
  8
VISIBLE
 62
7
100
AcDbSpline
 70
8
 71
3
 72
8
 73
4
 74
0
 40
0
 40
0
 40
0
 40
0
 40
1
 40
1
 40
1
 40
1
 10
295.818793
 20
210.182300
 30
0.0
 10
295.542651
 20
210.182300
 30
0.0
 10
295.318794
 20
209.958442
 30
0.0
 10
295.318794
 20
209.682300
 30
0.0
  0
SPLINE
  5
1c2
100
AcDbEntity
  8
VISIBLE
 62
7
100
AcDbSpline
 70
8
 71
3
 72
8
 73
4
 74
0
 40
0
 40
0
 40
0
 40
0
 40
1
 40
1
 40
1
 40
1
 10
339.331793
 20
194.682299
 30
0.0
 10
339.331794
 20
194.406157
 30
0.0
 10
339.555651
 20
194.182300
 30
0.0
 10
339.831794
 20
194.182300
 30
0.0
  0
LWPOLYLINE
  5
1c3
100
AcDbEntity
  8
VISIBLE
 62
7
100
AcDbPolyline
 90
2
 70
0
 10
295.818793
 20
210.182300
 30
0.0
 10
308.818794
 20
210.182300
 30
0.0
  0
SPLINE
  5
1c4
100
AcDbEntity
  8
VISIBLE
 62
7
100
AcDbSpline
 70
8
 71
3
 72
8
 73
4
 74
0
 40
0
 40
0
 40
0
 40
0
 40
1
 40
1
 40
1
 40
1
 10
345.831793
 20
194.182300
 30
0.0
 10
346.107936
 20
194.182300
 30
0.0
 10
346.331793
 20
194.406157
 30
0.0
 10
346.331793
 20
194.682299
 30
0.0
  0
LWPOLYLINE
  5
1c5
100
AcDbEntity
  8
VISIBLE
 62
7
100
AcDbPolyline
 90
2
 70
0
 10
339.831794
 20
194.182300
 30
0.0
 10
345.831793
 20
194.182300
 30
0.0
  0
LWPOLYLINE
  5
1c6
100
AcDbEntity
  8
VISIBLE
 62
7
100
AcDbPolyline
 90
2
 70
0
 10
346.331793
 20
195.682300
 30
0.0
 10
346.331793
 20
194.682299
 30
0.0
  0
SPLINE
  5
1c7
100
AcDbEntity
  8
VISIBLE
 62
7
100
AcDbSpline
 70
8
 71
3
 72
8
 73
4
 74
0
 40
0
 40
0
 40
0
 40
0
 40
1
 40
1
 40
1
 40
1
 10
346.918794
 20
196.182300
 30
0.0
 10
347.194936
 20
196.182300
 30
0.0
 10
347.418793
 20
196.406157
 30
0.0
 10
347.418794
 20
196.682299
 30
0.0
  0
LWPOLYLINE
  5
1c8
100
AcDbEntity
  8
VISIBLE
 62
7
100
AcDbPolyline
 90
2
 70
0
 10
346.831794
 20
196.182300
 30
0.0
 10
346.918794
 20
196.182300
 30
0.0
  0
SPLINE
  5
1c9
100
AcDbEntity
  8
VISIBLE
 62
7
100
AcDbSpline
 70
8
 71
3
 72
8
 73
4
 74
0
 40
0
 40
0
 40
0
 40
0
 40
1
 40
1
 40
1
 40
1
 10
347.418794
 20
209.682300
 30
0.0
 10
347.418794
 20
209.814908
 30
0.0
 10
347.366115
 20
209.942085
 30
0.0
 10
347.272347
 20
210.035853
 30
0.0
  0
SPLINE
  5
1ca
100
AcDbEntity
  8
VISIBLE
 62
7
100
AcDbSpline
 70
8
 71
3
 72
8
 73
4
 74
0
 40
0
 40
0
 40
0
 40
0
 40
1
 40
1
 40
1
 40
1
 10
347.272347
 20
210.035853
 30
0.0
 10
347.178579
 20
210.129621
 30
0.0
 10
347.051402
 20
210.182300
 30
0.0
 10
346.918794
 20
210.182300
 30
0.0
  0
LWPOLYLINE
  5
1cb
100
AcDbEntity
  8
VISIBLE
 62
7
100
AcDbPolyline
 90
2
 70
0
 10
347.418794
 20
209.682300
 30
0.0
 10
347.418794
 20
196.682299
 30
0.0
  0
SPLINE
  5
1cc
100
AcDbEntity
  8
VISIBLE
 62
7
100
AcDbSpline
 70
8
 71
3
 72
8
 73
4
 74
0
 40
0
 40
0
 40
0
 40
0
 40
1
 40
1
 40
1
 40
1
 10
314.868793
 20
210.182300
 30
0.0
 10
314.592651
 20
210.182300
 30
0.0
 10
314.368794
 20
209.958442
 30
0.0
 10
314.368794
 20
209.682300
 30
0.0
  0
LWPOLYLINE
  5
1cd
100
AcDbEntity
  8
VISIBLE
 62
7
100
AcDbPolyline
 90
2
 70
0
 10
314.868793
 20
210.182300
 30
0.0
 10
346.918794
 20
210.182300
 30
0.0
  0
SPLINE
  5
1ce
100
AcDbEntity
  8
VISIBLE
 62
7
100
AcDbSpline
 70
8
 71
3
 72
8
 73
4
 74
0
 40
0
 40
0
 40
0
 40
0
 40
1
 40
1
 40
1
 40
1
 10
314.368794
 20
196.682299
 30
0.0
 10
314.368794
 20
196.406157
 30
0.0
 10
314.592651
 20
196.182300
 30
0.0
 10
314.868793
 20
196.182300
 30
0.0
  0
LWPOLYLINE
  5
1cf
100
AcDbEntity
  8
VISIBLE
 62
7
100
AcDbPolyline
 90
2
 70
0
 10
314.368794
 20
209.682300
 30
0.0
 10
314.368794
 20
196.682299
 30
0.0
  0
LWPOLYLINE
  5
1d0
100
AcDbEntity
  8
VISIBLE
 62
7
100
AcDbPolyline
 90
2
 70
0
 10
314.868793
 20
196.182300
 30
0.0
 10
314.955793
 20
196.182300
 30
0.0
  0
SPLINE
  5
1d1
100
AcDbEntity
  8
VISIBLE
 62
7
100
AcDbSpline
 70
8
 71
3
 72
8
 73
4
 74
0
 40
0
 40
0
 40
0
 40
0
 40
1
 40
1
 40
1
 40
1
 10
315.455793
 20
194.682299
 30
0.0
 10
315.455794
 20
194.406157
 30
0.0
 10
315.679651
 20
194.182300
 30
0.0
 10
315.955794
 20
194.182300
 30
0.0
  0
LWPOLYLINE
  5
1d2
100
AcDbEntity
  8
VISIBLE
 62
7
100
AcDbPolyline
 90
2
 70
0
 10
315.455793
 20
195.682300
 30
0.0
 10
315.455793
 20
194.682299
 30
0.0
  0
SPLINE
  5
1d3
100
AcDbEntity
  8
VISIBLE
 62
7
100
AcDbSpline
 70
8
 71
3
 72
8
 73
4
 74
0
 40
0
 40
0
 40
0
 40
0
 40
1
 40
1
 40
1
 40
1
 10
321.955793
 20
194.182300
 30
0.0
 10
322.231936
 20
194.182300
 30
0.0
 10
322.455793
 20
194.406157
 30
0.0
 10
322.455793
 20
194.682299
 30
0.0
  0
LWPOLYLINE
  5
1d4
100
AcDbEntity
  8
VISIBLE
 62
7
100
AcDbPolyline
 90
2
 70
0
 10
315.955794
 20
194.182300
 30
0.0
 10
321.955793
 20
194.182300
 30
0.0
  0
LWPOLYLINE
  5
1d5
100
AcDbEntity
  8
VISIBLE
 62
7
100
AcDbPolyline
 90
2
 70
0
 10
322.455793
 20
195.682300
 30
0.0
 10
322.455793
 20
194.682299
 30
0.0
  0
SPLINE
  5
1d6
100
AcDbEntity
  8
VISIBLE
 62
7
100
AcDbSpline
 70
8
 71
3
 72
8
 73
4
 74
0
 40
0
 40
0
 40
0
 40
0
 40
1
 40
1
 40
1
 40
1
 10
352.468794
 20
196.682299
 30
0.0
 10
352.468794
 20
196.406157
 30
0.0
 10
352.692651
 20
196.182300
 30
0.0
 10
352.968793
 20
196.182300
 30
0.0
  0
LWPOLYLINE
  5
1d7
100
AcDbEntity
  8
VISIBLE
 62
7
100
AcDbPolyline
 90
2
 70
0
 10
322.955794
 20
196.182300
 30
0.0
 10
338.831793
 20
196.182300
 30
0.0
  0
SPLINE
  5
1d8
100
AcDbEntity
  8
VISIBLE
 62
7
100
AcDbSpline
 70
8
 71
3
 72
8
 73
4
 74
0
 40
0
 40
0
 40
0
 40
0
 40
1
 40
1
 40
1
 40
1
 10
365.968794
 20
196.182300
 30
0.0
 10
366.244936
 20
196.182300
 30
0.0
 10
366.468793
 20
196.406157
 30
0.0
 10
366.468794
 20
196.682299
 30
0.0
  0
LWPOLYLINE
  5
1d9
100
AcDbEntity
  8
VISIBLE
 62
7
100
AcDbPolyline
 90
2
 70
0
 10
352.968793
 20
196.182300
 30
0.0
 10
365.968794
 20
196.182300
 30
0.0
  0
SPLINE
  5
1da
100
AcDbEntity
  8
VISIBLE
 62
7
100
AcDbSpline
 70
8
 71
3
 72
8
 73
4
 74
0
 40
0
 40
0
 40
0
 40
0
 40
1
 40
1
 40
1
 40
1
 10
366.468794
 20
209.682300
 30
0.0
 10
366.468794
 20
209.814908
 30
0.0
 10
366.416115
 20
209.942085
 30
0.0
 10
366.322347
 20
210.035853
 30
0.0
  0
SPLINE
  5
1db
100
AcDbEntity
  8
VISIBLE
 62
7
100
AcDbSpline
 70
8
 71
3
 72
8
 73
4
 74
0
 40
0
 40
0
 40
0
 40
0
 40
1
 40
1
 40
1
 40
1
 10
366.322347
 20
210.035853
 30
0.0
 10
366.228579
 20
210.129621
 30
0.0
 10
366.101402
 20
210.182300
 30
0.0
 10
365.968794
 20
210.182300
 30
0.0
  0
LWPOLYLINE
  5
1dc
100
AcDbEntity
  8
VISIBLE
 62
7
100
AcDbPolyline
 90
2
 70
0
 10
366.468794
 20
209.682300
 30
0.0
 10
366.468794
 20
196.682299
 30
0.0
  0
SPLINE
  5
1dd
100
AcDbEntity
  8
VISIBLE
 62
7
100
AcDbSpline
 70
8
 71
3
 72
8
 73
4
 74
0
 40
0
 40
0
 40
0
 40
0
 40
1
 40
1
 40
1
 40
1
 10
352.968793
 20
210.182300
 30
0.0
 10
352.692651
 20
210.182300
 30
0.0
 10
352.468794
 20
209.958442
 30
0.0
 10
352.468794
 20
209.682300
 30
0.0
  0
SPLINE
  5
1de
100
AcDbEntity
  8
VISIBLE
 62
7
100
AcDbSpline
 70
8
 71
3
 72
8
 73
4
 74
0
 40
0
 40
0
 40
0
 40
0
 40
1
 40
1
 40
1
 40
1
 10
71.481294
 20
177.632299
 30
0.0
 10
71.481294
 20
177.356157
 30
0.0
 10
71.705151
 20
177.132300
 30
0.0
 10
71.981293
 20
177.132300
 30
0.0
  0
LWPOLYLINE
  5
1df
100
AcDbEntity
  8
VISIBLE
 62
7
100
AcDbPolyline
 90
2
 70
0
 10
352.968793
 20
210.182300
 30
0.0
 10
365.968794
 20
210.182300
 30
0.0
  0
SPLINE
  5
1e0
100
AcDbEntity
  8
VISIBLE
 62
7
100
AcDbSpline
 70
8
 71
3
 72
8
 73
4
 74
0
 40
0
 40
0
 40
0
 40
0
 40
1
 40
1
 40
1
 40
1
 10
84.981294
 20
177.132300
 30
0.0
 10
85.257436
 20
177.132300
 30
0.0
 10
85.481293
 20
177.356157
 30
0.0
 10
85.481294
 20
177.632299
 30
0.0
  0
LWPOLYLINE
  5
1e1
100
AcDbEntity
  8
VISIBLE
 62
7
100
AcDbPolyline
 90
2
 70
0
 10
71.981293
 20
177.132300
 30
0.0
 10
84.981294
 20
177.132300
 30
0.0
  0
SPLINE
  5
1e2
100
AcDbEntity
  8
VISIBLE
 62
7
100
AcDbSpline
 70
8
 71
3
 72
8
 73
4
 74
0
 40
0
 40
0
 40
0
 40
0
 40
1
 40
1
 40
1
 40
1
 10
85.481294
 20
190.632300
 30
0.0
 10
85.481294
 20
190.764908
 30
0.0
 10
85.428615
 20
190.892085
 30
0.0
 10
85.334847
 20
190.985853
 30
0.0
  0
SPLINE
  5
1e3
100
AcDbEntity
  8
VISIBLE
 62
7
100
AcDbSpline
 70
8
 71
3
 72
8
 73
4
 74
0
 40
0
 40
0
 40
0
 40
0
 40
1
 40
1
 40
1
 40
1
 10
85.334847
 20
190.985853
 30
0.0
 10
85.241079
 20
191.079621
 30
0.0
 10
85.113902
 20
191.132300
 30
0.0
 10
84.981294
 20
191.132300
 30
0.0
  0
LWPOLYLINE
  5
1e4
100
AcDbEntity
  8
VISIBLE
 62
7
100
AcDbPolyline
 90
2
 70
0
 10
85.481294
 20
190.632300
 30
0.0
 10
85.481294
 20
177.632299
 30
0.0
  0
SPLINE
  5
1e5
100
AcDbEntity
  8
VISIBLE
 62
7
100
AcDbSpline
 70
8
 71
3
 72
8
 73
4
 74
0
 40
0
 40
0
 40
0
 40
0
 40
1
 40
1
 40
1
 40
1
 10
71.981293
 20
191.132300
 30
0.0
 10
71.705151
 20
191.132300
 30
0.0
 10
71.481294
 20
190.908442
 30
0.0
 10
71.481294
 20
190.632300
 30
0.0
  0
SPLINE
  5
1e6
100
AcDbEntity
  8
VISIBLE
 62
7
100
AcDbSpline
 70
8
 71
3
 72
8
 73
4
 74
0
 40
0
 40
0
 40
0
 40
0
 40
1
 40
1
 40
1
 40
1
 10
95.293794
 20
177.632299
 30
0.0
 10
95.293794
 20
177.356157
 30
0.0
 10
95.517651
 20
177.132300
 30
0.0
 10
95.793793
 20
177.132300
 30
0.0
  0
LWPOLYLINE
  5
1e7
100
AcDbEntity
  8
VISIBLE
 62
7
100
AcDbPolyline
 90
2
 70
0
 10
71.981293
 20
191.132300
 30
0.0
 10
84.981294
 20
191.132300
 30
0.0
  0
SPLINE
  5
1e8
100
AcDbEntity
  8
VISIBLE
 62
7
100
AcDbSpline
 70
8
 71
3
 72
8
 73
4
 74
0
 40
0
 40
0
 40
0
 40
0
 40
1
 40
1
 40
1
 40
1
 10
108.793794
 20
177.132300
 30
0.0
 10
109.069936
 20
177.132300
 30
0.0
 10
109.293793
 20
177.356157
 30
0.0
 10
109.293794
 20
177.632299
 30
0.0
  0
LWPOLYLINE
  5
1e9
100
AcDbEntity
  8
VISIBLE
 62
7
100
AcDbPolyline
 90
2
 70
0
 10
95.793793
 20
177.132300
 30
0.0
 10
108.793794
 20
177.132300
 30
0.0
  0
SPLINE
  5
1ea
100
AcDbEntity
  8
VISIBLE
 62
7
100
AcDbSpline
 70
8
 71
3
 72
8
 73
4
 74
0
 40
0
 40
0
 40
0
 40
0
 40
1
 40
1
 40
1
 40
1
 10
109.293794
 20
190.632300
 30
0.0
 10
109.293794
 20
190.764908
 30
0.0
 10
109.241115
 20
190.892085
 30
0.0
 10
109.147347
 20
190.985853
 30
0.0
  0
SPLINE
  5
1eb
100
AcDbEntity
  8
VISIBLE
 62
7
100
AcDbSpline
 70
8
 71
3
 72
8
 73
4
 74
0
 40
0
 40
0
 40
0
 40
0
 40
1
 40
1
 40
1
 40
1
 10
109.147347
 20
190.985853
 30
0.0
 10
109.053579
 20
191.079621
 30
0.0
 10
108.926402
 20
191.132300
 30
0.0
 10
108.793794
 20
191.132300
 30
0.0
  0
LWPOLYLINE
  5
1ec
100
AcDbEntity
  8
VISIBLE
 62
7
100
AcDbPolyline
 90
2
 70
0
 10
109.293794
 20
190.632300
 30
0.0
 10
109.293794
 20
177.632299
 30
0.0
  0
SPLINE
  5
1ed
100
AcDbEntity
  8
VISIBLE
 62
7
100
AcDbSpline
 70
8
 71
3
 72
8
 73
4
 74
0
 40
0
 40
0
 40
0
 40
0
 40
1
 40
1
 40
1
 40
1
 10
95.793793
 20
191.132300
 30
0.0
 10
95.517651
 20
191.132300
 30
0.0
 10
95.293794
 20
190.908442
 30
0.0
 10
95.293794
 20
190.632300
 30
0.0
  0
SPLINE
  5
1ee
100
AcDbEntity
  8
VISIBLE
 62
7
100
AcDbSpline
 70
8
 71
3
 72
8
 73
4
 74
0
 40
0
 40
0
 40
0
 40
0
 40
1
 40
1
 40
1
 40
1
 10
114.343794
 20
177.632299
 30
0.0
 10
114.343794
 20
177.356157
 30
0.0
 10
114.567651
 20
177.132300
 30
0.0
 10
114.843793
 20
177.132300
 30
0.0
  0
LWPOLYLINE
  5
1ef
100
AcDbEntity
  8
VISIBLE
 62
7
100
AcDbPolyline
 90
2
 70
0
 10
95.793793
 20
191.132300
 30
0.0
 10
108.793794
 20
191.132300
 30
0.0
  0
SPLINE
  5
1f0
100
AcDbEntity
  8
VISIBLE
 62
7
100
AcDbSpline
 70
8
 71
3
 72
8
 73
4
 74
0
 40
0
 40
0
 40
0
 40
0
 40
1
 40
1
 40
1
 40
1
 10
127.843794
 20
177.132300
 30
0.0
 10
128.119936
 20
177.132300
 30
0.0
 10
128.343793
 20
177.356157
 30
0.0
 10
128.343794
 20
177.632299
 30
0.0
  0
LWPOLYLINE
  5
1f1
100
AcDbEntity
  8
VISIBLE
 62
7
100
AcDbPolyline
 90
2
 70
0
 10
114.843793
 20
177.132300
 30
0.0
 10
127.843794
 20
177.132300
 30
0.0
  0
SPLINE
  5
1f2
100
AcDbEntity
  8
VISIBLE
 62
7
100
AcDbSpline
 70
8
 71
3
 72
8
 73
4
 74
0
 40
0
 40
0
 40
0
 40
0
 40
1
 40
1
 40
1
 40
1
 10
128.343794
 20
190.632300
 30
0.0
 10
128.343794
 20
190.764908
 30
0.0
 10
128.291115
 20
190.892085
 30
0.0
 10
128.197347
 20
190.985853
 30
0.0
  0
SPLINE
  5
1f3
100
AcDbEntity
  8
VISIBLE
 62
7
100
AcDbSpline
 70
8
 71
3
 72
8
 73
4
 74
0
 40
0
 40
0
 40
0
 40
0
 40
1
 40
1
 40
1
 40
1
 10
128.197347
 20
190.985853
 30
0.0
 10
128.103579
 20
191.079621
 30
0.0
 10
127.976402
 20
191.132300
 30
0.0
 10
127.843794
 20
191.132300
 30
0.0
  0
LWPOLYLINE
  5
1f4
100
AcDbEntity
  8
VISIBLE
 62
7
100
AcDbPolyline
 90
2
 70
0
 10
128.343794
 20
190.632300
 30
0.0
 10
128.343794
 20
177.632299
 30
0.0
  0
SPLINE
  5
1f5
100
AcDbEntity
  8
VISIBLE
 62
7
100
AcDbSpline
 70
8
 71
3
 72
8
 73
4
 74
0
 40
0
 40
0
 40
0
 40
0
 40
1
 40
1
 40
1
 40
1
 10
114.843793
 20
191.132300
 30
0.0
 10
114.567651
 20
191.132300
 30
0.0
 10
114.343794
 20
190.908442
 30
0.0
 10
114.343794
 20
190.632300
 30
0.0
  0
SPLINE
  5
1f6
100
AcDbEntity
  8
VISIBLE
 62
7
100
AcDbSpline
 70
8
 71
3
 72
8
 73
4
 74
0
 40
0
 40
0
 40
0
 40
0
 40
1
 40
1
 40
1
 40
1
 10
133.393794
 20
177.632299
 30
0.0
 10
133.393794
 20
177.356157
 30
0.0
 10
133.617651
 20
177.132300
 30
0.0
 10
133.893793
 20
177.132300
 30
0.0
  0
LWPOLYLINE
  5
1f7
100
AcDbEntity
  8
VISIBLE
 62
7
100
AcDbPolyline
 90
2
 70
0
 10
114.843793
 20
191.132300
 30
0.0
 10
127.843794
 20
191.132300
 30
0.0
  0
SPLINE
  5
1f8
100
AcDbEntity
  8
VISIBLE
 62
7
100
AcDbSpline
 70
8
 71
3
 72
8
 73
4
 74
0
 40
0
 40
0
 40
0
 40
0
 40
1
 40
1
 40
1
 40
1
 10
146.893794
 20
177.132300
 30
0.0
 10
147.169936
 20
177.132300
 30
0.0
 10
147.393793
 20
177.356157
 30
0.0
 10
147.393794
 20
177.632299
 30
0.0
  0
LWPOLYLINE
  5
1f9
100
AcDbEntity
  8
VISIBLE
 62
7
100
AcDbPolyline
 90
2
 70
0
 10
133.893793
 20
177.132300
 30
0.0
 10
146.893794
 20
177.132300
 30
0.0
  0
SPLINE
  5
1fa
100
AcDbEntity
  8
VISIBLE
 62
7
100
AcDbSpline
 70
8
 71
3
 72
8
 73
4
 74
0
 40
0
 40
0
 40
0
 40
0
 40
1
 40
1
 40
1
 40
1
 10
147.393794
 20
190.632300
 30
0.0
 10
147.393794
 20
190.764908
 30
0.0
 10
147.341115
 20
190.892085
 30
0.0
 10
147.247347
 20
190.985853
 30
0.0
  0
SPLINE
  5
1fb
100
AcDbEntity
  8
VISIBLE
 62
7
100
AcDbSpline
 70
8
 71
3
 72
8
 73
4
 74
0
 40
0
 40
0
 40
0
 40
0
 40
1
 40
1
 40
1
 40
1
 10
147.247347
 20
190.985853
 30
0.0
 10
147.153579
 20
191.079621
 30
0.0
 10
147.026402
 20
191.132300
 30
0.0
 10
146.893794
 20
191.132300
 30
0.0
  0
LWPOLYLINE
  5
1fc
100
AcDbEntity
  8
VISIBLE
 62
7
100
AcDbPolyline
 90
2
 70
0
 10
147.393794
 20
190.632300
 30
0.0
 10
147.393794
 20
177.632299
 30
0.0
  0
SPLINE
  5
1fd
100
AcDbEntity
  8
VISIBLE
 62
7
100
AcDbSpline
 70
8
 71
3
 72
8
 73
4
 74
0
 40
0
 40
0
 40
0
 40
0
 40
1
 40
1
 40
1
 40
1
 10
133.893793
 20
191.132300
 30
0.0
 10
133.617651
 20
191.132300
 30
0.0
 10
133.393794
 20
190.908442
 30
0.0
 10
133.393794
 20
190.632300
 30
0.0
  0
SPLINE
  5
1fe
100
AcDbEntity
  8
VISIBLE
 62
7
100
AcDbSpline
 70
8
 71
3
 72
8
 73
4
 74
0
 40
0
 40
0
 40
0
 40
0
 40
1
 40
1
 40
1
 40
1
 10
152.443794
 20
177.632299
 30
0.0
 10
152.443794
 20
177.356157
 30
0.0
 10
152.667651
 20
177.132300
 30
0.0
 10
152.943793
 20
177.132300
 30
0.0
  0
LWPOLYLINE
  5
1ff
100
AcDbEntity
  8
VISIBLE
 62
7
100
AcDbPolyline
 90
2
 70
0
 10
133.893793
 20
191.132300
 30
0.0
 10
146.893794
 20
191.132300
 30
0.0
  0
SPLINE
  5
200
100
AcDbEntity
  8
VISIBLE
 62
7
100
AcDbSpline
 70
8
 71
3
 72
8
 73
4
 74
0
 40
0
 40
0
 40
0
 40
0
 40
1
 40
1
 40
1
 40
1
 10
165.943794
 20
177.132300
 30
0.0
 10
166.219936
 20
177.132300
 30
0.0
 10
166.443793
 20
177.356157
 30
0.0
 10
166.443794
 20
177.632299
 30
0.0
  0
LWPOLYLINE
  5
201
100
AcDbEntity
  8
VISIBLE
 62
7
100
AcDbPolyline
 90
2
 70
0
 10
152.943793
 20
177.132300
 30
0.0
 10
165.943794
 20
177.132300
 30
0.0
  0
SPLINE
  5
202
100
AcDbEntity
  8
VISIBLE
 62
7
100
AcDbSpline
 70
8
 71
3
 72
8
 73
4
 74
0
 40
0
 40
0
 40
0
 40
0
 40
1
 40
1
 40
1
 40
1
 10
166.443794
 20
190.632300
 30
0.0
 10
166.443794
 20
190.764908
 30
0.0
 10
166.391115
 20
190.892085
 30
0.0
 10
166.297347
 20
190.985853
 30
0.0
  0
SPLINE
  5
203
100
AcDbEntity
  8
VISIBLE
 62
7
100
AcDbSpline
 70
8
 71
3
 72
8
 73
4
 74
0
 40
0
 40
0
 40
0
 40
0
 40
1
 40
1
 40
1
 40
1
 10
166.297347
 20
190.985853
 30
0.0
 10
166.203579
 20
191.079621
 30
0.0
 10
166.076402
 20
191.132300
 30
0.0
 10
165.943794
 20
191.132300
 30
0.0
  0
LWPOLYLINE
  5
204
100
AcDbEntity
  8
VISIBLE
 62
7
100
AcDbPolyline
 90
2
 70
0
 10
166.443794
 20
190.632300
 30
0.0
 10
166.443794
 20
177.632299
 30
0.0
  0
SPLINE
  5
205
100
AcDbEntity
  8
VISIBLE
 62
7
100
AcDbSpline
 70
8
 71
3
 72
8
 73
4
 74
0
 40
0
 40
0
 40
0
 40
0
 40
1
 40
1
 40
1
 40
1
 10
152.943793
 20
191.132300
 30
0.0
 10
152.667651
 20
191.132300
 30
0.0
 10
152.443794
 20
190.908442
 30
0.0
 10
152.443794
 20
190.632300
 30
0.0
  0
SPLINE
  5
206
100
AcDbEntity
  8
VISIBLE
 62
7
100
AcDbSpline
 70
8
 71
3
 72
8
 73
4
 74
0
 40
0
 40
0
 40
0
 40
0
 40
1
 40
1
 40
1
 40
1
 10
171.493794
 20
177.632299
 30
0.0
 10
171.493794
 20
177.356157
 30
0.0
 10
171.717651
 20
177.132300
 30
0.0
 10
171.993793
 20
177.132300
 30
0.0
  0
LWPOLYLINE
  5
207
100
AcDbEntity
  8
VISIBLE
 62
7
100
AcDbPolyline
 90
2
 70
0
 10
152.943793
 20
191.132300
 30
0.0
 10
165.943794
 20
191.132300
 30
0.0
  0
SPLINE
  5
208
100
AcDbEntity
  8
VISIBLE
 62
7
100
AcDbSpline
 70
8
 71
3
 72
8
 73
4
 74
0
 40
0
 40
0
 40
0
 40
0
 40
1
 40
1
 40
1
 40
1
 10
184.993794
 20
177.132300
 30
0.0
 10
185.269936
 20
177.132300
 30
0.0
 10
185.493793
 20
177.356157
 30
0.0
 10
185.493794
 20
177.632299
 30
0.0
  0
LWPOLYLINE
  5
209
100
AcDbEntity
  8
VISIBLE
 62
7
100
AcDbPolyline
 90
2
 70
0
 10
171.993793
 20
177.132300
 30
0.0
 10
184.993794
 20
177.132300
 30
0.0
  0
SPLINE
  5
20a
100
AcDbEntity
  8
VISIBLE
 62
7
100
AcDbSpline
 70
8
 71
3
 72
8
 73
4
 74
0
 40
0
 40
0
 40
0
 40
0
 40
1
 40
1
 40
1
 40
1
 10
185.493794
 20
190.632300
 30
0.0
 10
185.493794
 20
190.764908
 30
0.0
 10
185.441115
 20
190.892085
 30
0.0
 10
185.347347
 20
190.985853
 30
0.0
  0
SPLINE
  5
20b
100
AcDbEntity
  8
VISIBLE
 62
7
100
AcDbSpline
 70
8
 71
3
 72
8
 73
4
 74
0
 40
0
 40
0
 40
0
 40
0
 40
1
 40
1
 40
1
 40
1
 10
185.347347
 20
190.985853
 30
0.0
 10
185.253579
 20
191.079621
 30
0.0
 10
185.126402
 20
191.132300
 30
0.0
 10
184.993794
 20
191.132300
 30
0.0
  0
LWPOLYLINE
  5
20c
100
AcDbEntity
  8
VISIBLE
 62
7
100
AcDbPolyline
 90
2
 70
0
 10
185.493794
 20
190.632300
 30
0.0
 10
185.493794
 20
177.632299
 30
0.0
  0
SPLINE
  5
20d
100
AcDbEntity
  8
VISIBLE
 62
7
100
AcDbSpline
 70
8
 71
3
 72
8
 73
4
 74
0
 40
0
 40
0
 40
0
 40
0
 40
1
 40
1
 40
1
 40
1
 10
171.993793
 20
191.132300
 30
0.0
 10
171.717651
 20
191.132300
 30
0.0
 10
171.493794
 20
190.908442
 30
0.0
 10
171.493794
 20
190.632300
 30
0.0
  0
SPLINE
  5
20e
100
AcDbEntity
  8
VISIBLE
 62
7
100
AcDbSpline
 70
8
 71
3
 72
8
 73
4
 74
0
 40
0
 40
0
 40
0
 40
0
 40
1
 40
1
 40
1
 40
1
 10
190.543794
 20
177.632299
 30
0.0
 10
190.543794
 20
177.356157
 30
0.0
 10
190.767651
 20
177.132300
 30
0.0
 10
191.043793
 20
177.132300
 30
0.0
  0
LWPOLYLINE
  5
20f
100
AcDbEntity
  8
VISIBLE
 62
7
100
AcDbPolyline
 90
2
 70
0
 10
171.993793
 20
191.132300
 30
0.0
 10
184.993794
 20
191.132300
 30
0.0
  0
SPLINE
  5
210
100
AcDbEntity
  8
VISIBLE
 62
7
100
AcDbSpline
 70
8
 71
3
 72
8
 73
4
 74
0
 40
0
 40
0
 40
0
 40
0
 40
1
 40
1
 40
1
 40
1
 10
204.043794
 20
177.132300
 30
0.0
 10
204.319936
 20
177.132300
 30
0.0
 10
204.543793
 20
177.356157
 30
0.0
 10
204.543794
 20
177.632299
 30
0.0
  0
LWPOLYLINE
  5
211
100
AcDbEntity
  8
VISIBLE
 62
7
100
AcDbPolyline
 90
2
 70
0
 10
191.043793
 20
177.132300
 30
0.0
 10
204.043794
 20
177.132300
 30
0.0
  0
SPLINE
  5
212
100
AcDbEntity
  8
VISIBLE
 62
7
100
AcDbSpline
 70
8
 71
3
 72
8
 73
4
 74
0
 40
0
 40
0
 40
0
 40
0
 40
1
 40
1
 40
1
 40
1
 10
204.543794
 20
190.632300
 30
0.0
 10
204.543794
 20
190.764908
 30
0.0
 10
204.491115
 20
190.892085
 30
0.0
 10
204.397347
 20
190.985853
 30
0.0
  0
SPLINE
  5
213
100
AcDbEntity
  8
VISIBLE
 62
7
100
AcDbSpline
 70
8
 71
3
 72
8
 73
4
 74
0
 40
0
 40
0
 40
0
 40
0
 40
1
 40
1
 40
1
 40
1
 10
204.397347
 20
190.985853
 30
0.0
 10
204.303579
 20
191.079621
 30
0.0
 10
204.176402
 20
191.132300
 30
0.0
 10
204.043794
 20
191.132300
 30
0.0
  0
LWPOLYLINE
  5
214
100
AcDbEntity
  8
VISIBLE
 62
7
100
AcDbPolyline
 90
2
 70
0
 10
204.543794
 20
190.632300
 30
0.0
 10
204.543794
 20
177.632299
 30
0.0
  0
SPLINE
  5
215
100
AcDbEntity
  8
VISIBLE
 62
7
100
AcDbSpline
 70
8
 71
3
 72
8
 73
4
 74
0
 40
0
 40
0
 40
0
 40
0
 40
1
 40
1
 40
1
 40
1
 10
191.043793
 20
191.132300
 30
0.0
 10
190.767651
 20
191.132300
 30
0.0
 10
190.543794
 20
190.908442
 30
0.0
 10
190.543794
 20
190.632300
 30
0.0
  0
SPLINE
  5
216
100
AcDbEntity
  8
VISIBLE
 62
7
100
AcDbSpline
 70
8
 71
3
 72
8
 73
4
 74
0
 40
0
 40
0
 40
0
 40
0
 40
1
 40
1
 40
1
 40
1
 10
209.593794
 20
177.632299
 30
0.0
 10
209.593794
 20
177.356157
 30
0.0
 10
209.817651
 20
177.132300
 30
0.0
 10
210.093793
 20
177.132300
 30
0.0
  0
LWPOLYLINE
  5
217
100
AcDbEntity
  8
VISIBLE
 62
7
100
AcDbPolyline
 90
2
 70
0
 10
191.043793
 20
191.132300
 30
0.0
 10
204.043794
 20
191.132300
 30
0.0
  0
SPLINE
  5
218
100
AcDbEntity
  8
VISIBLE
 62
7
100
AcDbSpline
 70
8
 71
3
 72
8
 73
4
 74
0
 40
0
 40
0
 40
0
 40
0
 40
1
 40
1
 40
1
 40
1
 10
223.093794
 20
177.132300
 30
0.0
 10
223.369936
 20
177.132300
 30
0.0
 10
223.593793
 20
177.356157
 30
0.0
 10
223.593794
 20
177.632299
 30
0.0
  0
LWPOLYLINE
  5
219
100
AcDbEntity
  8
VISIBLE
 62
7
100
AcDbPolyline
 90
2
 70
0
 10
210.093793
 20
177.132300
 30
0.0
 10
223.093794
 20
177.132300
 30
0.0
  0
SPLINE
  5
21a
100
AcDbEntity
  8
VISIBLE
 62
7
100
AcDbSpline
 70
8
 71
3
 72
8
 73
4
 74
0
 40
0
 40
0
 40
0
 40
0
 40
1
 40
1
 40
1
 40
1
 10
223.593794
 20
190.632300
 30
0.0
 10
223.593794
 20
190.764908
 30
0.0
 10
223.541115
 20
190.892085
 30
0.0
 10
223.447347
 20
190.985853
 30
0.0
  0
SPLINE
  5
21b
100
AcDbEntity
  8
VISIBLE
 62
7
100
AcDbSpline
 70
8
 71
3
 72
8
 73
4
 74
0
 40
0
 40
0
 40
0
 40
0
 40
1
 40
1
 40
1
 40
1
 10
223.447347
 20
190.985853
 30
0.0
 10
223.353579
 20
191.079621
 30
0.0
 10
223.226402
 20
191.132300
 30
0.0
 10
223.093794
 20
191.132300
 30
0.0
  0
LWPOLYLINE
  5
21c
100
AcDbEntity
  8
VISIBLE
 62
7
100
AcDbPolyline
 90
2
 70
0
 10
223.593794
 20
190.632300
 30
0.0
 10
223.593794
 20
177.632299
 30
0.0
  0
SPLINE
  5
21d
100
AcDbEntity
  8
VISIBLE
 62
7
100
AcDbSpline
 70
8
 71
3
 72
8
 73
4
 74
0
 40
0
 40
0
 40
0
 40
0
 40
1
 40
1
 40
1
 40
1
 10
210.093793
 20
191.132300
 30
0.0
 10
209.817651
 20
191.132300
 30
0.0
 10
209.593794
 20
190.908442
 30
0.0
 10
209.593794
 20
190.632300
 30
0.0
  0
SPLINE
  5
21e
100
AcDbEntity
  8
VISIBLE
 62
7
100
AcDbSpline
 70
8
 71
3
 72
8
 73
4
 74
0
 40
0
 40
0
 40
0
 40
0
 40
1
 40
1
 40
1
 40
1
 10
228.643794
 20
177.632299
 30
0.0
 10
228.643794
 20
177.356157
 30
0.0
 10
228.867651
 20
177.132300
 30
0.0
 10
229.143793
 20
177.132300
 30
0.0
  0
LWPOLYLINE
  5
21f
100
AcDbEntity
  8
VISIBLE
 62
7
100
AcDbPolyline
 90
2
 70
0
 10
210.093793
 20
191.132300
 30
0.0
 10
223.093794
 20
191.132300
 30
0.0
  0
SPLINE
  5
220
100
AcDbEntity
  8
VISIBLE
 62
7
100
AcDbSpline
 70
8
 71
3
 72
8
 73
4
 74
0
 40
0
 40
0
 40
0
 40
0
 40
1
 40
1
 40
1
 40
1
 10
242.143794
 20
177.132300
 30
0.0
 10
242.419936
 20
177.132300
 30
0.0
 10
242.643793
 20
177.356157
 30
0.0
 10
242.643794
 20
177.632299
 30
0.0
  0
LWPOLYLINE
  5
221
100
AcDbEntity
  8
VISIBLE
 62
7
100
AcDbPolyline
 90
2
 70
0
 10
229.143793
 20
177.132300
 30
0.0
 10
242.143794
 20
177.132300
 30
0.0
  0
SPLINE
  5
222
100
AcDbEntity
  8
VISIBLE
 62
7
100
AcDbSpline
 70
8
 71
3
 72
8
 73
4
 74
0
 40
0
 40
0
 40
0
 40
0
 40
1
 40
1
 40
1
 40
1
 10
242.643794
 20
190.632300
 30
0.0
 10
242.643794
 20
190.764908
 30
0.0
 10
242.591115
 20
190.892085
 30
0.0
 10
242.497347
 20
190.985853
 30
0.0
  0
SPLINE
  5
223
100
AcDbEntity
  8
VISIBLE
 62
7
100
AcDbSpline
 70
8
 71
3
 72
8
 73
4
 74
0
 40
0
 40
0
 40
0
 40
0
 40
1
 40
1
 40
1
 40
1
 10
242.497347
 20
190.985853
 30
0.0
 10
242.403579
 20
191.079621
 30
0.0
 10
242.276402
 20
191.132300
 30
0.0
 10
242.143794
 20
191.132300
 30
0.0
  0
LWPOLYLINE
  5
224
100
AcDbEntity
  8
VISIBLE
 62
7
100
AcDbPolyline
 90
2
 70
0
 10
242.643794
 20
190.632300
 30
0.0
 10
242.643794
 20
177.632299
 30
0.0
  0
SPLINE
  5
225
100
AcDbEntity
  8
VISIBLE
 62
7
100
AcDbSpline
 70
8
 71
3
 72
8
 73
4
 74
0
 40
0
 40
0
 40
0
 40
0
 40
1
 40
1
 40
1
 40
1
 10
229.143793
 20
191.132300
 30
0.0
 10
228.867651
 20
191.132300
 30
0.0
 10
228.643794
 20
190.908442
 30
0.0
 10
228.643794
 20
190.632300
 30
0.0
  0
SPLINE
  5
226
100
AcDbEntity
  8
VISIBLE
 62
7
100
AcDbSpline
 70
8
 71
3
 72
8
 73
4
 74
0
 40
0
 40
0
 40
0
 40
0
 40
1
 40
1
 40
1
 40
1
 10
247.693794
 20
177.632299
 30
0.0
 10
247.693794
 20
177.356157
 30
0.0
 10
247.917651
 20
177.132300
 30
0.0
 10
248.193793
 20
177.132300
 30
0.0
  0
LWPOLYLINE
  5
227
100
AcDbEntity
  8
VISIBLE
 62
7
100
AcDbPolyline
 90
2
 70
0
 10
229.143793
 20
191.132300
 30
0.0
 10
242.143794
 20
191.132300
 30
0.0
  0
SPLINE
  5
228
100
AcDbEntity
  8
VISIBLE
 62
7
100
AcDbSpline
 70
8
 71
3
 72
8
 73
4
 74
0
 40
0
 40
0
 40
0
 40
0
 40
1
 40
1
 40
1
 40
1
 10
261.193794
 20
177.132300
 30
0.0
 10
261.469936
 20
177.132300
 30
0.0
 10
261.693793
 20
177.356157
 30
0.0
 10
261.693794
 20
177.632299
 30
0.0
  0
LWPOLYLINE
  5
229
100
AcDbEntity
  8
VISIBLE
 62
7
100
AcDbPolyline
 90
2
 70
0
 10
248.193793
 20
177.132300
 30
0.0
 10
261.193794
 20
177.132300
 30
0.0
  0
SPLINE
  5
22a
100
AcDbEntity
  8
VISIBLE
 62
7
100
AcDbSpline
 70
8
 71
3
 72
8
 73
4
 74
0
 40
0
 40
0
 40
0
 40
0
 40
1
 40
1
 40
1
 40
1
 10
261.693794
 20
190.632300
 30
0.0
 10
261.693794
 20
190.764908
 30
0.0
 10
261.641115
 20
190.892085
 30
0.0
 10
261.547347
 20
190.985853
 30
0.0
  0
SPLINE
  5
22b
100
AcDbEntity
  8
VISIBLE
 62
7
100
AcDbSpline
 70
8
 71
3
 72
8
 73
4
 74
0
 40
0
 40
0
 40
0
 40
0
 40
1
 40
1
 40
1
 40
1
 10
261.547347
 20
190.985853
 30
0.0
 10
261.453579
 20
191.079621
 30
0.0
 10
261.326402
 20
191.132300
 30
0.0
 10
261.193794
 20
191.132300
 30
0.0
  0
LWPOLYLINE
  5
22c
100
AcDbEntity
  8
VISIBLE
 62
7
100
AcDbPolyline
 90
2
 70
0
 10
261.693794
 20
190.632300
 30
0.0
 10
261.693794
 20
177.632299
 30
0.0
  0
SPLINE
  5
22d
100
AcDbEntity
  8
VISIBLE
 62
7
100
AcDbSpline
 70
8
 71
3
 72
8
 73
4
 74
0
 40
0
 40
0
 40
0
 40
0
 40
1
 40
1
 40
1
 40
1
 10
248.193793
 20
191.132300
 30
0.0
 10
247.917651
 20
191.132300
 30
0.0
 10
247.693794
 20
190.908442
 30
0.0
 10
247.693794
 20
190.632300
 30
0.0
  0
SPLINE
  5
22e
100
AcDbEntity
  8
VISIBLE
 62
7
100
AcDbSpline
 70
8
 71
3
 72
8
 73
4
 74
0
 40
0
 40
0
 40
0
 40
0
 40
1
 40
1
 40
1
 40
1
 10
266.743794
 20
177.632299
 30
0.0
 10
266.743794
 20
177.356157
 30
0.0
 10
266.967651
 20
177.132300
 30
0.0
 10
267.243793
 20
177.132300
 30
0.0
  0
LWPOLYLINE
  5
22f
100
AcDbEntity
  8
VISIBLE
 62
7
100
AcDbPolyline
 90
2
 70
0
 10
248.193793
 20
191.132300
 30
0.0
 10
261.193794
 20
191.132300
 30
0.0
  0
SPLINE
  5
230
100
AcDbEntity
  8
VISIBLE
 62
7
100
AcDbSpline
 70
8
 71
3
 72
8
 73
4
 74
0
 40
0
 40
0
 40
0
 40
0
 40
1
 40
1
 40
1
 40
1
 10
280.243794
 20
177.132300
 30
0.0
 10
280.519936
 20
177.132300
 30
0.0
 10
280.743793
 20
177.356157
 30
0.0
 10
280.743794
 20
177.632299
 30
0.0
  0
LWPOLYLINE
  5
231
100
AcDbEntity
  8
VISIBLE
 62
7
100
AcDbPolyline
 90
2
 70
0
 10
267.243793
 20
177.132300
 30
0.0
 10
280.243794
 20
177.132300
 30
0.0
  0
SPLINE
  5
232
100
AcDbEntity
  8
VISIBLE
 62
7
100
AcDbSpline
 70
8
 71
3
 72
8
 73
4
 74
0
 40
0
 40
0
 40
0
 40
0
 40
1
 40
1
 40
1
 40
1
 10
280.743794
 20
190.632300
 30
0.0
 10
280.743794
 20
190.764908
 30
0.0
 10
280.691115
 20
190.892085
 30
0.0
 10
280.597347
 20
190.985853
 30
0.0
  0
SPLINE
  5
233
100
AcDbEntity
  8
VISIBLE
 62
7
100
AcDbSpline
 70
8
 71
3
 72
8
 73
4
 74
0
 40
0
 40
0
 40
0
 40
0
 40
1
 40
1
 40
1
 40
1
 10
280.597347
 20
190.985853
 30
0.0
 10
280.503579
 20
191.079621
 30
0.0
 10
280.376402
 20
191.132300
 30
0.0
 10
280.243794
 20
191.132300
 30
0.0
  0
LWPOLYLINE
  5
234
100
AcDbEntity
  8
VISIBLE
 62
7
100
AcDbPolyline
 90
2
 70
0
 10
280.743794
 20
190.632300
 30
0.0
 10
280.743794
 20
177.632299
 30
0.0
  0
SPLINE
  5
235
100
AcDbEntity
  8
VISIBLE
 62
7
100
AcDbSpline
 70
8
 71
3
 72
8
 73
4
 74
0
 40
0
 40
0
 40
0
 40
0
 40
1
 40
1
 40
1
 40
1
 10
267.243793
 20
191.132300
 30
0.0
 10
266.967651
 20
191.132300
 30
0.0
 10
266.743794
 20
190.908442
 30
0.0
 10
266.743794
 20
190.632300
 30
0.0
  0
SPLINE
  5
236
100
AcDbEntity
  8
VISIBLE
 62
7
100
AcDbSpline
 70
8
 71
3
 72
8
 73
4
 74
0
 40
0
 40
0
 40
0
 40
0
 40
1
 40
1
 40
1
 40
1
 10
285.793794
 20
177.632299
 30
0.0
 10
285.793794
 20
177.356157
 30
0.0
 10
286.017651
 20
177.132300
 30
0.0
 10
286.293793
 20
177.132300
 30
0.0
  0
LWPOLYLINE
  5
237
100
AcDbEntity
  8
VISIBLE
 62
7
100
AcDbPolyline
 90
2
 70
0
 10
267.243793
 20
191.132300
 30
0.0
 10
280.243794
 20
191.132300
 30
0.0
  0
SPLINE
  5
238
100
AcDbEntity
  8
VISIBLE
 62
7
100
AcDbSpline
 70
8
 71
3
 72
8
 73
4
 74
0
 40
0
 40
0
 40
0
 40
0
 40
1
 40
1
 40
1
 40
1
 10
299.293794
 20
177.132300
 30
0.0
 10
299.569936
 20
177.132300
 30
0.0
 10
299.793793
 20
177.356157
 30
0.0
 10
299.793794
 20
177.632299
 30
0.0
  0
LWPOLYLINE
  5
239
100
AcDbEntity
  8
VISIBLE
 62
7
100
AcDbPolyline
 90
2
 70
0
 10
286.293793
 20
177.132300
 30
0.0
 10
299.293794
 20
177.132300
 30
0.0
  0
SPLINE
  5
23a
100
AcDbEntity
  8
VISIBLE
 62
7
100
AcDbSpline
 70
8
 71
3
 72
8
 73
4
 74
0
 40
0
 40
0
 40
0
 40
0
 40
1
 40
1
 40
1
 40
1
 10
299.793794
 20
190.632300
 30
0.0
 10
299.793794
 20
190.764908
 30
0.0
 10
299.741115
 20
190.892085
 30
0.0
 10
299.647347
 20
190.985853
 30
0.0
  0
SPLINE
  5
23b
100
AcDbEntity
  8
VISIBLE
 62
7
100
AcDbSpline
 70
8
 71
3
 72
8
 73
4
 74
0
 40
0
 40
0
 40
0
 40
0
 40
1
 40
1
 40
1
 40
1
 10
299.647347
 20
190.985853
 30
0.0
 10
299.553579
 20
191.079621
 30
0.0
 10
299.426402
 20
191.132300
 30
0.0
 10
299.293794
 20
191.132300
 30
0.0
  0
LWPOLYLINE
  5
23c
100
AcDbEntity
  8
VISIBLE
 62
7
100
AcDbPolyline
 90
2
 70
0
 10
299.793794
 20
190.632300
 30
0.0
 10
299.793794
 20
177.632299
 30
0.0
  0
SPLINE
  5
23d
100
AcDbEntity
  8
VISIBLE
 62
7
100
AcDbSpline
 70
8
 71
3
 72
8
 73
4
 74
0
 40
0
 40
0
 40
0
 40
0
 40
1
 40
1
 40
1
 40
1
 10
286.293793
 20
191.132300
 30
0.0
 10
286.017651
 20
191.132300
 30
0.0
 10
285.793794
 20
190.908442
 30
0.0
 10
285.793794
 20
190.632300
 30
0.0
  0
SPLINE
  5
23e
100
AcDbEntity
  8
VISIBLE
 62
7
100
AcDbSpline
 70
8
 71
3
 72
8
 73
4
 74
0
 40
0
 40
0
 40
0
 40
0
 40
1
 40
1
 40
1
 40
1
 10
304.843794
 20
177.632299
 30
0.0
 10
304.843794
 20
177.356157
 30
0.0
 10
305.067651
 20
177.132300
 30
0.0
 10
305.343793
 20
177.132300
 30
0.0
  0
LWPOLYLINE
  5
23f
100
AcDbEntity
  8
VISIBLE
 62
7
100
AcDbPolyline
 90
2
 70
0
 10
286.293793
 20
191.132300
 30
0.0
 10
299.293794
 20
191.132300
 30
0.0
  0
SPLINE
  5
240
100
AcDbEntity
  8
VISIBLE
 62
7
100
AcDbSpline
 70
8
 71
3
 72
8
 73
4
 74
0
 40
0
 40
0
 40
0
 40
0
 40
1
 40
1
 40
1
 40
1
 10
318.343794
 20
177.132300
 30
0.0
 10
318.619936
 20
177.132300
 30
0.0
 10
318.843793
 20
177.356157
 30
0.0
 10
318.843794
 20
177.632299
 30
0.0
  0
LWPOLYLINE
  5
241
100
AcDbEntity
  8
VISIBLE
 62
7
100
AcDbPolyline
 90
2
 70
0
 10
305.343793
 20
177.132300
 30
0.0
 10
318.343794
 20
177.132300
 30
0.0
  0
SPLINE
  5
242
100
AcDbEntity
  8
VISIBLE
 62
7
100
AcDbSpline
 70
8
 71
3
 72
8
 73
4
 74
0
 40
0
 40
0
 40
0
 40
0
 40
1
 40
1
 40
1
 40
1
 10
318.843794
 20
190.632300
 30
0.0
 10
318.843794
 20
190.764908
 30
0.0
 10
318.791115
 20
190.892085
 30
0.0
 10
318.697347
 20
190.985853
 30
0.0
  0
SPLINE
  5
243
100
AcDbEntity
  8
VISIBLE
 62
7
100
AcDbSpline
 70
8
 71
3
 72
8
 73
4
 74
0
 40
0
 40
0
 40
0
 40
0
 40
1
 40
1
 40
1
 40
1
 10
318.697347
 20
190.985853
 30
0.0
 10
318.603579
 20
191.079621
 30
0.0
 10
318.476402
 20
191.132300
 30
0.0
 10
318.343794
 20
191.132300
 30
0.0
  0
LWPOLYLINE
  5
244
100
AcDbEntity
  8
VISIBLE
 62
7
100
AcDbPolyline
 90
2
 70
0
 10
318.843794
 20
190.632300
 30
0.0
 10
318.843794
 20
177.632299
 30
0.0
  0
SPLINE
  5
245
100
AcDbEntity
  8
VISIBLE
 62
7
100
AcDbSpline
 70
8
 71
3
 72
8
 73
4
 74
0
 40
0
 40
0
 40
0
 40
0
 40
1
 40
1
 40
1
 40
1
 10
305.343793
 20
191.132300
 30
0.0
 10
305.067651
 20
191.132300
 30
0.0
 10
304.843794
 20
190.908442
 30
0.0
 10
304.843794
 20
190.632300
 30
0.0
  0
SPLINE
  5
246
100
AcDbEntity
  8
VISIBLE
 62
7
100
AcDbSpline
 70
8
 71
3
 72
8
 73
4
 74
0
 40
0
 40
0
 40
0
 40
0
 40
1
 40
1
 40
1
 40
1
 10
328.656294
 20
177.632299
 30
0.0
 10
328.656294
 20
177.356157
 30
0.0
 10
328.880151
 20
177.132300
 30
0.0
 10
329.156293
 20
177.132300
 30
0.0
  0
LWPOLYLINE
  5
247
100
AcDbEntity
  8
VISIBLE
 62
7
100
AcDbPolyline
 90
2
 70
0
 10
305.343793
 20
191.132300
 30
0.0
 10
318.343794
 20
191.132300
 30
0.0
  0
SPLINE
  5
248
100
AcDbEntity
  8
VISIBLE
 62
7
100
AcDbSpline
 70
8
 71
3
 72
8
 73
4
 74
0
 40
0
 40
0
 40
0
 40
0
 40
1
 40
1
 40
1
 40
1
 10
342.156294
 20
177.132300
 30
0.0
 10
342.432436
 20
177.132300
 30
0.0
 10
342.656293
 20
177.356157
 30
0.0
 10
342.656294
 20
177.632299
 30
0.0
  0
LWPOLYLINE
  5
249
100
AcDbEntity
  8
VISIBLE
 62
7
100
AcDbPolyline
 90
2
 70
0
 10
329.156293
 20
177.132300
 30
0.0
 10
342.156294
 20
177.132300
 30
0.0
  0
SPLINE
  5
24a
100
AcDbEntity
  8
VISIBLE
 62
7
100
AcDbSpline
 70
8
 71
3
 72
8
 73
4
 74
0
 40
0
 40
0
 40
0
 40
0
 40
1
 40
1
 40
1
 40
1
 10
342.656294
 20
190.632300
 30
0.0
 10
342.656294
 20
190.764908
 30
0.0
 10
342.603615
 20
190.892085
 30
0.0
 10
342.509847
 20
190.985853
 30
0.0
  0
SPLINE
  5
24b
100
AcDbEntity
  8
VISIBLE
 62
7
100
AcDbSpline
 70
8
 71
3
 72
8
 73
4
 74
0
 40
0
 40
0
 40
0
 40
0
 40
1
 40
1
 40
1
 40
1
 10
342.509847
 20
190.985853
 30
0.0
 10
342.416079
 20
191.079621
 30
0.0
 10
342.288902
 20
191.132300
 30
0.0
 10
342.156294
 20
191.132300
 30
0.0
  0
LWPOLYLINE
  5
24c
100
AcDbEntity
  8
VISIBLE
 62
7
100
AcDbPolyline
 90
2
 70
0
 10
342.656294
 20
190.632300
 30
0.0
 10
342.656294
 20
177.632299
 30
0.0
  0
SPLINE
  5
24d
100
AcDbEntity
  8
VISIBLE
 62
7
100
AcDbSpline
 70
8
 71
3
 72
8
 73
4
 74
0
 40
0
 40
0
 40
0
 40
0
 40
1
 40
1
 40
1
 40
1
 10
329.156293
 20
191.132300
 30
0.0
 10
328.880151
 20
191.132300
 30
0.0
 10
328.656294
 20
190.908442
 30
0.0
 10
328.656294
 20
190.632300
 30
0.0
  0
SPLINE
  5
24e
100
AcDbEntity
  8
VISIBLE
 62
7
100
AcDbSpline
 70
8
 71
3
 72
8
 73
4
 74
0
 40
0
 40
0
 40
0
 40
0
 40
1
 40
1
 40
1
 40
1
 10
352.468794
 20
177.632299
 30
0.0
 10
352.468794
 20
177.356157
 30
0.0
 10
352.692651
 20
177.132300
 30
0.0
 10
352.968793
 20
177.132300
 30
0.0
  0
LWPOLYLINE
  5
24f
100
AcDbEntity
  8
VISIBLE
 62
7
100
AcDbPolyline
 90
2
 70
0
 10
329.156293
 20
191.132300
 30
0.0
 10
342.156294
 20
191.132300
 30
0.0
  0
SPLINE
  5
250
100
AcDbEntity
  8
VISIBLE
 62
7
100
AcDbSpline
 70
8
 71
3
 72
8
 73
4
 74
0
 40
0
 40
0
 40
0
 40
0
 40
1
 40
1
 40
1
 40
1
 10
365.968794
 20
177.132300
 30
0.0
 10
366.244936
 20
177.132300
 30
0.0
 10
366.468793
 20
177.356157
 30
0.0
 10
366.468794
 20
177.632299
 30
0.0
  0
LWPOLYLINE
  5
251
100
AcDbEntity
  8
VISIBLE
 62
7
100
AcDbPolyline
 90
2
 70
0
 10
352.968793
 20
177.132300
 30
0.0
 10
365.968794
 20
177.132300
 30
0.0
  0
SPLINE
  5
252
100
AcDbEntity
  8
VISIBLE
 62
7
100
AcDbSpline
 70
8
 71
3
 72
8
 73
4
 74
0
 40
0
 40
0
 40
0
 40
0
 40
1
 40
1
 40
1
 40
1
 10
366.468794
 20
190.632300
 30
0.0
 10
366.468794
 20
190.764908
 30
0.0
 10
366.416115
 20
190.892085
 30
0.0
 10
366.322347
 20
190.985853
 30
0.0
  0
SPLINE
  5
253
100
AcDbEntity
  8
VISIBLE
 62
7
100
AcDbSpline
 70
8
 71
3
 72
8
 73
4
 74
0
 40
0
 40
0
 40
0
 40
0
 40
1
 40
1
 40
1
 40
1
 10
366.322347
 20
190.985853
 30
0.0
 10
366.228579
 20
191.079621
 30
0.0
 10
366.101402
 20
191.132300
 30
0.0
 10
365.968794
 20
191.132300
 30
0.0
  0
LWPOLYLINE
  5
254
100
AcDbEntity
  8
VISIBLE
 62
7
100
AcDbPolyline
 90
2
 70
0
 10
366.468794
 20
190.632300
 30
0.0
 10
366.468794
 20
177.632299
 30
0.0
  0
SPLINE
  5
255
100
AcDbEntity
  8
VISIBLE
 62
7
100
AcDbSpline
 70
8
 71
3
 72
8
 73
4
 74
0
 40
0
 40
0
 40
0
 40
0
 40
1
 40
1
 40
1
 40
1
 10
352.968793
 20
191.132300
 30
0.0
 10
352.692651
 20
191.132300
 30
0.0
 10
352.468794
 20
190.908442
 30
0.0
 10
352.468794
 20
190.632300
 30
0.0
  0
SPLINE
  5
256
100
AcDbEntity
  8
VISIBLE
 62
7
100
AcDbSpline
 70
8
 71
3
 72
8
 73
4
 74
0
 40
0
 40
0
 40
0
 40
0
 40
1
 40
1
 40
1
 40
1
 10
100.056294
 20
158.582299
 30
0.0
 10
100.056294
 20
158.306157
 30
0.0
 10
100.280151
 20
158.082300
 30
0.0
 10
100.556293
 20
158.082300
 30
0.0
  0
LWPOLYLINE
  5
257
100
AcDbEntity
  8
VISIBLE
 62
7
100
AcDbPolyline
 90
2
 70
0
 10
352.968793
 20
191.132300
 30
0.0
 10
365.968794
 20
191.132300
 30
0.0
  0
SPLINE
  5
258
100
AcDbEntity
  8
VISIBLE
 62
7
100
AcDbSpline
 70
8
 71
3
 72
8
 73
4
 74
0
 40
0
 40
0
 40
0
 40
0
 40
1
 40
1
 40
1
 40
1
 10
113.556294
 20
158.082300
 30
0.0
 10
113.832436
 20
158.082300
 30
0.0
 10
114.056293
 20
158.306157
 30
0.0
 10
114.056294
 20
158.582299
 30
0.0
  0
LWPOLYLINE
  5
259
100
AcDbEntity
  8
VISIBLE
 62
7
100
AcDbPolyline
 90
2
 70
0
 10
100.556293
 20
158.082300
 30
0.0
 10
113.556294
 20
158.082300
 30
0.0
  0
SPLINE
  5
25a
100
AcDbEntity
  8
VISIBLE
 62
7
100
AcDbSpline
 70
8
 71
3
 72
8
 73
4
 74
0
 40
0
 40
0
 40
0
 40
0
 40
1
 40
1
 40
1
 40
1
 10
114.056294
 20
171.582300
 30
0.0
 10
114.056294
 20
171.714908
 30
0.0
 10
114.003615
 20
171.842085
 30
0.0
 10
113.909847
 20
171.935853
 30
0.0
  0
SPLINE
  5
25b
100
AcDbEntity
  8
VISIBLE
 62
7
100
AcDbSpline
 70
8
 71
3
 72
8
 73
4
 74
0
 40
0
 40
0
 40
0
 40
0
 40
1
 40
1
 40
1
 40
1
 10
113.909847
 20
171.935853
 30
0.0
 10
113.816079
 20
172.029621
 30
0.0
 10
113.688902
 20
172.082300
 30
0.0
 10
113.556294
 20
172.082300
 30
0.0
  0
LWPOLYLINE
  5
25c
100
AcDbEntity
  8
VISIBLE
 62
7
100
AcDbPolyline
 90
2
 70
0
 10
114.056294
 20
171.582300
 30
0.0
 10
114.056294
 20
158.582299
 30
0.0
  0
SPLINE
  5
25d
100
AcDbEntity
  8
VISIBLE
 62
7
100
AcDbSpline
 70
8
 71
3
 72
8
 73
4
 74
0
 40
0
 40
0
 40
0
 40
0
 40
1
 40
1
 40
1
 40
1
 10
100.556293
 20
172.082300
 30
0.0
 10
100.280151
 20
172.082300
 30
0.0
 10
100.056294
 20
171.858442
 30
0.0
 10
100.056294
 20
171.582300
 30
0.0
  0
SPLINE
  5
25e
100
AcDbEntity
  8
VISIBLE
 62
7
100
AcDbSpline
 70
8
 71
3
 72
8
 73
4
 74
0
 40
0
 40
0
 40
0
 40
0
 40
1
 40
1
 40
1
 40
1
 10
119.106294
 20
158.582299
 30
0.0
 10
119.106294
 20
158.306157
 30
0.0
 10
119.330151
 20
158.082300
 30
0.0
 10
119.606293
 20
158.082300
 30
0.0
  0
LWPOLYLINE
  5
25f
100
AcDbEntity
  8
VISIBLE
 62
7
100
AcDbPolyline
 90
2
 70
0
 10
100.556293
 20
172.082300
 30
0.0
 10
113.556294
 20
172.082300
 30
0.0
  0
SPLINE
  5
260
100
AcDbEntity
  8
VISIBLE
 62
7
100
AcDbSpline
 70
8
 71
3
 72
8
 73
4
 74
0
 40
0
 40
0
 40
0
 40
0
 40
1
 40
1
 40
1
 40
1
 10
132.606294
 20
158.082300
 30
0.0
 10
132.882436
 20
158.082300
 30
0.0
 10
133.106293
 20
158.306157
 30
0.0
 10
133.106294
 20
158.582299
 30
0.0
  0
LWPOLYLINE
  5
261
100
AcDbEntity
  8
VISIBLE
 62
7
100
AcDbPolyline
 90
2
 70
0
 10
119.606293
 20
158.082300
 30
0.0
 10
132.606294
 20
158.082300
 30
0.0
  0
SPLINE
  5
262
100
AcDbEntity
  8
VISIBLE
 62
7
100
AcDbSpline
 70
8
 71
3
 72
8
 73
4
 74
0
 40
0
 40
0
 40
0
 40
0
 40
1
 40
1
 40
1
 40
1
 10
133.106294
 20
171.582300
 30
0.0
 10
133.106294
 20
171.714908
 30
0.0
 10
133.053615
 20
171.842085
 30
0.0
 10
132.959847
 20
171.935853
 30
0.0
  0
SPLINE
  5
263
100
AcDbEntity
  8
VISIBLE
 62
7
100
AcDbSpline
 70
8
 71
3
 72
8
 73
4
 74
0
 40
0
 40
0
 40
0
 40
0
 40
1
 40
1
 40
1
 40
1
 10
132.959847
 20
171.935853
 30
0.0
 10
132.866079
 20
172.029621
 30
0.0
 10
132.738902
 20
172.082300
 30
0.0
 10
132.606294
 20
172.082300
 30
0.0
  0
LWPOLYLINE
  5
264
100
AcDbEntity
  8
VISIBLE
 62
7
100
AcDbPolyline
 90
2
 70
0
 10
133.106294
 20
171.582300
 30
0.0
 10
133.106294
 20
158.582299
 30
0.0
  0
SPLINE
  5
265
100
AcDbEntity
  8
VISIBLE
 62
7
100
AcDbSpline
 70
8
 71
3
 72
8
 73
4
 74
0
 40
0
 40
0
 40
0
 40
0
 40
1
 40
1
 40
1
 40
1
 10
119.606293
 20
172.082300
 30
0.0
 10
119.330151
 20
172.082300
 30
0.0
 10
119.106294
 20
171.858442
 30
0.0
 10
119.106294
 20
171.582300
 30
0.0
  0
SPLINE
  5
266
100
AcDbEntity
  8
VISIBLE
 62
7
100
AcDbSpline
 70
8
 71
3
 72
8
 73
4
 74
0
 40
0
 40
0
 40
0
 40
0
 40
1
 40
1
 40
1
 40
1
 10
138.156294
 20
158.582299
 30
0.0
 10
138.156294
 20
158.306157
 30
0.0
 10
138.380151
 20
158.082300
 30
0.0
 10
138.656293
 20
158.082300
 30
0.0
  0
LWPOLYLINE
  5
267
100
AcDbEntity
  8
VISIBLE
 62
7
100
AcDbPolyline
 90
2
 70
0
 10
119.606293
 20
172.082300
 30
0.0
 10
132.606294
 20
172.082300
 30
0.0
  0
SPLINE
  5
268
100
AcDbEntity
  8
VISIBLE
 62
7
100
AcDbSpline
 70
8
 71
3
 72
8
 73
4
 74
0
 40
0
 40
0
 40
0
 40
0
 40
1
 40
1
 40
1
 40
1
 10
151.656294
 20
158.082300
 30
0.0
 10
151.932436
 20
158.082300
 30
0.0
 10
152.156293
 20
158.306157
 30
0.0
 10
152.156294
 20
158.582299
 30
0.0
  0
LWPOLYLINE
  5
269
100
AcDbEntity
  8
VISIBLE
 62
7
100
AcDbPolyline
 90
2
 70
0
 10
138.656293
 20
158.082300
 30
0.0
 10
151.656294
 20
158.082300
 30
0.0
  0
SPLINE
  5
26a
100
AcDbEntity
  8
VISIBLE
 62
7
100
AcDbSpline
 70
8
 71
3
 72
8
 73
4
 74
0
 40
0
 40
0
 40
0
 40
0
 40
1
 40
1
 40
1
 40
1
 10
152.156294
 20
171.582300
 30
0.0
 10
152.156294
 20
171.714908
 30
0.0
 10
152.103615
 20
171.842085
 30
0.0
 10
152.009847
 20
171.935853
 30
0.0
  0
SPLINE
  5
26b
100
AcDbEntity
  8
VISIBLE
 62
7
100
AcDbSpline
 70
8
 71
3
 72
8
 73
4
 74
0
 40
0
 40
0
 40
0
 40
0
 40
1
 40
1
 40
1
 40
1
 10
152.009847
 20
171.935853
 30
0.0
 10
151.916079
 20
172.029621
 30
0.0
 10
151.788902
 20
172.082300
 30
0.0
 10
151.656294
 20
172.082300
 30
0.0
  0
LWPOLYLINE
  5
26c
100
AcDbEntity
  8
VISIBLE
 62
7
100
AcDbPolyline
 90
2
 70
0
 10
152.156294
 20
171.582300
 30
0.0
 10
152.156294
 20
158.582299
 30
0.0
  0
SPLINE
  5
26d
100
AcDbEntity
  8
VISIBLE
 62
7
100
AcDbSpline
 70
8
 71
3
 72
8
 73
4
 74
0
 40
0
 40
0
 40
0
 40
0
 40
1
 40
1
 40
1
 40
1
 10
138.656293
 20
172.082300
 30
0.0
 10
138.380151
 20
172.082300
 30
0.0
 10
138.156294
 20
171.858442
 30
0.0
 10
138.156294
 20
171.582300
 30
0.0
  0
SPLINE
  5
26e
100
AcDbEntity
  8
VISIBLE
 62
7
100
AcDbSpline
 70
8
 71
3
 72
8
 73
4
 74
0
 40
0
 40
0
 40
0
 40
0
 40
1
 40
1
 40
1
 40
1
 10
157.206294
 20
158.582299
 30
0.0
 10
157.206294
 20
158.306157
 30
0.0
 10
157.430151
 20
158.082300
 30
0.0
 10
157.706293
 20
158.082300
 30
0.0
  0
LWPOLYLINE
  5
26f
100
AcDbEntity
  8
VISIBLE
 62
7
100
AcDbPolyline
 90
2
 70
0
 10
138.656293
 20
172.082300
 30
0.0
 10
151.656294
 20
172.082300
 30
0.0
  0
SPLINE
  5
270
100
AcDbEntity
  8
VISIBLE
 62
7
100
AcDbSpline
 70
8
 71
3
 72
8
 73
4
 74
0
 40
0
 40
0
 40
0
 40
0
 40
1
 40
1
 40
1
 40
1
 10
170.706294
 20
158.082300
 30
0.0
 10
170.982436
 20
158.082300
 30
0.0
 10
171.206293
 20
158.306157
 30
0.0
 10
171.206294
 20
158.582299
 30
0.0
  0
LWPOLYLINE
  5
271
100
AcDbEntity
  8
VISIBLE
 62
7
100
AcDbPolyline
 90
2
 70
0
 10
157.706293
 20
158.082300
 30
0.0
 10
170.706294
 20
158.082300
 30
0.0
  0
SPLINE
  5
272
100
AcDbEntity
  8
VISIBLE
 62
7
100
AcDbSpline
 70
8
 71
3
 72
8
 73
4
 74
0
 40
0
 40
0
 40
0
 40
0
 40
1
 40
1
 40
1
 40
1
 10
171.206294
 20
171.582300
 30
0.0
 10
171.206294
 20
171.714908
 30
0.0
 10
171.153615
 20
171.842085
 30
0.0
 10
171.059847
 20
171.935853
 30
0.0
  0
SPLINE
  5
273
100
AcDbEntity
  8
VISIBLE
 62
7
100
AcDbSpline
 70
8
 71
3
 72
8
 73
4
 74
0
 40
0
 40
0
 40
0
 40
0
 40
1
 40
1
 40
1
 40
1
 10
171.059847
 20
171.935853
 30
0.0
 10
170.966079
 20
172.029621
 30
0.0
 10
170.838902
 20
172.082300
 30
0.0
 10
170.706294
 20
172.082300
 30
0.0
  0
LWPOLYLINE
  5
274
100
AcDbEntity
  8
VISIBLE
 62
7
100
AcDbPolyline
 90
2
 70
0
 10
171.206294
 20
171.582300
 30
0.0
 10
171.206294
 20
158.582299
 30
0.0
  0
SPLINE
  5
275
100
AcDbEntity
  8
VISIBLE
 62
7
100
AcDbSpline
 70
8
 71
3
 72
8
 73
4
 74
0
 40
0
 40
0
 40
0
 40
0
 40
1
 40
1
 40
1
 40
1
 10
157.706293
 20
172.082300
 30
0.0
 10
157.430151
 20
172.082300
 30
0.0
 10
157.206294
 20
171.858442
 30
0.0
 10
157.206294
 20
171.582300
 30
0.0
  0
SPLINE
  5
276
100
AcDbEntity
  8
VISIBLE
 62
7
100
AcDbSpline
 70
8
 71
3
 72
8
 73
4
 74
0
 40
0
 40
0
 40
0
 40
0
 40
1
 40
1
 40
1
 40
1
 10
176.256294
 20
158.582299
 30
0.0
 10
176.256294
 20
158.306157
 30
0.0
 10
176.480151
 20
158.082300
 30
0.0
 10
176.756293
 20
158.082300
 30
0.0
  0
LWPOLYLINE
  5
277
100
AcDbEntity
  8
VISIBLE
 62
7
100
AcDbPolyline
 90
2
 70
0
 10
157.706293
 20
172.082300
 30
0.0
 10
170.706294
 20
172.082300
 30
0.0
  0
SPLINE
  5
278
100
AcDbEntity
  8
VISIBLE
 62
7
100
AcDbSpline
 70
8
 71
3
 72
8
 73
4
 74
0
 40
0
 40
0
 40
0
 40
0
 40
1
 40
1
 40
1
 40
1
 10
189.756294
 20
158.082300
 30
0.0
 10
190.032436
 20
158.082300
 30
0.0
 10
190.256293
 20
158.306157
 30
0.0
 10
190.256294
 20
158.582299
 30
0.0
  0
LWPOLYLINE
  5
279
100
AcDbEntity
  8
VISIBLE
 62
7
100
AcDbPolyline
 90
2
 70
0
 10
176.756293
 20
158.082300
 30
0.0
 10
189.756294
 20
158.082300
 30
0.0
  0
SPLINE
  5
27a
100
AcDbEntity
  8
VISIBLE
 62
7
100
AcDbSpline
 70
8
 71
3
 72
8
 73
4
 74
0
 40
0
 40
0
 40
0
 40
0
 40
1
 40
1
 40
1
 40
1
 10
190.256294
 20
171.582300
 30
0.0
 10
190.256294
 20
171.714908
 30
0.0
 10
190.203615
 20
171.842085
 30
0.0
 10
190.109847
 20
171.935853
 30
0.0
  0
SPLINE
  5
27b
100
AcDbEntity
  8
VISIBLE
 62
7
100
AcDbSpline
 70
8
 71
3
 72
8
 73
4
 74
0
 40
0
 40
0
 40
0
 40
0
 40
1
 40
1
 40
1
 40
1
 10
190.109847
 20
171.935853
 30
0.0
 10
190.016079
 20
172.029621
 30
0.0
 10
189.888902
 20
172.082300
 30
0.0
 10
189.756294
 20
172.082300
 30
0.0
  0
LWPOLYLINE
  5
27c
100
AcDbEntity
  8
VISIBLE
 62
7
100
AcDbPolyline
 90
2
 70
0
 10
190.256294
 20
171.582300
 30
0.0
 10
190.256294
 20
158.582299
 30
0.0
  0
SPLINE
  5
27d
100
AcDbEntity
  8
VISIBLE
 62
7
100
AcDbSpline
 70
8
 71
3
 72
8
 73
4
 74
0
 40
0
 40
0
 40
0
 40
0
 40
1
 40
1
 40
1
 40
1
 10
176.756293
 20
172.082300
 30
0.0
 10
176.480151
 20
172.082300
 30
0.0
 10
176.256294
 20
171.858442
 30
0.0
 10
176.256294
 20
171.582300
 30
0.0
  0
SPLINE
  5
27e
100
AcDbEntity
  8
VISIBLE
 62
7
100
AcDbSpline
 70
8
 71
3
 72
8
 73
4
 74
0
 40
0
 40
0
 40
0
 40
0
 40
1
 40
1
 40
1
 40
1
 10
195.306294
 20
158.582299
 30
0.0
 10
195.306294
 20
158.306157
 30
0.0
 10
195.530151
 20
158.082300
 30
0.0
 10
195.806293
 20
158.082300
 30
0.0
  0
LWPOLYLINE
  5
27f
100
AcDbEntity
  8
VISIBLE
 62
7
100
AcDbPolyline
 90
2
 70
0
 10
176.756293
 20
172.082300
 30
0.0
 10
189.756294
 20
172.082300
 30
0.0
  0
SPLINE
  5
280
100
AcDbEntity
  8
VISIBLE
 62
7
100
AcDbSpline
 70
8
 71
3
 72
8
 73
4
 74
0
 40
0
 40
0
 40
0
 40
0
 40
1
 40
1
 40
1
 40
1
 10
208.806294
 20
158.082300
 30
0.0
 10
209.082436
 20
158.082300
 30
0.0
 10
209.306293
 20
158.306157
 30
0.0
 10
209.306294
 20
158.582299
 30
0.0
  0
LWPOLYLINE
  5
281
100
AcDbEntity
  8
VISIBLE
 62
7
100
AcDbPolyline
 90
2
 70
0
 10
195.806293
 20
158.082300
 30
0.0
 10
208.806294
 20
158.082300
 30
0.0
  0
SPLINE
  5
282
100
AcDbEntity
  8
VISIBLE
 62
7
100
AcDbSpline
 70
8
 71
3
 72
8
 73
4
 74
0
 40
0
 40
0
 40
0
 40
0
 40
1
 40
1
 40
1
 40
1
 10
209.306294
 20
171.582300
 30
0.0
 10
209.306294
 20
171.714908
 30
0.0
 10
209.253615
 20
171.842085
 30
0.0
 10
209.159847
 20
171.935853
 30
0.0
  0
SPLINE
  5
283
100
AcDbEntity
  8
VISIBLE
 62
7
100
AcDbSpline
 70
8
 71
3
 72
8
 73
4
 74
0
 40
0
 40
0
 40
0
 40
0
 40
1
 40
1
 40
1
 40
1
 10
209.159847
 20
171.935853
 30
0.0
 10
209.066079
 20
172.029621
 30
0.0
 10
208.938902
 20
172.082300
 30
0.0
 10
208.806294
 20
172.082300
 30
0.0
  0
LWPOLYLINE
  5
284
100
AcDbEntity
  8
VISIBLE
 62
7
100
AcDbPolyline
 90
2
 70
0
 10
209.306294
 20
171.582300
 30
0.0
 10
209.306294
 20
158.582299
 30
0.0
  0
SPLINE
  5
285
100
AcDbEntity
  8
VISIBLE
 62
7
100
AcDbSpline
 70
8
 71
3
 72
8
 73
4
 74
0
 40
0
 40
0
 40
0
 40
0
 40
1
 40
1
 40
1
 40
1
 10
195.806293
 20
172.082300
 30
0.0
 10
195.530151
 20
172.082300
 30
0.0
 10
195.306294
 20
171.858442
 30
0.0
 10
195.306294
 20
171.582300
 30
0.0
  0
SPLINE
  5
286
100
AcDbEntity
  8
VISIBLE
 62
7
100
AcDbSpline
 70
8
 71
3
 72
8
 73
4
 74
0
 40
0
 40
0
 40
0
 40
0
 40
1
 40
1
 40
1
 40
1
 10
214.356294
 20
158.582299
 30
0.0
 10
214.356294
 20
158.306157
 30
0.0
 10
214.580151
 20
158.082300
 30
0.0
 10
214.856293
 20
158.082300
 30
0.0
  0
LWPOLYLINE
  5
287
100
AcDbEntity
  8
VISIBLE
 62
7
100
AcDbPolyline
 90
2
 70
0
 10
195.806293
 20
172.082300
 30
0.0
 10
208.806294
 20
172.082300
 30
0.0
  0
SPLINE
  5
288
100
AcDbEntity
  8
VISIBLE
 62
7
100
AcDbSpline
 70
8
 71
3
 72
8
 73
4
 74
0
 40
0
 40
0
 40
0
 40
0
 40
1
 40
1
 40
1
 40
1
 10
227.856294
 20
158.082300
 30
0.0
 10
228.132436
 20
158.082300
 30
0.0
 10
228.356293
 20
158.306157
 30
0.0
 10
228.356294
 20
158.582299
 30
0.0
  0
LWPOLYLINE
  5
289
100
AcDbEntity
  8
VISIBLE
 62
7
100
AcDbPolyline
 90
2
 70
0
 10
214.856293
 20
158.082300
 30
0.0
 10
227.856294
 20
158.082300
 30
0.0
  0
SPLINE
  5
28a
100
AcDbEntity
  8
VISIBLE
 62
7
100
AcDbSpline
 70
8
 71
3
 72
8
 73
4
 74
0
 40
0
 40
0
 40
0
 40
0
 40
1
 40
1
 40
1
 40
1
 10
228.356294
 20
171.582300
 30
0.0
 10
228.356294
 20
171.714908
 30
0.0
 10
228.303615
 20
171.842085
 30
0.0
 10
228.209847
 20
171.935853
 30
0.0
  0
SPLINE
  5
28b
100
AcDbEntity
  8
VISIBLE
 62
7
100
AcDbSpline
 70
8
 71
3
 72
8
 73
4
 74
0
 40
0
 40
0
 40
0
 40
0
 40
1
 40
1
 40
1
 40
1
 10
228.209847
 20
171.935853
 30
0.0
 10
228.116079
 20
172.029621
 30
0.0
 10
227.988902
 20
172.082300
 30
0.0
 10
227.856294
 20
172.082300
 30
0.0
  0
LWPOLYLINE
  5
28c
100
AcDbEntity
  8
VISIBLE
 62
7
100
AcDbPolyline
 90
2
 70
0
 10
228.356294
 20
171.582300
 30
0.0
 10
228.356294
 20
158.582299
 30
0.0
  0
SPLINE
  5
28d
100
AcDbEntity
  8
VISIBLE
 62
7
100
AcDbSpline
 70
8
 71
3
 72
8
 73
4
 74
0
 40
0
 40
0
 40
0
 40
0
 40
1
 40
1
 40
1
 40
1
 10
214.856293
 20
172.082300
 30
0.0
 10
214.580151
 20
172.082300
 30
0.0
 10
214.356294
 20
171.858442
 30
0.0
 10
214.356294
 20
171.582300
 30
0.0
  0
SPLINE
  5
28e
100
AcDbEntity
  8
VISIBLE
 62
7
100
AcDbSpline
 70
8
 71
3
 72
8
 73
4
 74
0
 40
0
 40
0
 40
0
 40
0
 40
1
 40
1
 40
1
 40
1
 10
233.406294
 20
158.582299
 30
0.0
 10
233.406294
 20
158.306157
 30
0.0
 10
233.630151
 20
158.082300
 30
0.0
 10
233.906293
 20
158.082300
 30
0.0
  0
LWPOLYLINE
  5
28f
100
AcDbEntity
  8
VISIBLE
 62
7
100
AcDbPolyline
 90
2
 70
0
 10
214.856293
 20
172.082300
 30
0.0
 10
227.856294
 20
172.082300
 30
0.0
  0
SPLINE
  5
290
100
AcDbEntity
  8
VISIBLE
 62
7
100
AcDbSpline
 70
8
 71
3
 72
8
 73
4
 74
0
 40
0
 40
0
 40
0
 40
0
 40
1
 40
1
 40
1
 40
1
 10
246.906294
 20
158.082300
 30
0.0
 10
247.182436
 20
158.082300
 30
0.0
 10
247.406293
 20
158.306157
 30
0.0
 10
247.406294
 20
158.582299
 30
0.0
  0
LWPOLYLINE
  5
291
100
AcDbEntity
  8
VISIBLE
 62
7
100
AcDbPolyline
 90
2
 70
0
 10
233.906293
 20
158.082300
 30
0.0
 10
246.906294
 20
158.082300
 30
0.0
  0
SPLINE
  5
292
100
AcDbEntity
  8
VISIBLE
 62
7
100
AcDbSpline
 70
8
 71
3
 72
8
 73
4
 74
0
 40
0
 40
0
 40
0
 40
0
 40
1
 40
1
 40
1
 40
1
 10
247.406294
 20
171.582300
 30
0.0
 10
247.406294
 20
171.714908
 30
0.0
 10
247.353615
 20
171.842085
 30
0.0
 10
247.259847
 20
171.935853
 30
0.0
  0
SPLINE
  5
293
100
AcDbEntity
  8
VISIBLE
 62
7
100
AcDbSpline
 70
8
 71
3
 72
8
 73
4
 74
0
 40
0
 40
0
 40
0
 40
0
 40
1
 40
1
 40
1
 40
1
 10
247.259847
 20
171.935853
 30
0.0
 10
247.166079
 20
172.029621
 30
0.0
 10
247.038902
 20
172.082300
 30
0.0
 10
246.906294
 20
172.082300
 30
0.0
  0
LWPOLYLINE
  5
294
100
AcDbEntity
  8
VISIBLE
 62
7
100
AcDbPolyline
 90
2
 70
0
 10
247.406294
 20
171.582300
 30
0.0
 10
247.406294
 20
158.582299
 30
0.0
  0
SPLINE
  5
295
100
AcDbEntity
  8
VISIBLE
 62
7
100
AcDbSpline
 70
8
 71
3
 72
8
 73
4
 74
0
 40
0
 40
0
 40
0
 40
0
 40
1
 40
1
 40
1
 40
1
 10
233.906293
 20
172.082300
 30
0.0
 10
233.630151
 20
172.082300
 30
0.0
 10
233.406294
 20
171.858442
 30
0.0
 10
233.406294
 20
171.582300
 30
0.0
  0
SPLINE
  5
296
100
AcDbEntity
  8
VISIBLE
 62
7
100
AcDbSpline
 70
8
 71
3
 72
8
 73
4
 74
0
 40
0
 40
0
 40
0
 40
0
 40
1
 40
1
 40
1
 40
1
 10
252.456294
 20
158.582299
 30
0.0
 10
252.456294
 20
158.306157
 30
0.0
 10
252.680151
 20
158.082300
 30
0.0
 10
252.956293
 20
158.082300
 30
0.0
  0
LWPOLYLINE
  5
297
100
AcDbEntity
  8
VISIBLE
 62
7
100
AcDbPolyline
 90
2
 70
0
 10
233.906293
 20
172.082300
 30
0.0
 10
246.906294
 20
172.082300
 30
0.0
  0
SPLINE
  5
298
100
AcDbEntity
  8
VISIBLE
 62
7
100
AcDbSpline
 70
8
 71
3
 72
8
 73
4
 74
0
 40
0
 40
0
 40
0
 40
0
 40
1
 40
1
 40
1
 40
1
 10
265.956294
 20
158.082300
 30
0.0
 10
266.232436
 20
158.082300
 30
0.0
 10
266.456293
 20
158.306157
 30
0.0
 10
266.456294
 20
158.582299
 30
0.0
  0
LWPOLYLINE
  5
299
100
AcDbEntity
  8
VISIBLE
 62
7
100
AcDbPolyline
 90
2
 70
0
 10
252.956293
 20
158.082300
 30
0.0
 10
265.956294
 20
158.082300
 30
0.0
  0
SPLINE
  5
29a
100
AcDbEntity
  8
VISIBLE
 62
7
100
AcDbSpline
 70
8
 71
3
 72
8
 73
4
 74
0
 40
0
 40
0
 40
0
 40
0
 40
1
 40
1
 40
1
 40
1
 10
266.456294
 20
171.582300
 30
0.0
 10
266.456294
 20
171.714908
 30
0.0
 10
266.403615
 20
171.842085
 30
0.0
 10
266.309847
 20
171.935853
 30
0.0
  0
SPLINE
  5
29b
100
AcDbEntity
  8
VISIBLE
 62
7
100
AcDbSpline
 70
8
 71
3
 72
8
 73
4
 74
0
 40
0
 40
0
 40
0
 40
0
 40
1
 40
1
 40
1
 40
1
 10
266.309847
 20
171.935853
 30
0.0
 10
266.216079
 20
172.029621
 30
0.0
 10
266.088902
 20
172.082300
 30
0.0
 10
265.956294
 20
172.082300
 30
0.0
  0
LWPOLYLINE
  5
29c
100
AcDbEntity
  8
VISIBLE
 62
7
100
AcDbPolyline
 90
2
 70
0
 10
266.456294
 20
171.582300
 30
0.0
 10
266.456294
 20
158.582299
 30
0.0
  0
SPLINE
  5
29d
100
AcDbEntity
  8
VISIBLE
 62
7
100
AcDbSpline
 70
8
 71
3
 72
8
 73
4
 74
0
 40
0
 40
0
 40
0
 40
0
 40
1
 40
1
 40
1
 40
1
 10
252.956293
 20
172.082300
 30
0.0
 10
252.680151
 20
172.082300
 30
0.0
 10
252.456294
 20
171.858442
 30
0.0
 10
252.456294
 20
171.582300
 30
0.0
  0
SPLINE
  5
29e
100
AcDbEntity
  8
VISIBLE
 62
7
100
AcDbSpline
 70
8
 71
3
 72
8
 73
4
 74
0
 40
0
 40
0
 40
0
 40
0
 40
1
 40
1
 40
1
 40
1
 10
271.506294
 20
158.582299
 30
0.0
 10
271.506294
 20
158.306157
 30
0.0
 10
271.730151
 20
158.082300
 30
0.0
 10
272.006293
 20
158.082300
 30
0.0
  0
LWPOLYLINE
  5
29f
100
AcDbEntity
  8
VISIBLE
 62
7
100
AcDbPolyline
 90
2
 70
0
 10
252.956293
 20
172.082300
 30
0.0
 10
265.956294
 20
172.082300
 30
0.0
  0
SPLINE
  5
2a0
100
AcDbEntity
  8
VISIBLE
 62
7
100
AcDbSpline
 70
8
 71
3
 72
8
 73
4
 74
0
 40
0
 40
0
 40
0
 40
0
 40
1
 40
1
 40
1
 40
1
 10
285.006294
 20
158.082300
 30
0.0
 10
285.282436
 20
158.082300
 30
0.0
 10
285.506293
 20
158.306157
 30
0.0
 10
285.506294
 20
158.582299
 30
0.0
  0
LWPOLYLINE
  5
2a1
100
AcDbEntity
  8
VISIBLE
 62
7
100
AcDbPolyline
 90
2
 70
0
 10
272.006293
 20
158.082300
 30
0.0
 10
285.006294
 20
158.082300
 30
0.0
  0
SPLINE
  5
2a2
100
AcDbEntity
  8
VISIBLE
 62
7
100
AcDbSpline
 70
8
 71
3
 72
8
 73
4
 74
0
 40
0
 40
0
 40
0
 40
0
 40
1
 40
1
 40
1
 40
1
 10
285.506294
 20
171.582300
 30
0.0
 10
285.506294
 20
171.714908
 30
0.0
 10
285.453615
 20
171.842085
 30
0.0
 10
285.359847
 20
171.935853
 30
0.0
  0
SPLINE
  5
2a3
100
AcDbEntity
  8
VISIBLE
 62
7
100
AcDbSpline
 70
8
 71
3
 72
8
 73
4
 74
0
 40
0
 40
0
 40
0
 40
0
 40
1
 40
1
 40
1
 40
1
 10
285.359847
 20
171.935853
 30
0.0
 10
285.266079
 20
172.029621
 30
0.0
 10
285.138902
 20
172.082300
 30
0.0
 10
285.006294
 20
172.082300
 30
0.0
  0
LWPOLYLINE
  5
2a4
100
AcDbEntity
  8
VISIBLE
 62
7
100
AcDbPolyline
 90
2
 70
0
 10
285.506294
 20
171.582300
 30
0.0
 10
285.506294
 20
158.582299
 30
0.0
  0
SPLINE
  5
2a5
100
AcDbEntity
  8
VISIBLE
 62
7
100
AcDbSpline
 70
8
 71
3
 72
8
 73
4
 74
0
 40
0
 40
0
 40
0
 40
0
 40
1
 40
1
 40
1
 40
1
 10
272.006293
 20
172.082300
 30
0.0
 10
271.730151
 20
172.082300
 30
0.0
 10
271.506294
 20
171.858442
 30
0.0
 10
271.506294
 20
171.582300
 30
0.0
  0
SPLINE
  5
2a6
100
AcDbEntity
  8
VISIBLE
 62
7
100
AcDbSpline
 70
8
 71
3
 72
8
 73
4
 74
0
 40
0
 40
0
 40
0
 40
0
 40
1
 40
1
 40
1
 40
1
 10
290.556294
 20
158.582299
 30
0.0
 10
290.556294
 20
158.306157
 30
0.0
 10
290.780151
 20
158.082300
 30
0.0
 10
291.056293
 20
158.082300
 30
0.0
  0
LWPOLYLINE
  5
2a7
100
AcDbEntity
  8
VISIBLE
 62
7
100
AcDbPolyline
 90
2
 70
0
 10
272.006293
 20
172.082300
 30
0.0
 10
285.006294
 20
172.082300
 30
0.0
  0
SPLINE
  5
2a8
100
AcDbEntity
  8
VISIBLE
 62
7
100
AcDbSpline
 70
8
 71
3
 72
8
 73
4
 74
0
 40
0
 40
0
 40
0
 40
0
 40
1
 40
1
 40
1
 40
1
 10
304.056294
 20
158.082300
 30
0.0
 10
304.332436
 20
158.082300
 30
0.0
 10
304.556293
 20
158.306157
 30
0.0
 10
304.556294
 20
158.582299
 30
0.0
  0
LWPOLYLINE
  5
2a9
100
AcDbEntity
  8
VISIBLE
 62
7
100
AcDbPolyline
 90
2
 70
0
 10
291.056293
 20
158.082300
 30
0.0
 10
304.056294
 20
158.082300
 30
0.0
  0
SPLINE
  5
2aa
100
AcDbEntity
  8
VISIBLE
 62
7
100
AcDbSpline
 70
8
 71
3
 72
8
 73
4
 74
0
 40
0
 40
0
 40
0
 40
0
 40
1
 40
1
 40
1
 40
1
 10
304.556294
 20
171.582300
 30
0.0
 10
304.556294
 20
171.714908
 30
0.0
 10
304.503615
 20
171.842085
 30
0.0
 10
304.409847
 20
171.935853
 30
0.0
  0
SPLINE
  5
2ab
100
AcDbEntity
  8
VISIBLE
 62
7
100
AcDbSpline
 70
8
 71
3
 72
8
 73
4
 74
0
 40
0
 40
0
 40
0
 40
0
 40
1
 40
1
 40
1
 40
1
 10
304.409847
 20
171.935853
 30
0.0
 10
304.316079
 20
172.029621
 30
0.0
 10
304.188902
 20
172.082300
 30
0.0
 10
304.056294
 20
172.082300
 30
0.0
  0
LWPOLYLINE
  5
2ac
100
AcDbEntity
  8
VISIBLE
 62
7
100
AcDbPolyline
 90
2
 70
0
 10
304.556294
 20
171.582300
 30
0.0
 10
304.556294
 20
158.582299
 30
0.0
  0
SPLINE
  5
2ad
100
AcDbEntity
  8
VISIBLE
 62
7
100
AcDbSpline
 70
8
 71
3
 72
8
 73
4
 74
0
 40
0
 40
0
 40
0
 40
0
 40
1
 40
1
 40
1
 40
1
 10
291.056293
 20
172.082300
 30
0.0
 10
290.780151
 20
172.082300
 30
0.0
 10
290.556294
 20
171.858442
 30
0.0
 10
290.556294
 20
171.582300
 30
0.0
  0
SPLINE
  5
2ae
100
AcDbEntity
  8
VISIBLE
 62
7
100
AcDbSpline
 70
8
 71
3
 72
8
 73
4
 74
0
 40
0
 40
0
 40
0
 40
0
 40
1
 40
1
 40
1
 40
1
 10
336.950543
 20
156.582299
 30
0.0
 10
336.950544
 20
156.306157
 30
0.0
 10
337.174401
 20
156.082300
 30
0.0
 10
337.450544
 20
156.082300
 30
0.0
  0
LWPOLYLINE
  5
2af
100
AcDbEntity
  8
VISIBLE
 62
7
100
AcDbPolyline
 90
2
 70
0
 10
291.056293
 20
172.082300
 30
0.0
 10
304.056294
 20
172.082300
 30
0.0
  0
SPLINE
  5
2b0
100
AcDbEntity
  8
VISIBLE
 62
7
100
AcDbSpline
 70
8
 71
3
 72
8
 73
4
 74
0
 40
0
 40
0
 40
0
 40
0
 40
1
 40
1
 40
1
 40
1
 10
343.450543
 20
156.082300
 30
0.0
 10
343.726686
 20
156.082300
 30
0.0
 10
343.950543
 20
156.306157
 30
0.0
 10
343.950543
 20
156.582299
 30
0.0
  0
LWPOLYLINE
  5
2b1
100
AcDbEntity
  8
VISIBLE
 62
7
100
AcDbPolyline
 90
2
 70
0
 10
337.450544
 20
156.082300
 30
0.0
 10
343.450543
 20
156.082300
 30
0.0
  0
SPLINE
  5
2b2
100
AcDbEntity
  8
VISIBLE
 62
7
100
AcDbSpline
 70
8
 71
3
 72
8
 73
4
 74
0
 40
0
 40
0
 40
0
 40
0
 40
1
 40
1
 40
1
 40
1
 10
343.950543
 20
171.582300
 30
0.0
 10
343.950543
 20
171.714908
 30
0.0
 10
343.897865
 20
171.842085
 30
0.0
 10
343.804097
 20
171.935853
 30
0.0
  0
SPLINE
  5
2b3
100
AcDbEntity
  8
VISIBLE
 62
7
100
AcDbSpline
 70
8
 71
3
 72
8
 73
4
 74
0
 40
0
 40
0
 40
0
 40
0
 40
1
 40
1
 40
1
 40
1
 10
343.804097
 20
171.935853
 30
0.0
 10
343.710329
 20
172.029621
 30
0.0
 10
343.583152
 20
172.082300
 30
0.0
 10
343.450543
 20
172.082300
 30
0.0
  0
LWPOLYLINE
  5
2b4
100
AcDbEntity
  8
VISIBLE
 62
7
100
AcDbPolyline
 90
2
 70
0
 10
343.950543
 20
171.582300
 30
0.0
 10
343.950543
 20
156.582299
 30
0.0
  0
SPLINE
  5
2b5
100
AcDbEntity
  8
VISIBLE
 62
7
100
AcDbSpline
 70
8
 71
3
 72
8
 73
4
 74
0
 40
0
 40
0
 40
0
 40
0
 40
1
 40
1
 40
1
 40
1
 10
313.574544
 20
172.082300
 30
0.0
 10
313.441935
 20
172.082300
 30
0.0
 10
313.314758
 20
172.029621
 30
0.0
 10
313.220990
 20
171.935853
 30
0.0
  0
SPLINE
  5
2b6
100
AcDbEntity
  8
VISIBLE
 62
7
100
AcDbSpline
 70
8
 71
3
 72
8
 73
4
 74
0
 40
0
 40
0
 40
0
 40
0
 40
1
 40
1
 40
1
 40
1
 10
313.220990
 20
171.935853
 30
0.0
 10
313.127222
 20
171.842085
 30
0.0
 10
313.074543
 20
171.714908
 30
0.0
 10
313.074543
 20
171.582300
 30
0.0
  0
LWPOLYLINE
  5
2b7
100
AcDbEntity
  8
VISIBLE
 62
7
100
AcDbPolyline
 90
2
 70
0
 10
313.574544
 20
172.082300
 30
0.0
 10
343.450543
 20
172.082300
 30
0.0
  0
SPLINE
  5
2b8
100
AcDbEntity
  8
VISIBLE
 62
7
100
AcDbSpline
 70
8
 71
3
 72
8
 73
4
 74
0
 40
0
 40
0
 40
0
 40
0
 40
1
 40
1
 40
1
 40
1
 10
313.074543
 20
156.582299
 30
0.0
 10
313.074544
 20
156.306157
 30
0.0
 10
313.298401
 20
156.082300
 30
0.0
 10
313.574544
 20
156.082300
 30
0.0
  0
LWPOLYLINE
  5
2b9
100
AcDbEntity
  8
VISIBLE
 62
7
100
AcDbPolyline
 90
2
 70
0
 10
313.074543
 20
171.582300
 30
0.0
 10
313.074543
 20
156.582299
 30
0.0
  0
SPLINE
  5
2ba
100
AcDbEntity
  8
VISIBLE
 62
7
100
AcDbSpline
 70
8
 71
3
 72
8
 73
4
 74
0
 40
0
 40
0
 40
0
 40
0
 40
1
 40
1
 40
1
 40
1
 10
319.574543
 20
156.082300
 30
0.0
 10
319.850686
 20
156.082300
 30
0.0
 10
320.074543
 20
156.306157
 30
0.0
 10
320.074543
 20
156.582299
 30
0.0
  0
LWPOLYLINE
  5
2bb
100
AcDbEntity
  8
VISIBLE
 62
7
100
AcDbPolyline
 90
2
 70
0
 10
313.574544
 20
156.082300
 30
0.0
 10
319.574543
 20
156.082300
 30
0.0
  0
LWPOLYLINE
  5
2bc
100
AcDbEntity
  8
VISIBLE
 62
7
100
AcDbPolyline
 90
2
 70
0
 10
320.074543
 20
157.582300
 30
0.0
 10
320.074543
 20
156.582299
 30
0.0
  0
SPLINE
  5
2bd
100
AcDbEntity
  8
VISIBLE
 62
7
100
AcDbSpline
 70
8
 71
3
 72
8
 73
4
 74
0
 40
0
 40
0
 40
0
 40
0
 40
1
 40
1
 40
1
 40
1
 10
352.468794
 20
158.582299
 30
0.0
 10
352.468794
 20
158.306157
 30
0.0
 10
352.692651
 20
158.082300
 30
0.0
 10
352.968793
 20
158.082300
 30
0.0
  0
LWPOLYLINE
  5
2be
100
AcDbEntity
  8
VISIBLE
 62
7
100
AcDbPolyline
 90
2
 70
0
 10
320.574544
 20
158.082300
 30
0.0
 10
336.450543
 20
158.082300
 30
0.0
  0
SPLINE
  5
2bf
100
AcDbEntity
  8
VISIBLE
 62
7
100
AcDbSpline
 70
8
 71
3
 72
8
 73
4
 74
0
 40
0
 40
0
 40
0
 40
0
 40
1
 40
1
 40
1
 40
1
 10
365.968794
 20
158.082300
 30
0.0
 10
366.244936
 20
158.082300
 30
0.0
 10
366.468793
 20
158.306157
 30
0.0
 10
366.468794
 20
158.582299
 30
0.0
  0
LWPOLYLINE
  5
2c0
100
AcDbEntity
  8
VISIBLE
 62
7
100
AcDbPolyline
 90
2
 70
0
 10
352.968793
 20
158.082300
 30
0.0
 10
365.968794
 20
158.082300
 30
0.0
  0
SPLINE
  5
2c1
100
AcDbEntity
  8
VISIBLE
 62
7
100
AcDbSpline
 70
8
 71
3
 72
8
 73
4
 74
0
 40
0
 40
0
 40
0
 40
0
 40
1
 40
1
 40
1
 40
1
 10
366.468794
 20
171.582300
 30
0.0
 10
366.468794
 20
171.714908
 30
0.0
 10
366.416115
 20
171.842085
 30
0.0
 10
366.322347
 20
171.935853
 30
0.0
  0
SPLINE
  5
2c2
100
AcDbEntity
  8
VISIBLE
 62
7
100
AcDbSpline
 70
8
 71
3
 72
8
 73
4
 74
0
 40
0
 40
0
 40
0
 40
0
 40
1
 40
1
 40
1
 40
1
 10
366.322347
 20
171.935853
 30
0.0
 10
366.228579
 20
172.029621
 30
0.0
 10
366.101402
 20
172.082300
 30
0.0
 10
365.968794
 20
172.082300
 30
0.0
  0
LWPOLYLINE
  5
2c3
100
AcDbEntity
  8
VISIBLE
 62
7
100
AcDbPolyline
 90
2
 70
0
 10
366.468794
 20
171.582300
 30
0.0
 10
366.468794
 20
158.582299
 30
0.0
  0
SPLINE
  5
2c4
100
AcDbEntity
  8
VISIBLE
 62
7
100
AcDbSpline
 70
8
 71
3
 72
8
 73
4
 74
0
 40
0
 40
0
 40
0
 40
0
 40
1
 40
1
 40
1
 40
1
 10
352.968793
 20
172.082300
 30
0.0
 10
352.692651
 20
172.082300
 30
0.0
 10
352.468794
 20
171.858442
 30
0.0
 10
352.468794
 20
171.582300
 30
0.0
  0
SPLINE
  5
2c5
100
AcDbEntity
  8
VISIBLE
 62
7
100
AcDbSpline
 70
8
 71
3
 72
8
 73
4
 74
0
 40
0
 40
0
 40
0
 40
0
 40
1
 40
1
 40
1
 40
1
 10
94.063043
 20
137.532299
 30
0.0
 10
94.063044
 20
137.256157
 30
0.0
 10
94.286901
 20
137.032300
 30
0.0
 10
94.563044
 20
137.032300
 30
0.0
  0
LWPOLYLINE
  5
2c6
100
AcDbEntity
  8
VISIBLE
 62
7
100
AcDbPolyline
 90
2
 70
0
 10
352.968793
 20
172.082300
 30
0.0
 10
365.968794
 20
172.082300
 30
0.0
  0
SPLINE
  5
2c7
100
AcDbEntity
  8
VISIBLE
 62
7
100
AcDbSpline
 70
8
 71
3
 72
8
 73
4
 74
0
 40
0
 40
0
 40
0
 40
0
 40
1
 40
1
 40
1
 40
1
 10
100.563043
 20
137.032300
 30
0.0
 10
100.839186
 20
137.032300
 30
0.0
 10
101.063043
 20
137.256157
 30
0.0
 10
101.063043
 20
137.532299
 30
0.0
  0
LWPOLYLINE
  5
2c8
100
AcDbEntity
  8
VISIBLE
 62
7
100
AcDbPolyline
 90
2
 70
0
 10
94.563044
 20
137.032300
 30
0.0
 10
100.563043
 20
137.032300
 30
0.0
  0
SPLINE
  5
2c9
100
AcDbEntity
  8
VISIBLE
 62
7
100
AcDbSpline
 70
8
 71
3
 72
8
 73
4
 74
0
 40
0
 40
0
 40
0
 40
0
 40
1
 40
1
 40
1
 40
1
 10
101.063043
 20
152.532300
 30
0.0
 10
101.063043
 20
152.664908
 30
0.0
 10
101.010365
 20
152.792085
 30
0.0
 10
100.916597
 20
152.885853
 30
0.0
  0
SPLINE
  5
2ca
100
AcDbEntity
  8
VISIBLE
 62
7
100
AcDbSpline
 70
8
 71
3
 72
8
 73
4
 74
0
 40
0
 40
0
 40
0
 40
0
 40
1
 40
1
 40
1
 40
1
 10
100.916597
 20
152.885853
 30
0.0
 10
100.822829
 20
152.979621
 30
0.0
 10
100.695652
 20
153.032300
 30
0.0
 10
100.563043
 20
153.032300
 30
0.0
  0
LWPOLYLINE
  5
2cb
100
AcDbEntity
  8
VISIBLE
 62
7
100
AcDbPolyline
 90
2
 70
0
 10
101.063043
 20
152.532300
 30
0.0
 10
101.063043
 20
137.532299
 30
0.0
  0
SPLINE
  5
2cc
100
AcDbEntity
  8
VISIBLE
 62
7
100
AcDbSpline
 70
8
 71
3
 72
8
 73
4
 74
0
 40
0
 40
0
 40
0
 40
0
 40
1
 40
1
 40
1
 40
1
 10
70.687044
 20
153.032300
 30
0.0
 10
70.554435
 20
153.032300
 30
0.0
 10
70.427258
 20
152.979621
 30
0.0
 10
70.333490
 20
152.885853
 30
0.0
  0
SPLINE
  5
2cd
100
AcDbEntity
  8
VISIBLE
 62
7
100
AcDbSpline
 70
8
 71
3
 72
8
 73
4
 74
0
 40
0
 40
0
 40
0
 40
0
 40
1
 40
1
 40
1
 40
1
 10
70.333490
 20
152.885853
 30
0.0
 10
70.239722
 20
152.792085
 30
0.0
 10
70.187043
 20
152.664908
 30
0.0
 10
70.187043
 20
152.532300
 30
0.0
  0
LWPOLYLINE
  5
2ce
100
AcDbEntity
  8
VISIBLE
 62
7
100
AcDbPolyline
 90
2
 70
0
 10
70.687044
 20
153.032300
 30
0.0
 10
100.563043
 20
153.032300
 30
0.0
  0
SPLINE
  5
2cf
100
AcDbEntity
  8
VISIBLE
 62
7
100
AcDbSpline
 70
8
 71
3
 72
8
 73
4
 74
0
 40
0
 40
0
 40
0
 40
0
 40
1
 40
1
 40
1
 40
1
 10
70.187043
 20
137.532299
 30
0.0
 10
70.187044
 20
137.256157
 30
0.0
 10
70.410901
 20
137.032300
 30
0.0
 10
70.687044
 20
137.032300
 30
0.0
  0
LWPOLYLINE
  5
2d0
100
AcDbEntity
  8
VISIBLE
 62
7
100
AcDbPolyline
 90
2
 70
0
 10
70.187043
 20
152.532300
 30
0.0
 10
70.187043
 20
137.532299
 30
0.0
  0
SPLINE
  5
2d1
100
AcDbEntity
  8
VISIBLE
 62
7
100
AcDbSpline
 70
8
 71
3
 72
8
 73
4
 74
0
 40
0
 40
0
 40
0
 40
0
 40
1
 40
1
 40
1
 40
1
 10
76.687043
 20
137.032300
 30
0.0
 10
76.963186
 20
137.032300
 30
0.0
 10
77.187043
 20
137.256157
 30
0.0
 10
77.187043
 20
137.532299
 30
0.0
  0
LWPOLYLINE
  5
2d2
100
AcDbEntity
  8
VISIBLE
 62
7
100
AcDbPolyline
 90
2
 70
0
 10
70.687044
 20
137.032300
 30
0.0
 10
76.687043
 20
137.032300
 30
0.0
  0
LWPOLYLINE
  5
2d3
100
AcDbEntity
  8
VISIBLE
 62
7
100
AcDbPolyline
 90
2
 70
0
 10
77.187043
 20
138.532300
 30
0.0
 10
77.187043
 20
137.532299
 30
0.0
  0
SPLINE
  5
2d4
100
AcDbEntity
  8
VISIBLE
 62
7
100
AcDbSpline
 70
8
 71
3
 72
8
 73
4
 74
0
 40
0
 40
0
 40
0
 40
0
 40
1
 40
1
 40
1
 40
1
 10
109.581294
 20
139.532299
 30
0.0
 10
109.581294
 20
139.256157
 30
0.0
 10
109.805151
 20
139.032300
 30
0.0
 10
110.081293
 20
139.032300
 30
0.0
  0
LWPOLYLINE
  5
2d5
100
AcDbEntity
  8
VISIBLE
 62
7
100
AcDbPolyline
 90
2
 70
0
 10
77.687044
 20
139.032300
 30
0.0
 10
93.563043
 20
139.032300
 30
0.0
  0
SPLINE
  5
2d6
100
AcDbEntity
  8
VISIBLE
 62
7
100
AcDbSpline
 70
8
 71
3
 72
8
 73
4
 74
0
 40
0
 40
0
 40
0
 40
0
 40
1
 40
1
 40
1
 40
1
 10
123.081294
 20
139.032300
 30
0.0
 10
123.357436
 20
139.032300
 30
0.0
 10
123.581293
 20
139.256157
 30
0.0
 10
123.581294
 20
139.532299
 30
0.0
  0
LWPOLYLINE
  5
2d7
100
AcDbEntity
  8
VISIBLE
 62
7
100
AcDbPolyline
 90
2
 70
0
 10
110.081293
 20
139.032300
 30
0.0
 10
123.081294
 20
139.032300
 30
0.0
  0
SPLINE
  5
2d8
100
AcDbEntity
  8
VISIBLE
 62
7
100
AcDbSpline
 70
8
 71
3
 72
8
 73
4
 74
0
 40
0
 40
0
 40
0
 40
0
 40
1
 40
1
 40
1
 40
1
 10
123.581294
 20
152.532300
 30
0.0
 10
123.581294
 20
152.664908
 30
0.0
 10
123.528615
 20
152.792085
 30
0.0
 10
123.434847
 20
152.885853
 30
0.0
  0
SPLINE
  5
2d9
100
AcDbEntity
  8
VISIBLE
 62
7
100
AcDbSpline
 70
8
 71
3
 72
8
 73
4
 74
0
 40
0
 40
0
 40
0
 40
0
 40
1
 40
1
 40
1
 40
1
 10
123.434847
 20
152.885853
 30
0.0
 10
123.341079
 20
152.979621
 30
0.0
 10
123.213902
 20
153.032300
 30
0.0
 10
123.081294
 20
153.032300
 30
0.0
  0
LWPOLYLINE
  5
2da
100
AcDbEntity
  8
VISIBLE
 62
7
100
AcDbPolyline
 90
2
 70
0
 10
123.581294
 20
152.532300
 30
0.0
 10
123.581294
 20
139.532299
 30
0.0
  0
SPLINE
  5
2db
100
AcDbEntity
  8
VISIBLE
 62
7
100
AcDbSpline
 70
8
 71
3
 72
8
 73
4
 74
0
 40
0
 40
0
 40
0
 40
0
 40
1
 40
1
 40
1
 40
1
 10
110.081293
 20
153.032300
 30
0.0
 10
109.805151
 20
153.032300
 30
0.0
 10
109.581294
 20
152.808442
 30
0.0
 10
109.581294
 20
152.532300
 30
0.0
  0
SPLINE
  5
2dc
100
AcDbEntity
  8
VISIBLE
 62
7
100
AcDbSpline
 70
8
 71
3
 72
8
 73
4
 74
0
 40
0
 40
0
 40
0
 40
0
 40
1
 40
1
 40
1
 40
1
 10
128.631294
 20
139.532299
 30
0.0
 10
128.631294
 20
139.256157
 30
0.0
 10
128.855151
 20
139.032300
 30
0.0
 10
129.131293
 20
139.032300
 30
0.0
  0
LWPOLYLINE
  5
2dd
100
AcDbEntity
  8
VISIBLE
 62
7
100
AcDbPolyline
 90
2
 70
0
 10
110.081293
 20
153.032300
 30
0.0
 10
123.081294
 20
153.032300
 30
0.0
  0
SPLINE
  5
2de
100
AcDbEntity
  8
VISIBLE
 62
7
100
AcDbSpline
 70
8
 71
3
 72
8
 73
4
 74
0
 40
0
 40
0
 40
0
 40
0
 40
1
 40
1
 40
1
 40
1
 10
142.131294
 20
139.032300
 30
0.0
 10
142.407436
 20
139.032300
 30
0.0
 10
142.631293
 20
139.256157
 30
0.0
 10
142.631294
 20
139.532299
 30
0.0
  0
LWPOLYLINE
  5
2df
100
AcDbEntity
  8
VISIBLE
 62
7
100
AcDbPolyline
 90
2
 70
0
 10
129.131293
 20
139.032300
 30
0.0
 10
142.131294
 20
139.032300
 30
0.0
  0
SPLINE
  5
2e0
100
AcDbEntity
  8
VISIBLE
 62
7
100
AcDbSpline
 70
8
 71
3
 72
8
 73
4
 74
0
 40
0
 40
0
 40
0
 40
0
 40
1
 40
1
 40
1
 40
1
 10
142.631294
 20
152.532300
 30
0.0
 10
142.631294
 20
152.664908
 30
0.0
 10
142.578615
 20
152.792085
 30
0.0
 10
142.484847
 20
152.885853
 30
0.0
  0
SPLINE
  5
2e1
100
AcDbEntity
  8
VISIBLE
 62
7
100
AcDbSpline
 70
8
 71
3
 72
8
 73
4
 74
0
 40
0
 40
0
 40
0
 40
0
 40
1
 40
1
 40
1
 40
1
 10
142.484847
 20
152.885853
 30
0.0
 10
142.391079
 20
152.979621
 30
0.0
 10
142.263902
 20
153.032300
 30
0.0
 10
142.131294
 20
153.032300
 30
0.0
  0
LWPOLYLINE
  5
2e2
100
AcDbEntity
  8
VISIBLE
 62
7
100
AcDbPolyline
 90
2
 70
0
 10
142.631294
 20
152.532300
 30
0.0
 10
142.631294
 20
139.532299
 30
0.0
  0
SPLINE
  5
2e3
100
AcDbEntity
  8
VISIBLE
 62
7
100
AcDbSpline
 70
8
 71
3
 72
8
 73
4
 74
0
 40
0
 40
0
 40
0
 40
0
 40
1
 40
1
 40
1
 40
1
 10
129.131293
 20
153.032300
 30
0.0
 10
128.855151
 20
153.032300
 30
0.0
 10
128.631294
 20
152.808442
 30
0.0
 10
128.631294
 20
152.532300
 30
0.0
  0
SPLINE
  5
2e4
100
AcDbEntity
  8
VISIBLE
 62
7
100
AcDbSpline
 70
8
 71
3
 72
8
 73
4
 74
0
 40
0
 40
0
 40
0
 40
0
 40
1
 40
1
 40
1
 40
1
 10
147.681294
 20
139.532299
 30
0.0
 10
147.681294
 20
139.256157
 30
0.0
 10
147.905151
 20
139.032300
 30
0.0
 10
148.181293
 20
139.032300
 30
0.0
  0
LWPOLYLINE
  5
2e5
100
AcDbEntity
  8
VISIBLE
 62
7
100
AcDbPolyline
 90
2
 70
0
 10
129.131293
 20
153.032300
 30
0.0
 10
142.131294
 20
153.032300
 30
0.0
  0
SPLINE
  5
2e6
100
AcDbEntity
  8
VISIBLE
 62
7
100
AcDbSpline
 70
8
 71
3
 72
8
 73
4
 74
0
 40
0
 40
0
 40
0
 40
0
 40
1
 40
1
 40
1
 40
1
 10
161.181294
 20
139.032300
 30
0.0
 10
161.457436
 20
139.032300
 30
0.0
 10
161.681293
 20
139.256157
 30
0.0
 10
161.681294
 20
139.532299
 30
0.0
  0
LWPOLYLINE
  5
2e7
100
AcDbEntity
  8
VISIBLE
 62
7
100
AcDbPolyline
 90
2
 70
0
 10
148.181293
 20
139.032300
 30
0.0
 10
161.181294
 20
139.032300
 30
0.0
  0
SPLINE
  5
2e8
100
AcDbEntity
  8
VISIBLE
 62
7
100
AcDbSpline
 70
8
 71
3
 72
8
 73
4
 74
0
 40
0
 40
0
 40
0
 40
0
 40
1
 40
1
 40
1
 40
1
 10
161.681294
 20
152.532300
 30
0.0
 10
161.681294
 20
152.664908
 30
0.0
 10
161.628615
 20
152.792085
 30
0.0
 10
161.534847
 20
152.885853
 30
0.0
  0
SPLINE
  5
2e9
100
AcDbEntity
  8
VISIBLE
 62
7
100
AcDbSpline
 70
8
 71
3
 72
8
 73
4
 74
0
 40
0
 40
0
 40
0
 40
0
 40
1
 40
1
 40
1
 40
1
 10
161.534847
 20
152.885853
 30
0.0
 10
161.441079
 20
152.979621
 30
0.0
 10
161.313902
 20
153.032300
 30
0.0
 10
161.181294
 20
153.032300
 30
0.0
  0
LWPOLYLINE
  5
2ea
100
AcDbEntity
  8
VISIBLE
 62
7
100
AcDbPolyline
 90
2
 70
0
 10
161.681294
 20
152.532300
 30
0.0
 10
161.681294
 20
139.532299
 30
0.0
  0
SPLINE
  5
2eb
100
AcDbEntity
  8
VISIBLE
 62
7
100
AcDbSpline
 70
8
 71
3
 72
8
 73
4
 74
0
 40
0
 40
0
 40
0
 40
0
 40
1
 40
1
 40
1
 40
1
 10
148.181293
 20
153.032300
 30
0.0
 10
147.905151
 20
153.032300
 30
0.0
 10
147.681294
 20
152.808442
 30
0.0
 10
147.681294
 20
152.532300
 30
0.0
  0
SPLINE
  5
2ec
100
AcDbEntity
  8
VISIBLE
 62
7
100
AcDbSpline
 70
8
 71
3
 72
8
 73
4
 74
0
 40
0
 40
0
 40
0
 40
0
 40
1
 40
1
 40
1
 40
1
 10
166.731294
 20
139.532299
 30
0.0
 10
166.731294
 20
139.256157
 30
0.0
 10
166.955151
 20
139.032300
 30
0.0
 10
167.231293
 20
139.032300
 30
0.0
  0
LWPOLYLINE
  5
2ed
100
AcDbEntity
  8
VISIBLE
 62
7
100
AcDbPolyline
 90
2
 70
0
 10
148.181293
 20
153.032300
 30
0.0
 10
161.181294
 20
153.032300
 30
0.0
  0
SPLINE
  5
2ee
100
AcDbEntity
  8
VISIBLE
 62
7
100
AcDbSpline
 70
8
 71
3
 72
8
 73
4
 74
0
 40
0
 40
0
 40
0
 40
0
 40
1
 40
1
 40
1
 40
1
 10
180.231294
 20
139.032300
 30
0.0
 10
180.507436
 20
139.032300
 30
0.0
 10
180.731293
 20
139.256157
 30
0.0
 10
180.731294
 20
139.532299
 30
0.0
  0
LWPOLYLINE
  5
2ef
100
AcDbEntity
  8
VISIBLE
 62
7
100
AcDbPolyline
 90
2
 70
0
 10
167.231293
 20
139.032300
 30
0.0
 10
180.231294
 20
139.032300
 30
0.0
  0
SPLINE
  5
2f0
100
AcDbEntity
  8
VISIBLE
 62
7
100
AcDbSpline
 70
8
 71
3
 72
8
 73
4
 74
0
 40
0
 40
0
 40
0
 40
0
 40
1
 40
1
 40
1
 40
1
 10
180.731294
 20
152.532300
 30
0.0
 10
180.731294
 20
152.664908
 30
0.0
 10
180.678615
 20
152.792085
 30
0.0
 10
180.584847
 20
152.885853
 30
0.0
  0
SPLINE
  5
2f1
100
AcDbEntity
  8
VISIBLE
 62
7
100
AcDbSpline
 70
8
 71
3
 72
8
 73
4
 74
0
 40
0
 40
0
 40
0
 40
0
 40
1
 40
1
 40
1
 40
1
 10
180.584847
 20
152.885853
 30
0.0
 10
180.491079
 20
152.979621
 30
0.0
 10
180.363902
 20
153.032300
 30
0.0
 10
180.231294
 20
153.032300
 30
0.0
  0
LWPOLYLINE
  5
2f2
100
AcDbEntity
  8
VISIBLE
 62
7
100
AcDbPolyline
 90
2
 70
0
 10
180.731294
 20
152.532300
 30
0.0
 10
180.731294
 20
139.532299
 30
0.0
  0
SPLINE
  5
2f3
100
AcDbEntity
  8
VISIBLE
 62
7
100
AcDbSpline
 70
8
 71
3
 72
8
 73
4
 74
0
 40
0
 40
0
 40
0
 40
0
 40
1
 40
1
 40
1
 40
1
 10
167.231293
 20
153.032300
 30
0.0
 10
166.955151
 20
153.032300
 30
0.0
 10
166.731294
 20
152.808442
 30
0.0
 10
166.731294
 20
152.532300
 30
0.0
  0
SPLINE
  5
2f4
100
AcDbEntity
  8
VISIBLE
 62
7
100
AcDbSpline
 70
8
 71
3
 72
8
 73
4
 74
0
 40
0
 40
0
 40
0
 40
0
 40
1
 40
1
 40
1
 40
1
 10
185.781294
 20
139.532299
 30
0.0
 10
185.781294
 20
139.256157
 30
0.0
 10
186.005151
 20
139.032300
 30
0.0
 10
186.281293
 20
139.032300
 30
0.0
  0
LWPOLYLINE
  5
2f5
100
AcDbEntity
  8
VISIBLE
 62
7
100
AcDbPolyline
 90
2
 70
0
 10
167.231293
 20
153.032300
 30
0.0
 10
180.231294
 20
153.032300
 30
0.0
  0
SPLINE
  5
2f6
100
AcDbEntity
  8
VISIBLE
 62
7
100
AcDbSpline
 70
8
 71
3
 72
8
 73
4
 74
0
 40
0
 40
0
 40
0
 40
0
 40
1
 40
1
 40
1
 40
1
 10
199.281294
 20
139.032300
 30
0.0
 10
199.557436
 20
139.032300
 30
0.0
 10
199.781293
 20
139.256157
 30
0.0
 10
199.781294
 20
139.532299
 30
0.0
  0
LWPOLYLINE
  5
2f7
100
AcDbEntity
  8
VISIBLE
 62
7
100
AcDbPolyline
 90
2
 70
0
 10
186.281293
 20
139.032300
 30
0.0
 10
199.281294
 20
139.032300
 30
0.0
  0
SPLINE
  5
2f8
100
AcDbEntity
  8
VISIBLE
 62
7
100
AcDbSpline
 70
8
 71
3
 72
8
 73
4
 74
0
 40
0
 40
0
 40
0
 40
0
 40
1
 40
1
 40
1
 40
1
 10
199.781294
 20
152.532300
 30
0.0
 10
199.781294
 20
152.664908
 30
0.0
 10
199.728615
 20
152.792085
 30
0.0
 10
199.634847
 20
152.885853
 30
0.0
  0
SPLINE
  5
2f9
100
AcDbEntity
  8
VISIBLE
 62
7
100
AcDbSpline
 70
8
 71
3
 72
8
 73
4
 74
0
 40
0
 40
0
 40
0
 40
0
 40
1
 40
1
 40
1
 40
1
 10
199.634847
 20
152.885853
 30
0.0
 10
199.541079
 20
152.979621
 30
0.0
 10
199.413902
 20
153.032300
 30
0.0
 10
199.281294
 20
153.032300
 30
0.0
  0
LWPOLYLINE
  5
2fa
100
AcDbEntity
  8
VISIBLE
 62
7
100
AcDbPolyline
 90
2
 70
0
 10
199.781294
 20
152.532300
 30
0.0
 10
199.781294
 20
139.532299
 30
0.0
  0
SPLINE
  5
2fb
100
AcDbEntity
  8
VISIBLE
 62
7
100
AcDbSpline
 70
8
 71
3
 72
8
 73
4
 74
0
 40
0
 40
0
 40
0
 40
0
 40
1
 40
1
 40
1
 40
1
 10
186.281293
 20
153.032300
 30
0.0
 10
186.005151
 20
153.032300
 30
0.0
 10
185.781294
 20
152.808442
 30
0.0
 10
185.781294
 20
152.532300
 30
0.0
  0
SPLINE
  5
2fc
100
AcDbEntity
  8
VISIBLE
 62
7
100
AcDbSpline
 70
8
 71
3
 72
8
 73
4
 74
0
 40
0
 40
0
 40
0
 40
0
 40
1
 40
1
 40
1
 40
1
 10
204.831294
 20
139.532299
 30
0.0
 10
204.831294
 20
139.256157
 30
0.0
 10
205.055151
 20
139.032300
 30
0.0
 10
205.331293
 20
139.032300
 30
0.0
  0
LWPOLYLINE
  5
2fd
100
AcDbEntity
  8
VISIBLE
 62
7
100
AcDbPolyline
 90
2
 70
0
 10
186.281293
 20
153.032300
 30
0.0
 10
199.281294
 20
153.032300
 30
0.0
  0
SPLINE
  5
2fe
100
AcDbEntity
  8
VISIBLE
 62
7
100
AcDbSpline
 70
8
 71
3
 72
8
 73
4
 74
0
 40
0
 40
0
 40
0
 40
0
 40
1
 40
1
 40
1
 40
1
 10
218.331294
 20
139.032300
 30
0.0
 10
218.607436
 20
139.032300
 30
0.0
 10
218.831293
 20
139.256157
 30
0.0
 10
218.831294
 20
139.532299
 30
0.0
  0
LWPOLYLINE
  5
2ff
100
AcDbEntity
  8
VISIBLE
 62
7
100
AcDbPolyline
 90
2
 70
0
 10
205.331293
 20
139.032300
 30
0.0
 10
218.331294
 20
139.032300
 30
0.0
  0
SPLINE
  5
300
100
AcDbEntity
  8
VISIBLE
 62
7
100
AcDbSpline
 70
8
 71
3
 72
8
 73
4
 74
0
 40
0
 40
0
 40
0
 40
0
 40
1
 40
1
 40
1
 40
1
 10
218.831294
 20
152.532300
 30
0.0
 10
218.831294
 20
152.664908
 30
0.0
 10
218.778615
 20
152.792085
 30
0.0
 10
218.684847
 20
152.885853
 30
0.0
  0
SPLINE
  5
301
100
AcDbEntity
  8
VISIBLE
 62
7
100
AcDbSpline
 70
8
 71
3
 72
8
 73
4
 74
0
 40
0
 40
0
 40
0
 40
0
 40
1
 40
1
 40
1
 40
1
 10
218.684847
 20
152.885853
 30
0.0
 10
218.591079
 20
152.979621
 30
0.0
 10
218.463902
 20
153.032300
 30
0.0
 10
218.331294
 20
153.032300
 30
0.0
  0
LWPOLYLINE
  5
302
100
AcDbEntity
  8
VISIBLE
 62
7
100
AcDbPolyline
 90
2
 70
0
 10
218.831294
 20
152.532300
 30
0.0
 10
218.831294
 20
139.532299
 30
0.0
  0
SPLINE
  5
303
100
AcDbEntity
  8
VISIBLE
 62
7
100
AcDbSpline
 70
8
 71
3
 72
8
 73
4
 74
0
 40
0
 40
0
 40
0
 40
0
 40
1
 40
1
 40
1
 40
1
 10
205.331293
 20
153.032300
 30
0.0
 10
205.055151
 20
153.032300
 30
0.0
 10
204.831294
 20
152.808442
 30
0.0
 10
204.831294
 20
152.532300
 30
0.0
  0
SPLINE
  5
304
100
AcDbEntity
  8
VISIBLE
 62
7
100
AcDbSpline
 70
8
 71
3
 72
8
 73
4
 74
0
 40
0
 40
0
 40
0
 40
0
 40
1
 40
1
 40
1
 40
1
 10
223.881294
 20
139.532299
 30
0.0
 10
223.881294
 20
139.256157
 30
0.0
 10
224.105151
 20
139.032300
 30
0.0
 10
224.381293
 20
139.032300
 30
0.0
  0
LWPOLYLINE
  5
305
100
AcDbEntity
  8
VISIBLE
 62
7
100
AcDbPolyline
 90
2
 70
0
 10
205.331293
 20
153.032300
 30
0.0
 10
218.331294
 20
153.032300
 30
0.0
  0
SPLINE
  5
306
100
AcDbEntity
  8
VISIBLE
 62
7
100
AcDbSpline
 70
8
 71
3
 72
8
 73
4
 74
0
 40
0
 40
0
 40
0
 40
0
 40
1
 40
1
 40
1
 40
1
 10
237.381294
 20
139.032300
 30
0.0
 10
237.657436
 20
139.032300
 30
0.0
 10
237.881293
 20
139.256157
 30
0.0
 10
237.881294
 20
139.532299
 30
0.0
  0
LWPOLYLINE
  5
307
100
AcDbEntity
  8
VISIBLE
 62
7
100
AcDbPolyline
 90
2
 70
0
 10
224.381293
 20
139.032300
 30
0.0
 10
237.381294
 20
139.032300
 30
0.0
  0
SPLINE
  5
308
100
AcDbEntity
  8
VISIBLE
 62
7
100
AcDbSpline
 70
8
 71
3
 72
8
 73
4
 74
0
 40
0
 40
0
 40
0
 40
0
 40
1
 40
1
 40
1
 40
1
 10
237.881294
 20
152.532300
 30
0.0
 10
237.881294
 20
152.664908
 30
0.0
 10
237.828615
 20
152.792085
 30
0.0
 10
237.734847
 20
152.885853
 30
0.0
  0
SPLINE
  5
309
100
AcDbEntity
  8
VISIBLE
 62
7
100
AcDbSpline
 70
8
 71
3
 72
8
 73
4
 74
0
 40
0
 40
0
 40
0
 40
0
 40
1
 40
1
 40
1
 40
1
 10
237.734847
 20
152.885853
 30
0.0
 10
237.641079
 20
152.979621
 30
0.0
 10
237.513902
 20
153.032300
 30
0.0
 10
237.381294
 20
153.032300
 30
0.0
  0
LWPOLYLINE
  5
30a
100
AcDbEntity
  8
VISIBLE
 62
7
100
AcDbPolyline
 90
2
 70
0
 10
237.881294
 20
152.532300
 30
0.0
 10
237.881294
 20
139.532299
 30
0.0
  0
SPLINE
  5
30b
100
AcDbEntity
  8
VISIBLE
 62
7
100
AcDbSpline
 70
8
 71
3
 72
8
 73
4
 74
0
 40
0
 40
0
 40
0
 40
0
 40
1
 40
1
 40
1
 40
1
 10
224.381293
 20
153.032300
 30
0.0
 10
224.105151
 20
153.032300
 30
0.0
 10
223.881294
 20
152.808442
 30
0.0
 10
223.881294
 20
152.532300
 30
0.0
  0
SPLINE
  5
30c
100
AcDbEntity
  8
VISIBLE
 62
7
100
AcDbSpline
 70
8
 71
3
 72
8
 73
4
 74
0
 40
0
 40
0
 40
0
 40
0
 40
1
 40
1
 40
1
 40
1
 10
242.931294
 20
139.532299
 30
0.0
 10
242.931294
 20
139.256157
 30
0.0
 10
243.155151
 20
139.032300
 30
0.0
 10
243.431293
 20
139.032300
 30
0.0
  0
LWPOLYLINE
  5
30d
100
AcDbEntity
  8
VISIBLE
 62
7
100
AcDbPolyline
 90
2
 70
0
 10
224.381293
 20
153.032300
 30
0.0
 10
237.381294
 20
153.032300
 30
0.0
  0
SPLINE
  5
30e
100
AcDbEntity
  8
VISIBLE
 62
7
100
AcDbSpline
 70
8
 71
3
 72
8
 73
4
 74
0
 40
0
 40
0
 40
0
 40
0
 40
1
 40
1
 40
1
 40
1
 10
256.431294
 20
139.032300
 30
0.0
 10
256.707436
 20
139.032300
 30
0.0
 10
256.931293
 20
139.256157
 30
0.0
 10
256.931294
 20
139.532299
 30
0.0
  0
LWPOLYLINE
  5
30f
100
AcDbEntity
  8
VISIBLE
 62
7
100
AcDbPolyline
 90
2
 70
0
 10
243.431293
 20
139.032300
 30
0.0
 10
256.431294
 20
139.032300
 30
0.0
  0
SPLINE
  5
310
100
AcDbEntity
  8
VISIBLE
 62
7
100
AcDbSpline
 70
8
 71
3
 72
8
 73
4
 74
0
 40
0
 40
0
 40
0
 40
0
 40
1
 40
1
 40
1
 40
1
 10
256.931294
 20
152.532300
 30
0.0
 10
256.931294
 20
152.664908
 30
0.0
 10
256.878615
 20
152.792085
 30
0.0
 10
256.784847
 20
152.885853
 30
0.0
  0
SPLINE
  5
311
100
AcDbEntity
  8
VISIBLE
 62
7
100
AcDbSpline
 70
8
 71
3
 72
8
 73
4
 74
0
 40
0
 40
0
 40
0
 40
0
 40
1
 40
1
 40
1
 40
1
 10
256.784847
 20
152.885853
 30
0.0
 10
256.691079
 20
152.979621
 30
0.0
 10
256.563902
 20
153.032300
 30
0.0
 10
256.431294
 20
153.032300
 30
0.0
  0
LWPOLYLINE
  5
312
100
AcDbEntity
  8
VISIBLE
 62
7
100
AcDbPolyline
 90
2
 70
0
 10
256.931294
 20
152.532300
 30
0.0
 10
256.931294
 20
139.532299
 30
0.0
  0
SPLINE
  5
313
100
AcDbEntity
  8
VISIBLE
 62
7
100
AcDbSpline
 70
8
 71
3
 72
8
 73
4
 74
0
 40
0
 40
0
 40
0
 40
0
 40
1
 40
1
 40
1
 40
1
 10
243.431293
 20
153.032300
 30
0.0
 10
243.155151
 20
153.032300
 30
0.0
 10
242.931294
 20
152.808442
 30
0.0
 10
242.931294
 20
152.532300
 30
0.0
  0
SPLINE
  5
314
100
AcDbEntity
  8
VISIBLE
 62
7
100
AcDbSpline
 70
8
 71
3
 72
8
 73
4
 74
0
 40
0
 40
0
 40
0
 40
0
 40
1
 40
1
 40
1
 40
1
 10
261.981294
 20
139.532299
 30
0.0
 10
261.981294
 20
139.256157
 30
0.0
 10
262.205151
 20
139.032300
 30
0.0
 10
262.481293
 20
139.032300
 30
0.0
  0
LWPOLYLINE
  5
315
100
AcDbEntity
  8
VISIBLE
 62
7
100
AcDbPolyline
 90
2
 70
0
 10
243.431293
 20
153.032300
 30
0.0
 10
256.431294
 20
153.032300
 30
0.0
  0
SPLINE
  5
316
100
AcDbEntity
  8
VISIBLE
 62
7
100
AcDbSpline
 70
8
 71
3
 72
8
 73
4
 74
0
 40
0
 40
0
 40
0
 40
0
 40
1
 40
1
 40
1
 40
1
 10
275.481294
 20
139.032300
 30
0.0
 10
275.757436
 20
139.032300
 30
0.0
 10
275.981293
 20
139.256157
 30
0.0
 10
275.981294
 20
139.532299
 30
0.0
  0
LWPOLYLINE
  5
317
100
AcDbEntity
  8
VISIBLE
 62
7
100
AcDbPolyline
 90
2
 70
0
 10
262.481293
 20
139.032300
 30
0.0
 10
275.481294
 20
139.032300
 30
0.0
  0
SPLINE
  5
318
100
AcDbEntity
  8
VISIBLE
 62
7
100
AcDbSpline
 70
8
 71
3
 72
8
 73
4
 74
0
 40
0
 40
0
 40
0
 40
0
 40
1
 40
1
 40
1
 40
1
 10
275.981294
 20
152.532300
 30
0.0
 10
275.981294
 20
152.664908
 30
0.0
 10
275.928615
 20
152.792085
 30
0.0
 10
275.834847
 20
152.885853
 30
0.0
  0
SPLINE
  5
319
100
AcDbEntity
  8
VISIBLE
 62
7
100
AcDbSpline
 70
8
 71
3
 72
8
 73
4
 74
0
 40
0
 40
0
 40
0
 40
0
 40
1
 40
1
 40
1
 40
1
 10
275.834847
 20
152.885853
 30
0.0
 10
275.741079
 20
152.979621
 30
0.0
 10
275.613902
 20
153.032300
 30
0.0
 10
275.481294
 20
153.032300
 30
0.0
  0
LWPOLYLINE
  5
31a
100
AcDbEntity
  8
VISIBLE
 62
7
100
AcDbPolyline
 90
2
 70
0
 10
275.981294
 20
152.532300
 30
0.0
 10
275.981294
 20
139.532299
 30
0.0
  0
SPLINE
  5
31b
100
AcDbEntity
  8
VISIBLE
 62
7
100
AcDbSpline
 70
8
 71
3
 72
8
 73
4
 74
0
 40
0
 40
0
 40
0
 40
0
 40
1
 40
1
 40
1
 40
1
 10
262.481293
 20
153.032300
 30
0.0
 10
262.205151
 20
153.032300
 30
0.0
 10
261.981294
 20
152.808442
 30
0.0
 10
261.981294
 20
152.532300
 30
0.0
  0
SPLINE
  5
31c
100
AcDbEntity
  8
VISIBLE
 62
7
100
AcDbSpline
 70
8
 71
3
 72
8
 73
4
 74
0
 40
0
 40
0
 40
0
 40
0
 40
1
 40
1
 40
1
 40
1
 10
281.031294
 20
139.532299
 30
0.0
 10
281.031294
 20
139.256157
 30
0.0
 10
281.255151
 20
139.032300
 30
0.0
 10
281.531293
 20
139.032300
 30
0.0
  0
LWPOLYLINE
  5
31d
100
AcDbEntity
  8
VISIBLE
 62
7
100
AcDbPolyline
 90
2
 70
0
 10
262.481293
 20
153.032300
 30
0.0
 10
275.481294
 20
153.032300
 30
0.0
  0
SPLINE
  5
31e
100
AcDbEntity
  8
VISIBLE
 62
7
100
AcDbSpline
 70
8
 71
3
 72
8
 73
4
 74
0
 40
0
 40
0
 40
0
 40
0
 40
1
 40
1
 40
1
 40
1
 10
294.531294
 20
139.032300
 30
0.0
 10
294.807436
 20
139.032300
 30
0.0
 10
295.031293
 20
139.256157
 30
0.0
 10
295.031294
 20
139.532299
 30
0.0
  0
LWPOLYLINE
  5
31f
100
AcDbEntity
  8
VISIBLE
 62
7
100
AcDbPolyline
 90
2
 70
0
 10
281.531293
 20
139.032300
 30
0.0
 10
294.531294
 20
139.032300
 30
0.0
  0
SPLINE
  5
320
100
AcDbEntity
  8
VISIBLE
 62
7
100
AcDbSpline
 70
8
 71
3
 72
8
 73
4
 74
0
 40
0
 40
0
 40
0
 40
0
 40
1
 40
1
 40
1
 40
1
 10
295.031294
 20
152.532300
 30
0.0
 10
295.031294
 20
152.664908
 30
0.0
 10
294.978615
 20
152.792085
 30
0.0
 10
294.884847
 20
152.885853
 30
0.0
  0
SPLINE
  5
321
100
AcDbEntity
  8
VISIBLE
 62
7
100
AcDbSpline
 70
8
 71
3
 72
8
 73
4
 74
0
 40
0
 40
0
 40
0
 40
0
 40
1
 40
1
 40
1
 40
1
 10
294.884847
 20
152.885853
 30
0.0
 10
294.791079
 20
152.979621
 30
0.0
 10
294.663902
 20
153.032300
 30
0.0
 10
294.531294
 20
153.032300
 30
0.0
  0
LWPOLYLINE
  5
322
100
AcDbEntity
  8
VISIBLE
 62
7
100
AcDbPolyline
 90
2
 70
0
 10
295.031294
 20
152.532300
 30
0.0
 10
295.031294
 20
139.532299
 30
0.0
  0
SPLINE
  5
323
100
AcDbEntity
  8
VISIBLE
 62
7
100
AcDbSpline
 70
8
 71
3
 72
8
 73
4
 74
0
 40
0
 40
0
 40
0
 40
0
 40
1
 40
1
 40
1
 40
1
 10
281.531293
 20
153.032300
 30
0.0
 10
281.255151
 20
153.032300
 30
0.0
 10
281.031294
 20
152.808442
 30
0.0
 10
281.031294
 20
152.532300
 30
0.0
  0
SPLINE
  5
324
100
AcDbEntity
  8
VISIBLE
 62
7
100
AcDbSpline
 70
8
 71
3
 72
8
 73
4
 74
0
 40
0
 40
0
 40
0
 40
0
 40
1
 40
1
 40
1
 40
1
 10
307.225044
 20
139.532299
 30
0.0
 10
307.225044
 20
139.256157
 30
0.0
 10
307.448901
 20
139.032300
 30
0.0
 10
307.725043
 20
139.032300
 30
0.0
  0
LWPOLYLINE
  5
325
100
AcDbEntity
  8
VISIBLE
 62
7
100
AcDbPolyline
 90
2
 70
0
 10
281.531293
 20
153.032300
 30
0.0
 10
294.531294
 20
153.032300
 30
0.0
  0
SPLINE
  5
326
100
AcDbEntity
  8
VISIBLE
 62
7
100
AcDbSpline
 70
8
 71
3
 72
8
 73
4
 74
0
 40
0
 40
0
 40
0
 40
0
 40
1
 40
1
 40
1
 40
1
 10
320.725044
 20
139.032300
 30
0.0
 10
321.001186
 20
139.032300
 30
0.0
 10
321.225043
 20
139.256157
 30
0.0
 10
321.225044
 20
139.532299
 30
0.0
  0
LWPOLYLINE
  5
327
100
AcDbEntity
  8
VISIBLE
 62
7
100
AcDbPolyline
 90
2
 70
0
 10
307.725043
 20
139.032300
 30
0.0
 10
320.725044
 20
139.032300
 30
0.0
  0
SPLINE
  5
328
100
AcDbEntity
  8
VISIBLE
 62
7
100
AcDbSpline
 70
8
 71
3
 72
8
 73
4
 74
0
 40
0
 40
0
 40
0
 40
0
 40
1
 40
1
 40
1
 40
1
 10
321.225044
 20
152.532300
 30
0.0
 10
321.225044
 20
152.664908
 30
0.0
 10
321.172365
 20
152.792085
 30
0.0
 10
321.078597
 20
152.885853
 30
0.0
  0
SPLINE
  5
329
100
AcDbEntity
  8
VISIBLE
 62
7
100
AcDbSpline
 70
8
 71
3
 72
8
 73
4
 74
0
 40
0
 40
0
 40
0
 40
0
 40
1
 40
1
 40
1
 40
1
 10
321.078597
 20
152.885853
 30
0.0
 10
320.984829
 20
152.979621
 30
0.0
 10
320.857652
 20
153.032300
 30
0.0
 10
320.725044
 20
153.032300
 30
0.0
  0
LWPOLYLINE
  5
32a
100
AcDbEntity
  8
VISIBLE
 62
7
100
AcDbPolyline
 90
2
 70
0
 10
321.225044
 20
152.532300
 30
0.0
 10
321.225044
 20
139.532299
 30
0.0
  0
SPLINE
  5
32b
100
AcDbEntity
  8
VISIBLE
 62
7
100
AcDbSpline
 70
8
 71
3
 72
8
 73
4
 74
0
 40
0
 40
0
 40
0
 40
0
 40
1
 40
1
 40
1
 40
1
 10
307.725043
 20
153.032300
 30
0.0
 10
307.448901
 20
153.032300
 30
0.0
 10
307.225044
 20
152.808442
 30
0.0
 10
307.225044
 20
152.532300
 30
0.0
  0
SPLINE
  5
32c
100
AcDbEntity
  8
VISIBLE
 62
7
100
AcDbSpline
 70
8
 71
3
 72
8
 73
4
 74
0
 40
0
 40
0
 40
0
 40
0
 40
1
 40
1
 40
1
 40
1
 10
333.418794
 20
139.532299
 30
0.0
 10
333.418794
 20
139.256157
 30
0.0
 10
333.642651
 20
139.032300
 30
0.0
 10
333.918793
 20
139.032300
 30
0.0
  0
LWPOLYLINE
  5
32d
100
AcDbEntity
  8
VISIBLE
 62
7
100
AcDbPolyline
 90
2
 70
0
 10
307.725043
 20
153.032300
 30
0.0
 10
320.725044
 20
153.032300
 30
0.0
  0
SPLINE
  5
32e
100
AcDbEntity
  8
VISIBLE
 62
7
100
AcDbSpline
 70
8
 71
3
 72
8
 73
4
 74
0
 40
0
 40
0
 40
0
 40
0
 40
1
 40
1
 40
1
 40
1
 10
346.918794
 20
139.032300
 30
0.0
 10
347.194936
 20
139.032300
 30
0.0
 10
347.418793
 20
139.256157
 30
0.0
 10
347.418794
 20
139.532299
 30
0.0
  0
LWPOLYLINE
  5
32f
100
AcDbEntity
  8
VISIBLE
 62
7
100
AcDbPolyline
 90
2
 70
0
 10
333.918793
 20
139.032300
 30
0.0
 10
346.918794
 20
139.032300
 30
0.0
  0
SPLINE
  5
330
100
AcDbEntity
  8
VISIBLE
 62
7
100
AcDbSpline
 70
8
 71
3
 72
8
 73
4
 74
0
 40
0
 40
0
 40
0
 40
0
 40
1
 40
1
 40
1
 40
1
 10
347.418794
 20
152.532300
 30
0.0
 10
347.418794
 20
152.664908
 30
0.0
 10
347.366115
 20
152.792085
 30
0.0
 10
347.272347
 20
152.885853
 30
0.0
  0
SPLINE
  5
331
100
AcDbEntity
  8
VISIBLE
 62
7
100
AcDbSpline
 70
8
 71
3
 72
8
 73
4
 74
0
 40
0
 40
0
 40
0
 40
0
 40
1
 40
1
 40
1
 40
1
 10
347.272347
 20
152.885853
 30
0.0
 10
347.178579
 20
152.979621
 30
0.0
 10
347.051402
 20
153.032300
 30
0.0
 10
346.918794
 20
153.032300
 30
0.0
  0
LWPOLYLINE
  5
332
100
AcDbEntity
  8
VISIBLE
 62
7
100
AcDbPolyline
 90
2
 70
0
 10
347.418794
 20
152.532300
 30
0.0
 10
347.418794
 20
139.532299
 30
0.0
  0
SPLINE
  5
333
100
AcDbEntity
  8
VISIBLE
 62
7
100
AcDbSpline
 70
8
 71
3
 72
8
 73
4
 74
0
 40
0
 40
0
 40
0
 40
0
 40
1
 40
1
 40
1
 40
1
 10
333.918793
 20
153.032300
 30
0.0
 10
333.642651
 20
153.032300
 30
0.0
 10
333.418794
 20
152.808442
 30
0.0
 10
333.418794
 20
152.532300
 30
0.0
  0
SPLINE
  5
334
100
AcDbEntity
  8
VISIBLE
 62
7
100
AcDbSpline
 70
8
 71
3
 72
8
 73
4
 74
0
 40
0
 40
0
 40
0
 40
0
 40
1
 40
1
 40
1
 40
1
 10
352.468794
 20
139.532299
 30
0.0
 10
352.468794
 20
139.256157
 30
0.0
 10
352.692651
 20
139.032300
 30
0.0
 10
352.968793
 20
139.032300
 30
0.0
  0
LWPOLYLINE
  5
335
100
AcDbEntity
  8
VISIBLE
 62
7
100
AcDbPolyline
 90
2
 70
0
 10
333.918793
 20
153.032300
 30
0.0
 10
346.918794
 20
153.032300
 30
0.0
  0
SPLINE
  5
336
100
AcDbEntity
  8
VISIBLE
 62
7
100
AcDbSpline
 70
8
 71
3
 72
8
 73
4
 74
0
 40
0
 40
0
 40
0
 40
0
 40
1
 40
1
 40
1
 40
1
 10
365.968794
 20
139.032300
 30
0.0
 10
366.244936
 20
139.032300
 30
0.0
 10
366.468793
 20
139.256157
 30
0.0
 10
366.468794
 20
139.532299
 30
0.0
  0
LWPOLYLINE
  5
337
100
AcDbEntity
  8
VISIBLE
 62
7
100
AcDbPolyline
 90
2
 70
0
 10
352.968793
 20
139.032300
 30
0.0
 10
365.968794
 20
139.032300
 30
0.0
  0
SPLINE
  5
338
100
AcDbEntity
  8
VISIBLE
 62
7
100
AcDbSpline
 70
8
 71
3
 72
8
 73
4
 74
0
 40
0
 40
0
 40
0
 40
0
 40
1
 40
1
 40
1
 40
1
 10
366.468794
 20
152.532300
 30
0.0
 10
366.468794
 20
152.664908
 30
0.0
 10
366.416115
 20
152.792085
 30
0.0
 10
366.322347
 20
152.885853
 30
0.0
  0
SPLINE
  5
339
100
AcDbEntity
  8
VISIBLE
 62
7
100
AcDbSpline
 70
8
 71
3
 72
8
 73
4
 74
0
 40
0
 40
0
 40
0
 40
0
 40
1
 40
1
 40
1
 40
1
 10
366.322347
 20
152.885853
 30
0.0
 10
366.228579
 20
152.979621
 30
0.0
 10
366.101402
 20
153.032300
 30
0.0
 10
365.968794
 20
153.032300
 30
0.0
  0
LWPOLYLINE
  5
33a
100
AcDbEntity
  8
VISIBLE
 62
7
100
AcDbPolyline
 90
2
 70
0
 10
366.468794
 20
152.532300
 30
0.0
 10
366.468794
 20
139.532299
 30
0.0
  0
SPLINE
  5
33b
100
AcDbEntity
  8
VISIBLE
 62
7
100
AcDbSpline
 70
8
 71
3
 72
8
 73
4
 74
0
 40
0
 40
0
 40
0
 40
0
 40
1
 40
1
 40
1
 40
1
 10
352.968793
 20
153.032300
 30
0.0
 10
352.692651
 20
153.032300
 30
0.0
 10
352.468794
 20
152.808442
 30
0.0
 10
352.468794
 20
152.532300
 30
0.0
  0
SPLINE
  5
33c
100
AcDbEntity
  8
VISIBLE
 62
7
100
AcDbSpline
 70
8
 71
3
 72
8
 73
4
 74
0
 40
0
 40
0
 40
0
 40
0
 40
1
 40
1
 40
1
 40
1
 10
69.100044
 20
120.482299
 30
0.0
 10
69.100044
 20
120.206157
 30
0.0
 10
69.323901
 20
119.982300
 30
0.0
 10
69.600043
 20
119.982300
 30
0.0
  0
LWPOLYLINE
  5
33d
100
AcDbEntity
  8
VISIBLE
 62
7
100
AcDbPolyline
 90
2
 70
0
 10
352.968793
 20
153.032300
 30
0.0
 10
365.968794
 20
153.032300
 30
0.0
  0
SPLINE
  5
33e
100
AcDbEntity
  8
VISIBLE
 62
7
100
AcDbSpline
 70
8
 71
3
 72
8
 73
4
 74
0
 40
0
 40
0
 40
0
 40
0
 40
1
 40
1
 40
1
 40
1
 10
82.600044
 20
119.982300
 30
0.0
 10
82.876186
 20
119.982300
 30
0.0
 10
83.100043
 20
120.206157
 30
0.0
 10
83.100044
 20
120.482299
 30
0.0
  0
LWPOLYLINE
  5
33f
100
AcDbEntity
  8
VISIBLE
 62
7
100
AcDbPolyline
 90
2
 70
0
 10
69.600043
 20
119.982300
 30
0.0
 10
82.600044
 20
119.982300
 30
0.0
  0
SPLINE
  5
340
100
AcDbEntity
  8
VISIBLE
 62
7
100
AcDbSpline
 70
8
 71
3
 72
8
 73
4
 74
0
 40
0
 40
0
 40
0
 40
0
 40
1
 40
1
 40
1
 40
1
 10
83.100044
 20
133.482300
 30
0.0
 10
83.100044
 20
133.614908
 30
0.0
 10
83.047365
 20
133.742085
 30
0.0
 10
82.953597
 20
133.835853
 30
0.0
  0
SPLINE
  5
341
100
AcDbEntity
  8
VISIBLE
 62
7
100
AcDbSpline
 70
8
 71
3
 72
8
 73
4
 74
0
 40
0
 40
0
 40
0
 40
0
 40
1
 40
1
 40
1
 40
1
 10
82.953597
 20
133.835853
 30
0.0
 10
82.859829
 20
133.929621
 30
0.0
 10
82.732652
 20
133.982300
 30
0.0
 10
82.600044
 20
133.982300
 30
0.0
  0
LWPOLYLINE
  5
342
100
AcDbEntity
  8
VISIBLE
 62
7
100
AcDbPolyline
 90
2
 70
0
 10
83.100044
 20
133.482300
 30
0.0
 10
83.100044
 20
120.482299
 30
0.0
  0
SPLINE
  5
343
100
AcDbEntity
  8
VISIBLE
 62
7
100
AcDbSpline
 70
8
 71
3
 72
8
 73
4
 74
0
 40
0
 40
0
 40
0
 40
0
 40
1
 40
1
 40
1
 40
1
 10
69.600043
 20
133.982300
 30
0.0
 10
69.323901
 20
133.982300
 30
0.0
 10
69.100044
 20
133.758442
 30
0.0
 10
69.100044
 20
133.482300
 30
0.0
  0
SPLINE
  5
344
100
AcDbEntity
  8
VISIBLE
 62
7
100
AcDbSpline
 70
8
 71
3
 72
8
 73
4
 74
0
 40
0
 40
0
 40
0
 40
0
 40
1
 40
1
 40
1
 40
1
 10
92.912544
 20
120.482299
 30
0.0
 10
92.912544
 20
120.206157
 30
0.0
 10
93.136401
 20
119.982300
 30
0.0
 10
93.412543
 20
119.982300
 30
0.0
  0
LWPOLYLINE
  5
345
100
AcDbEntity
  8
VISIBLE
 62
7
100
AcDbPolyline
 90
2
 70
0
 10
69.600043
 20
133.982300
 30
0.0
 10
82.600044
 20
133.982300
 30
0.0
  0
SPLINE
  5
346
100
AcDbEntity
  8
VISIBLE
 62
7
100
AcDbSpline
 70
8
 71
3
 72
8
 73
4
 74
0
 40
0
 40
0
 40
0
 40
0
 40
1
 40
1
 40
1
 40
1
 10
106.412544
 20
119.982300
 30
0.0
 10
106.688686
 20
119.982300
 30
0.0
 10
106.912543
 20
120.206157
 30
0.0
 10
106.912544
 20
120.482299
 30
0.0
  0
LWPOLYLINE
  5
347
100
AcDbEntity
  8
VISIBLE
 62
7
100
AcDbPolyline
 90
2
 70
0
 10
93.412543
 20
119.982300
 30
0.0
 10
106.412544
 20
119.982300
 30
0.0
  0
SPLINE
  5
348
100
AcDbEntity
  8
VISIBLE
 62
7
100
AcDbSpline
 70
8
 71
3
 72
8
 73
4
 74
0
 40
0
 40
0
 40
0
 40
0
 40
1
 40
1
 40
1
 40
1
 10
106.912544
 20
133.482300
 30
0.0
 10
106.912544
 20
133.614908
 30
0.0
 10
106.859865
 20
133.742085
 30
0.0
 10
106.766097
 20
133.835853
 30
0.0
  0
SPLINE
  5
349
100
AcDbEntity
  8
VISIBLE
 62
7
100
AcDbSpline
 70
8
 71
3
 72
8
 73
4
 74
0
 40
0
 40
0
 40
0
 40
0
 40
1
 40
1
 40
1
 40
1
 10
106.766097
 20
133.835853
 30
0.0
 10
106.672329
 20
133.929621
 30
0.0
 10
106.545152
 20
133.982300
 30
0.0
 10
106.412544
 20
133.982300
 30
0.0
  0
LWPOLYLINE
  5
34a
100
AcDbEntity
  8
VISIBLE
 62
7
100
AcDbPolyline
 90
2
 70
0
 10
106.912544
 20
133.482300
 30
0.0
 10
106.912544
 20
120.482299
 30
0.0
  0
SPLINE
  5
34b
100
AcDbEntity
  8
VISIBLE
 62
7
100
AcDbSpline
 70
8
 71
3
 72
8
 73
4
 74
0
 40
0
 40
0
 40
0
 40
0
 40
1
 40
1
 40
1
 40
1
 10
93.412543
 20
133.982300
 30
0.0
 10
93.136401
 20
133.982300
 30
0.0
 10
92.912544
 20
133.758442
 30
0.0
 10
92.912544
 20
133.482300
 30
0.0
  0
SPLINE
  5
34c
100
AcDbEntity
  8
VISIBLE
 62
7
100
AcDbSpline
 70
8
 71
3
 72
8
 73
4
 74
0
 40
0
 40
0
 40
0
 40
0
 40
1
 40
1
 40
1
 40
1
 10
116.725044
 20
120.482299
 30
0.0
 10
116.725044
 20
120.206157
 30
0.0
 10
116.948901
 20
119.982300
 30
0.0
 10
117.225043
 20
119.982300
 30
0.0
  0
LWPOLYLINE
  5
34d
100
AcDbEntity
  8
VISIBLE
 62
7
100
AcDbPolyline
 90
2
 70
0
 10
93.412543
 20
133.982300
 30
0.0
 10
106.412544
 20
133.982300
 30
0.0
  0
SPLINE
  5
34e
100
AcDbEntity
  8
VISIBLE
 62
7
100
AcDbSpline
 70
8
 71
3
 72
8
 73
4
 74
0
 40
0
 40
0
 40
0
 40
0
 40
1
 40
1
 40
1
 40
1
 10
130.225044
 20
119.982300
 30
0.0
 10
130.501186
 20
119.982300
 30
0.0
 10
130.725043
 20
120.206157
 30
0.0
 10
130.725044
 20
120.482299
 30
0.0
  0
LWPOLYLINE
  5
34f
100
AcDbEntity
  8
VISIBLE
 62
7
100
AcDbPolyline
 90
2
 70
0
 10
117.225043
 20
119.982300
 30
0.0
 10
130.225044
 20
119.982300
 30
0.0
  0
SPLINE
  5
350
100
AcDbEntity
  8
VISIBLE
 62
7
100
AcDbSpline
 70
8
 71
3
 72
8
 73
4
 74
0
 40
0
 40
0
 40
0
 40
0
 40
1
 40
1
 40
1
 40
1
 10
130.725044
 20
133.482300
 30
0.0
 10
130.725044
 20
133.614908
 30
0.0
 10
130.672365
 20
133.742085
 30
0.0
 10
130.578597
 20
133.835853
 30
0.0
  0
SPLINE
  5
351
100
AcDbEntity
  8
VISIBLE
 62
7
100
AcDbSpline
 70
8
 71
3
 72
8
 73
4
 74
0
 40
0
 40
0
 40
0
 40
0
 40
1
 40
1
 40
1
 40
1
 10
130.578597
 20
133.835853
 30
0.0
 10
130.484829
 20
133.929621
 30
0.0
 10
130.357652
 20
133.982300
 30
0.0
 10
130.225044
 20
133.982300
 30
0.0
  0
LWPOLYLINE
  5
352
100
AcDbEntity
  8
VISIBLE
 62
7
100
AcDbPolyline
 90
2
 70
0
 10
130.725044
 20
133.482300
 30
0.0
 10
130.725044
 20
120.482299
 30
0.0
  0
SPLINE
  5
353
100
AcDbEntity
  8
VISIBLE
 62
7
100
AcDbSpline
 70
8
 71
3
 72
8
 73
4
 74
0
 40
0
 40
0
 40
0
 40
0
 40
1
 40
1
 40
1
 40
1
 10
117.225043
 20
133.982300
 30
0.0
 10
116.948901
 20
133.982300
 30
0.0
 10
116.725044
 20
133.758442
 30
0.0
 10
116.725044
 20
133.482300
 30
0.0
  0
SPLINE
  5
354
100
AcDbEntity
  8
VISIBLE
 62
7
100
AcDbSpline
 70
8
 71
3
 72
8
 73
4
 74
0
 40
0
 40
0
 40
0
 40
0
 40
1
 40
1
 40
1
 40
1
 10
188.162544
 20
120.482299
 30
0.0
 10
188.162544
 20
120.206157
 30
0.0
 10
188.386401
 20
119.982300
 30
0.0
 10
188.662543
 20
119.982300
 30
0.0
  0
LWPOLYLINE
  5
355
100
AcDbEntity
  8
VISIBLE
 62
7
100
AcDbPolyline
 90
2
 70
0
 10
117.225043
 20
133.982300
 30
0.0
 10
130.225044
 20
133.982300
 30
0.0
  0
SPLINE
  5
356
100
AcDbEntity
  8
VISIBLE
 62
7
100
AcDbSpline
 70
8
 71
3
 72
8
 73
4
 74
0
 40
0
 40
0
 40
0
 40
0
 40
1
 40
1
 40
1
 40
1
 10
201.662544
 20
119.982300
 30
0.0
 10
201.938686
 20
119.982300
 30
0.0
 10
202.162543
 20
120.206157
 30
0.0
 10
202.162544
 20
120.482299
 30
0.0
  0
LWPOLYLINE
  5
357
100
AcDbEntity
  8
VISIBLE
 62
7
100
AcDbPolyline
 90
2
 70
0
 10
188.662543
 20
119.982300
 30
0.0
 10
201.662544
 20
119.982300
 30
0.0
  0
SPLINE
  5
358
100
AcDbEntity
  8
VISIBLE
 62
7
100
AcDbSpline
 70
8
 71
3
 72
8
 73
4
 74
0
 40
0
 40
0
 40
0
 40
0
 40
1
 40
1
 40
1
 40
1
 10
202.162544
 20
133.482300
 30
0.0
 10
202.162544
 20
133.614908
 30
0.0
 10
202.109865
 20
133.742085
 30
0.0
 10
202.016097
 20
133.835853
 30
0.0
  0
SPLINE
  5
359
100
AcDbEntity
  8
VISIBLE
 62
7
100
AcDbSpline
 70
8
 71
3
 72
8
 73
4
 74
0
 40
0
 40
0
 40
0
 40
0
 40
1
 40
1
 40
1
 40
1
 10
202.016097
 20
133.835853
 30
0.0
 10
201.922329
 20
133.929621
 30
0.0
 10
201.795152
 20
133.982300
 30
0.0
 10
201.662544
 20
133.982300
 30
0.0
  0
LWPOLYLINE
  5
35a
100
AcDbEntity
  8
VISIBLE
 62
7
100
AcDbPolyline
 90
2
 70
0
 10
202.162544
 20
133.482300
 30
0.0
 10
202.162544
 20
120.482299
 30
0.0
  0
SPLINE
  5
35b
100
AcDbEntity
  8
VISIBLE
 62
7
100
AcDbSpline
 70
8
 71
3
 72
8
 73
4
 74
0
 40
0
 40
0
 40
0
 40
0
 40
1
 40
1
 40
1
 40
1
 10
188.662543
 20
133.982300
 30
0.0
 10
188.386401
 20
133.982300
 30
0.0
 10
188.162544
 20
133.758442
 30
0.0
 10
188.162544
 20
133.482300
 30
0.0
  0
SPLINE
  5
35c
100
AcDbEntity
  8
VISIBLE
 62
7
100
AcDbSpline
 70
8
 71
3
 72
8
 73
4
 74
0
 40
0
 40
0
 40
0
 40
0
 40
1
 40
1
 40
1
 40
1
 10
148.662543
 20
135.482300
 30
0.0
 10
148.662543
 20
135.614908
 30
0.0
 10
148.609865
 20
135.742085
 30
0.0
 10
148.516097
 20
135.835853
 30
0.0
  0
SPLINE
  5
35d
100
AcDbEntity
  8
VISIBLE
 62
7
100
AcDbSpline
 70
8
 71
3
 72
8
 73
4
 74
0
 40
0
 40
0
 40
0
 40
0
 40
1
 40
1
 40
1
 40
1
 10
148.516097
 20
135.835853
 30
0.0
 10
148.422329
 20
135.929621
 30
0.0
 10
148.295152
 20
135.982300
 30
0.0
 10
148.162543
 20
135.982300
 30
0.0
  0
LWPOLYLINE
  5
35e
100
AcDbEntity
  8
VISIBLE
 62
7
100
AcDbPolyline
 90
2
 70
0
 10
188.662543
 20
133.982300
 30
0.0
 10
201.662544
 20
133.982300
 30
0.0
  0
SPLINE
  5
35f
100
AcDbEntity
  8
VISIBLE
 62
7
100
AcDbSpline
 70
8
 71
3
 72
8
 73
4
 74
0
 40
0
 40
0
 40
0
 40
0
 40
1
 40
1
 40
1
 40
1
 10
142.162543
 20
135.982300
 30
0.0
 10
141.886401
 20
135.982300
 30
0.0
 10
141.662543
 20
135.758442
 30
0.0
 10
141.662543
 20
135.482300
 30
0.0
  0
LWPOLYLINE
  5
360
100
AcDbEntity
  8
VISIBLE
 62
7
100
AcDbPolyline
 90
2
 70
0
 10
148.162543
 20
135.982300
 30
0.0
 10
142.162543
 20
135.982300
 30
0.0
  0
SPLINE
  5
361
100
AcDbEntity
  8
VISIBLE
 62
7
100
AcDbSpline
 70
8
 71
3
 72
8
 73
4
 74
0
 40
0
 40
0
 40
0
 40
0
 40
1
 40
1
 40
1
 40
1
 10
141.662543
 20
121.482300
 30
0.0
 10
141.662543
 20
121.206157
 30
0.0
 10
141.886401
 20
120.982299
 30
0.0
 10
142.162543
 20
120.982299
 30
0.0
  0
LWPOLYLINE
  5
362
100
AcDbEntity
  8
VISIBLE
 62
7
100
AcDbPolyline
 90
2
 70
0
 10
141.662543
 20
121.482300
 30
0.0
 10
141.662543
 20
135.482300
 30
0.0
  0
SPLINE
  5
363
100
AcDbEntity
  8
VISIBLE
 62
7
100
AcDbSpline
 70
8
 71
3
 72
8
 73
4
 74
0
 40
0
 40
0
 40
0
 40
0
 40
1
 40
1
 40
1
 40
1
 10
148.162543
 20
120.982299
 30
0.0
 10
148.295152
 20
120.982299
 30
0.0
 10
148.422329
 20
121.034978
 30
0.0
 10
148.516097
 20
121.128746
 30
0.0
  0
SPLINE
  5
364
100
AcDbEntity
  8
VISIBLE
 62
7
100
AcDbSpline
 70
8
 71
3
 72
8
 73
4
 74
0
 40
0
 40
0
 40
0
 40
0
 40
1
 40
1
 40
1
 40
1
 10
148.516097
 20
121.128746
 30
0.0
 10
148.609865
 20
121.222514
 30
0.0
 10
148.662543
 20
121.349691
 30
0.0
 10
148.662543
 20
121.482300
 30
0.0
  0
SPLINE
  5
365
100
AcDbEntity
  8
VISIBLE
 62
7
100
AcDbSpline
 70
8
 71
3
 72
8
 73
4
 74
0
 40
0
 40
0
 40
0
 40
0
 40
1
 40
1
 40
1
 40
1
 10
248.662543
 20
135.482300
 30
0.0
 10
248.662543
 20
135.614908
 30
0.0
 10
248.609865
 20
135.742085
 30
0.0
 10
248.516097
 20
135.835853
 30
0.0
  0
SPLINE
  5
366
100
AcDbEntity
  8
VISIBLE
 62
7
100
AcDbSpline
 70
8
 71
3
 72
8
 73
4
 74
0
 40
0
 40
0
 40
0
 40
0
 40
1
 40
1
 40
1
 40
1
 10
248.516097
 20
135.835853
 30
0.0
 10
248.422329
 20
135.929621
 30
0.0
 10
248.295152
 20
135.982300
 30
0.0
 10
248.162543
 20
135.982300
 30
0.0
  0
LWPOLYLINE
  5
367
100
AcDbEntity
  8
VISIBLE
 62
7
100
AcDbPolyline
 90
2
 70
0
 10
148.162543
 20
120.982299
 30
0.0
 10
142.162543
 20
120.982299
 30
0.0
  0
SPLINE
  5
368
100
AcDbEntity
  8
VISIBLE
 62
7
100
AcDbSpline
 70
8
 71
3
 72
8
 73
4
 74
0
 40
0
 40
0
 40
0
 40
0
 40
1
 40
1
 40
1
 40
1
 10
242.162544
 20
135.982300
 30
0.0
 10
242.029935
 20
135.982300
 30
0.0
 10
241.902758
 20
135.929621
 30
0.0
 10
241.808990
 20
135.835853
 30
0.0
  0
SPLINE
  5
369
100
AcDbEntity
  8
VISIBLE
 62
7
100
AcDbSpline
 70
8
 71
3
 72
8
 73
4
 74
0
 40
0
 40
0
 40
0
 40
0
 40
1
 40
1
 40
1
 40
1
 10
241.808990
 20
135.835853
 30
0.0
 10
241.715222
 20
135.742085
 30
0.0
 10
241.662543
 20
135.614908
 30
0.0
 10
241.662543
 20
135.482300
 30
0.0
  0
LWPOLYLINE
  5
36a
100
AcDbEntity
  8
VISIBLE
 62
7
100
AcDbPolyline
 90
2
 70
0
 10
248.162543
 20
135.982300
 30
0.0
 10
242.162544
 20
135.982300
 30
0.0
  0
SPLINE
  5
36b
100
AcDbEntity
  8
VISIBLE
 62
7
100
AcDbSpline
 70
8
 71
3
 72
8
 73
4
 74
0
 40
0
 40
0
 40
0
 40
0
 40
1
 40
1
 40
1
 40
1
 10
241.662543
 20
121.482300
 30
0.0
 10
241.662543
 20
121.349691
 30
0.0
 10
241.715222
 20
121.222514
 30
0.0
 10
241.808990
 20
121.128746
 30
0.0
  0
SPLINE
  5
36c
100
AcDbEntity
  8
VISIBLE
 62
7
100
AcDbSpline
 70
8
 71
3
 72
8
 73
4
 74
0
 40
0
 40
0
 40
0
 40
0
 40
1
 40
1
 40
1
 40
1
 10
241.808990
 20
121.128746
 30
0.0
 10
241.902758
 20
121.034978
 30
0.0
 10
242.029935
 20
120.982299
 30
0.0
 10
242.162544
 20
120.982299
 30
0.0
  0
LWPOLYLINE
  5
36d
100
AcDbEntity
  8
VISIBLE
 62
7
100
AcDbPolyline
 90
2
 70
0
 10
241.662543
 20
121.482300
 30
0.0
 10
241.662543
 20
135.482300
 30
0.0
  0
SPLINE
  5
36e
100
AcDbEntity
  8
VISIBLE
 62
7
100
AcDbSpline
 70
8
 71
3
 72
8
 73
4
 74
0
 40
0
 40
0
 40
0
 40
0
 40
1
 40
1
 40
1
 40
1
 10
248.162543
 20
120.982299
 30
0.0
 10
248.295152
 20
120.982299
 30
0.0
 10
248.422329
 20
121.034978
 30
0.0
 10
248.516097
 20
121.128746
 30
0.0
  0
SPLINE
  5
36f
100
AcDbEntity
  8
VISIBLE
 62
7
100
AcDbSpline
 70
8
 71
3
 72
8
 73
4
 74
0
 40
0
 40
0
 40
0
 40
0
 40
1
 40
1
 40
1
 40
1
 10
248.516097
 20
121.128746
 30
0.0
 10
248.609865
 20
121.222514
 30
0.0
 10
248.662543
 20
121.349691
 30
0.0
 10
248.662543
 20
121.482300
 30
0.0
  0
SPLINE
  5
370
100
AcDbEntity
  8
VISIBLE
 62
7
100
AcDbSpline
 70
8
 71
3
 72
8
 73
4
 74
0
 40
0
 40
0
 40
0
 40
0
 40
1
 40
1
 40
1
 40
1
 10
314.368794
 20
120.482299
 30
0.0
 10
314.368794
 20
120.206157
 30
0.0
 10
314.592651
 20
119.982300
 30
0.0
 10
314.868793
 20
119.982300
 30
0.0
  0
LWPOLYLINE
  5
371
100
AcDbEntity
  8
VISIBLE
 62
7
100
AcDbPolyline
 90
2
 70
0
 10
248.162543
 20
120.982299
 30
0.0
 10
242.162544
 20
120.982299
 30
0.0
  0
SPLINE
  5
372
100
AcDbEntity
  8
VISIBLE
 62
7
100
AcDbSpline
 70
8
 71
3
 72
8
 73
4
 74
0
 40
0
 40
0
 40
0
 40
0
 40
1
 40
1
 40
1
 40
1
 10
327.868794
 20
119.982300
 30
0.0
 10
328.144936
 20
119.982300
 30
0.0
 10
328.368793
 20
120.206157
 30
0.0
 10
328.368794
 20
120.482299
 30
0.0
  0
LWPOLYLINE
  5
373
100
AcDbEntity
  8
VISIBLE
 62
7
100
AcDbPolyline
 90
2
 70
0
 10
314.868793
 20
119.982300
 30
0.0
 10
327.868794
 20
119.982300
 30
0.0
  0
SPLINE
  5
374
100
AcDbEntity
  8
VISIBLE
 62
7
100
AcDbSpline
 70
8
 71
3
 72
8
 73
4
 74
0
 40
0
 40
0
 40
0
 40
0
 40
1
 40
1
 40
1
 40
1
 10
328.368794
 20
133.482300
 30
0.0
 10
328.368794
 20
133.614908
 30
0.0
 10
328.316115
 20
133.742085
 30
0.0
 10
328.222347
 20
133.835853
 30
0.0
  0
SPLINE
  5
375
100
AcDbEntity
  8
VISIBLE
 62
7
100
AcDbSpline
 70
8
 71
3
 72
8
 73
4
 74
0
 40
0
 40
0
 40
0
 40
0
 40
1
 40
1
 40
1
 40
1
 10
328.222347
 20
133.835853
 30
0.0
 10
328.128579
 20
133.929621
 30
0.0
 10
328.001402
 20
133.982300
 30
0.0
 10
327.868794
 20
133.982300
 30
0.0
  0
LWPOLYLINE
  5
376
100
AcDbEntity
  8
VISIBLE
 62
7
100
AcDbPolyline
 90
2
 70
0
 10
328.368794
 20
133.482300
 30
0.0
 10
328.368794
 20
120.482299
 30
0.0
  0
SPLINE
  5
377
100
AcDbEntity
  8
VISIBLE
 62
7
100
AcDbSpline
 70
8
 71
3
 72
8
 73
4
 74
0
 40
0
 40
0
 40
0
 40
0
 40
1
 40
1
 40
1
 40
1
 10
314.868793
 20
133.982300
 30
0.0
 10
314.592651
 20
133.982300
 30
0.0
 10
314.368794
 20
133.758442
 30
0.0
 10
314.368794
 20
133.482300
 30
0.0
  0
SPLINE
  5
378
100
AcDbEntity
  8
VISIBLE
 62
7
100
AcDbSpline
 70
8
 71
3
 72
8
 73
4
 74
0
 40
0
 40
0
 40
0
 40
0
 40
1
 40
1
 40
1
 40
1
 10
333.418794
 20
120.482299
 30
0.0
 10
333.418794
 20
120.206157
 30
0.0
 10
333.642651
 20
119.982300
 30
0.0
 10
333.918793
 20
119.982300
 30
0.0
  0
LWPOLYLINE
  5
379
100
AcDbEntity
  8
VISIBLE
 62
7
100
AcDbPolyline
 90
2
 70
0
 10
314.868793
 20
133.982300
 30
0.0
 10
327.868794
 20
133.982300
 30
0.0
  0
SPLINE
  5
37a
100
AcDbEntity
  8
VISIBLE
 62
7
100
AcDbSpline
 70
8
 71
3
 72
8
 73
4
 74
0
 40
0
 40
0
 40
0
 40
0
 40
1
 40
1
 40
1
 40
1
 10
346.918794
 20
119.982300
 30
0.0
 10
347.194936
 20
119.982300
 30
0.0
 10
347.418793
 20
120.206157
 30
0.0
 10
347.418794
 20
120.482299
 30
0.0
  0
LWPOLYLINE
  5
37b
100
AcDbEntity
  8
VISIBLE
 62
7
100
AcDbPolyline
 90
2
 70
0
 10
333.918793
 20
119.982300
 30
0.0
 10
346.918794
 20
119.982300
 30
0.0
  0
SPLINE
  5
37c
100
AcDbEntity
  8
VISIBLE
 62
7
100
AcDbSpline
 70
8
 71
3
 72
8
 73
4
 74
0
 40
0
 40
0
 40
0
 40
0
 40
1
 40
1
 40
1
 40
1
 10
347.418794
 20
133.482300
 30
0.0
 10
347.418794
 20
133.614908
 30
0.0
 10
347.366115
 20
133.742085
 30
0.0
 10
347.272347
 20
133.835853
 30
0.0
  0
SPLINE
  5
37d
100
AcDbEntity
  8
VISIBLE
 62
7
100
AcDbSpline
 70
8
 71
3
 72
8
 73
4
 74
0
 40
0
 40
0
 40
0
 40
0
 40
1
 40
1
 40
1
 40
1
 10
347.272347
 20
133.835853
 30
0.0
 10
347.178579
 20
133.929621
 30
0.0
 10
347.051402
 20
133.982300
 30
0.0
 10
346.918794
 20
133.982300
 30
0.0
  0
LWPOLYLINE
  5
37e
100
AcDbEntity
  8
VISIBLE
 62
7
100
AcDbPolyline
 90
2
 70
0
 10
347.418794
 20
133.482300
 30
0.0
 10
347.418794
 20
120.482299
 30
0.0
  0
SPLINE
  5
37f
100
AcDbEntity
  8
VISIBLE
 62
7
100
AcDbSpline
 70
8
 71
3
 72
8
 73
4
 74
0
 40
0
 40
0
 40
0
 40
0
 40
1
 40
1
 40
1
 40
1
 10
333.918793
 20
133.982300
 30
0.0
 10
333.642651
 20
133.982300
 30
0.0
 10
333.418794
 20
133.758442
 30
0.0
 10
333.418794
 20
133.482300
 30
0.0
  0
SPLINE
  5
380
100
AcDbEntity
  8
VISIBLE
 62
7
100
AcDbSpline
 70
8
 71
3
 72
8
 73
4
 74
0
 40
0
 40
0
 40
0
 40
0
 40
1
 40
1
 40
1
 40
1
 10
352.468794
 20
120.482299
 30
0.0
 10
352.468794
 20
120.206157
 30
0.0
 10
352.692651
 20
119.982300
 30
0.0
 10
352.968793
 20
119.982300
 30
0.0
  0
LWPOLYLINE
  5
381
100
AcDbEntity
  8
VISIBLE
 62
7
100
AcDbPolyline
 90
2
 70
0
 10
333.918793
 20
133.982300
 30
0.0
 10
346.918794
 20
133.982300
 30
0.0
  0
SPLINE
  5
382
100
AcDbEntity
  8
VISIBLE
 62
7
100
AcDbSpline
 70
8
 71
3
 72
8
 73
4
 74
0
 40
0
 40
0
 40
0
 40
0
 40
1
 40
1
 40
1
 40
1
 10
365.968794
 20
119.982300
 30
0.0
 10
366.244936
 20
119.982300
 30
0.0
 10
366.468793
 20
120.206157
 30
0.0
 10
366.468794
 20
120.482299
 30
0.0
  0
LWPOLYLINE
  5
383
100
AcDbEntity
  8
VISIBLE
 62
7
100
AcDbPolyline
 90
2
 70
0
 10
352.968793
 20
119.982300
 30
0.0
 10
365.968794
 20
119.982300
 30
0.0
  0
SPLINE
  5
384
100
AcDbEntity
  8
VISIBLE
 62
7
100
AcDbSpline
 70
8
 71
3
 72
8
 73
4
 74
0
 40
0
 40
0
 40
0
 40
0
 40
1
 40
1
 40
1
 40
1
 10
366.468794
 20
133.482300
 30
0.0
 10
366.468794
 20
133.614908
 30
0.0
 10
366.416115
 20
133.742085
 30
0.0
 10
366.322347
 20
133.835853
 30
0.0
  0
SPLINE
  5
385
100
AcDbEntity
  8
VISIBLE
 62
7
100
AcDbSpline
 70
8
 71
3
 72
8
 73
4
 74
0
 40
0
 40
0
 40
0
 40
0
 40
1
 40
1
 40
1
 40
1
 10
366.322347
 20
133.835853
 30
0.0
 10
366.228579
 20
133.929621
 30
0.0
 10
366.101402
 20
133.982300
 30
0.0
 10
365.968794
 20
133.982300
 30
0.0
  0
LWPOLYLINE
  5
386
100
AcDbEntity
  8
VISIBLE
 62
7
100
AcDbPolyline
 90
2
 70
0
 10
366.468794
 20
133.482300
 30
0.0
 10
366.468794
 20
120.482299
 30
0.0
  0
SPLINE
  5
387
100
AcDbEntity
  8
VISIBLE
 62
7
100
AcDbSpline
 70
8
 71
3
 72
8
 73
4
 74
0
 40
0
 40
0
 40
0
 40
0
 40
1
 40
1
 40
1
 40
1
 10
352.968793
 20
133.982300
 30
0.0
 10
352.692651
 20
133.982300
 30
0.0
 10
352.468794
 20
133.758442
 30
0.0
 10
352.468794
 20
133.482300
 30
0.0
  0
LWPOLYLINE
  5
388
100
AcDbEntity
  8
VISIBLE
 62
7
100
AcDbPolyline
 90
2
 70
0
 10
352.968793
 20
133.982300
 30
0.0
 10
365.968794
 20
133.982300
 30
0.0
  0
LWPOLYLINE
  5
389
100
AcDbEntity
  8
VISIBLE
 62
7
100
AcDbPolyline
 90
2
 70
0
 10
66.193794
 20
117.457300
 30
0.0
 10
366.993794
 20
117.457300
 30
0.0
  0
LWPOLYLINE
  5
38a
100
AcDbEntity
  8
VISIBLE
 62
7
100
AcDbPolyline
 90
2
 70
0
 10
64.193794
 20
210.707299
 30
0.0
 10
64.193794
 20
119.457300
 30
0.0
  0
LWPOLYLINE
  5
38b
100
AcDbEntity
  8
VISIBLE
 62
7
100
AcDbPolyline
 90
2
 70
0
 10
66.193794
 20
212.707300
 30
0.0
 10
366.993794
 20
212.707300
 30
0.0
  0
SPLINE
  5
38c
100
AcDbEntity
  8
VISIBLE
 62
7
100
AcDbSpline
 70
8
 71
3
 72
8
 73
4
 74
0
 40
0
 40
0
 40
0
 40
0
 40
1
 40
1
 40
1
 40
1
 10
257.218794
 20
120.482299
 30
0.0
 10
257.218794
 20
120.206157
 30
0.0
 10
257.442651
 20
119.982300
 30
0.0
 10
257.718793
 20
119.982300
 30
0.0
  0
LWPOLYLINE
  5
38d
100
AcDbEntity
  8
VISIBLE
 62
7
100
AcDbPolyline
 90
2
 70
0
 10
257.218794
 20
133.482300
 30
0.0
 10
257.218794
 20
120.482299
 30
0.0
  0
SPLINE
  5
38e
100
AcDbEntity
  8
VISIBLE
 62
7
100
AcDbSpline
 70
8
 71
3
 72
8
 73
4
 74
0
 40
0
 40
0
 40
0
 40
0
 40
1
 40
1
 40
1
 40
1
 10
308.818794
 20
119.982300
 30
0.0
 10
309.094936
 20
119.982300
 30
0.0
 10
309.318793
 20
120.206157
 30
0.0
 10
309.318794
 20
120.482299
 30
0.0
  0
LWPOLYLINE
  5
38f
100
AcDbEntity
  8
VISIBLE
 62
7
100
AcDbPolyline
 90
2
 70
0
 10
257.718793
 20
119.982300
 30
0.0
 10
308.818794
 20
119.982300
 30
0.0
  0
SPLINE
  5
390
100
AcDbEntity
  8
VISIBLE
 62
7
100
AcDbSpline
 70
8
 71
3
 72
8
 73
4
 74
0
 40
0
 40
0
 40
0
 40
0
 40
1
 40
1
 40
1
 40
1
 10
309.318794
 20
133.482300
 30
0.0
 10
309.318794
 20
133.614908
 30
0.0
 10
309.266115
 20
133.742085
 30
0.0
 10
309.172347
 20
133.835853
 30
0.0
  0
SPLINE
  5
391
100
AcDbEntity
  8
VISIBLE
 62
7
100
AcDbSpline
 70
8
 71
3
 72
8
 73
4
 74
0
 40
0
 40
0
 40
0
 40
0
 40
1
 40
1
 40
1
 40
1
 10
309.172347
 20
133.835853
 30
0.0
 10
309.078579
 20
133.929621
 30
0.0
 10
308.951402
 20
133.982300
 30
0.0
 10
308.818794
 20
133.982300
 30
0.0
  0
LWPOLYLINE
  5
392
100
AcDbEntity
  8
VISIBLE
 62
7
100
AcDbPolyline
 90
2
 70
0
 10
309.318794
 20
133.482300
 30
0.0
 10
309.318794
 20
120.482299
 30
0.0
  0
LWPOLYLINE
  5
393
100
AcDbEntity
  8
VISIBLE
 62
7
100
AcDbPolyline
 90
2
 70
0
 10
257.718793
 20
133.982300
 30
0.0
 10
308.818794
 20
133.982300
 30
0.0
  0
SPLINE
  5
394
100
AcDbEntity
  8
VISIBLE
 62
7
100
AcDbSpline
 70
8
 71
3
 72
8
 73
4
 74
0
 40
0
 40
0
 40
0
 40
0
 40
1
 40
1
 40
1
 40
1
 10
69.100044
 20
158.582299
 30
0.0
 10
69.100044
 20
158.306157
 30
0.0
 10
69.323901
 20
158.082300
 30
0.0
 10
69.600043
 20
158.082300
 30
0.0
  0
LWPOLYLINE
  5
395
100
AcDbEntity
  8
VISIBLE
 62
7
100
AcDbPolyline
 90
2
 70
0
 10
69.100044
 20
171.582300
 30
0.0
 10
69.100044
 20
158.582299
 30
0.0
  0
SPLINE
  5
396
100
AcDbEntity
  8
VISIBLE
 62
7
100
AcDbSpline
 70
8
 71
3
 72
8
 73
4
 74
0
 40
0
 40
0
 40
0
 40
0
 40
1
 40
1
 40
1
 40
1
 10
87.362544
 20
158.082300
 30
0.0
 10
87.638686
 20
158.082300
 30
0.0
 10
87.862543
 20
158.306157
 30
0.0
 10
87.862544
 20
158.582299
 30
0.0
  0
LWPOLYLINE
  5
397
100
AcDbEntity
  8
VISIBLE
 62
7
100
AcDbPolyline
 90
2
 70
0
 10
69.600043
 20
158.082300
 30
0.0
 10
87.362544
 20
158.082300
 30
0.0
  0
SPLINE
  5
398
100
AcDbEntity
  8
VISIBLE
 62
7
100
AcDbSpline
 70
8
 71
3
 72
8
 73
4
 74
0
 40
0
 40
0
 40
0
 40
0
 40
1
 40
1
 40
1
 40
1
 10
87.862544
 20
171.582300
 30
0.0
 10
87.862544
 20
171.714908
 30
0.0
 10
87.809865
 20
171.842085
 30
0.0
 10
87.716097
 20
171.935853
 30
0.0
  0
SPLINE
  5
399
100
AcDbEntity
  8
VISIBLE
 62
7
100
AcDbSpline
 70
8
 71
3
 72
8
 73
4
 74
0
 40
0
 40
0
 40
0
 40
0
 40
1
 40
1
 40
1
 40
1
 10
87.716097
 20
171.935853
 30
0.0
 10
87.622329
 20
172.029621
 30
0.0
 10
87.495152
 20
172.082300
 30
0.0
 10
87.362544
 20
172.082300
 30
0.0
  0
LWPOLYLINE
  5
39a
100
AcDbEntity
  8
VISIBLE
 62
7
100
AcDbPolyline
 90
2
 70
0
 10
87.862544
 20
171.582300
 30
0.0
 10
87.862544
 20
158.582299
 30
0.0
  0
LWPOLYLINE
  5
39b
100
AcDbEntity
  8
VISIBLE
 62
7
100
AcDbPolyline
 90
2
 70
0
 10
69.600043
 20
172.082300
 30
0.0
 10
87.362544
 20
172.082300
 30
0.0
  0
ENDSEC
  0
SECTION
  2
OBJECTS
  0
DICTIONARY
  5
C
330
0
100
AcDbDictionary
  3
ACAD_GROUP
350
D
  3
ACAD_MLINESTYLE
350
17
  0
DICTIONARY
  5
D
330
C
100
AcDbDictionary
  0
DICTIONARY
  5
1A
330
C
100
AcDbDictionary
  0
DICTIONARY
  5
17
330
C
100
AcDbDictionary
  3
STANDARD
350
18
  0
DICTIONARY
  5
19
330
C
100
AcDbDictionary
  0
ENDSEC
  0
EOF
